<ttFont>
          <CharString index="0">
            164 127 rmoveto
            11 -9 24 -18 28 -25 13 -11 13 -13 13 -13 rrcurveto
            -43 41 32 -15 33 hhcurveto
            178 253 212 107 80 hvcurveto
            -72 callsubr
            277 16 29 23 44 2 87 -10 65 -10 61 -6 3 -20 8 -99 36 -54 14 -159 106 -35 23 -24 6 -19 1 rrcurveto
            -73 -124 -58 -37 -60 hvcurveto
            -51 -32 -124 -95 -60 vvcurveto
            -12 4 -15 8 -27 vhcurveto
            26 -86 34 -246 -198 vvcurveto
            -104 -35 -33 82 -74 vhcurveto
            261 290 rmoveto
            1 1 1 1 vvcurveto
            13 101 10 254 56 vvcurveto
            91 -29 68 -20 35 -8 -58 -136 -114 -153 -46 -68 rrcurveto
            return
          </CharString>
          <CharString index="1">
            126 136 rmoveto
            73 -73 240 -71 133 -12 65 7 60 22 85 43 57 29 82 49 25 30 rrcurveto
            34 124 43 276 199 vvcurveto
            112 -3 56 -13 60 vhcurveto
            -88 105 -226 96 -167 16 -102 -14 -285 -110 -59 -74 -42 -276 40 -289 48 -305 rrcurveto
            302 156 rmoveto
            -10 101 -4 101 99 vvcurveto
            81 4 80 8 80 vhcurveto
            60 29 154 -63 rlineto
            12 -115 5 -104 -101 vvcurveto
            -75 -1 -74 -7 -73 vhcurveto
            -55 -38 -70 15 -55 30 -41 27 rlinecurve
            return
          </CharString>
          <CharString index="2">
            6 140 rmoveto
            38 -99 110 -59 112 -2 222 -3 31 236 26 225 85 -8 102 -6 68 -4 rrcurveto
            54 hlineto
            19 -87 -81 -272 48 -51 98 -31 103 1 rlinecurve
            71 1 73 16 60 37 6 102 2 94 -228 1136 -250 76 -254 63 -266 44 -83 -75 -42 -155 -3 -103 52 -20 85 -16 93 -13 -174 -875 rcurveline
            -132 11 rlineto
            518 330 rmoveto
            23 207 15 210 5 88 86 -8 rcurveline
            104 -475 rlineto
            return
          </CharString>
          <CharString index="3">
            hintmask 00000000
            hintmask 10101000
            -30 callgsubr
            -29 40 33 -22 37 hhcurveto
            108 150 344 173 68 hvcurveto
            15 -7 -14 -90 -10 -78 -10 -101 rlinecurve
            -1 -10 -1 -9 -9 vvcurveto
            -67 30 -22 22 -24 vhcurveto
            -60 55 77 -40 63 hhcurveto
            116 100 140 159 69 hvcurveto
            -85 121 -173 -92 rlineto
            94 223 78 425 94 vvcurveto
            11 vlineto
            hintmask 11001000
            84 -71 -84 37 -29 callgsubr
            -77 -70 -14 -14 -21 hvcurveto
            -32 5 -72 -18 callsubr
            -255 -75 -73 -30 14 rcurveline
            39 182 12 178 196 vvcurveto
            hintmask 10101000
            86 -3 83 -7 74 vhcurveto
            11 -23 -37 6 -44 hhcurveto
            -122 -172 -50 -137 -55 hvcurveto
            155 -431 rlineto
            hintmask 00010100
            return
          </CharString>
          <CharString index="4">
            -22 callgsubr
            107 89 39 92 rrcurveto
            169 -36 -178 48 -123 hhcurveto
            -31 -101 -21 -46 -57 -142 18 -61 102 -78 97 -6 rrcurveto
            endchar
          </CharString>
          <CharString index="5">
            -29 callsubr
            173 68 rmoveto
            143 -38 299 -45 178 -5 112 28 87 80 52 105 rrcurveto
            89 -17 136 -21 56 vhcurveto
            -180 15 rlineto
            hintmask 10010000
            -82 -190 -287 10 14 355 rlineto
            -60 107 138 -23 129 hhcurveto
            20 20 1 2 20 hvcurveto
            23 25 28 83 86 vvcurveto
            54 -11 54 -29 44 vhcurveto
            -150 -31 -93 -25 -210 -23 -39 320 rcurveline
            215 -59 136 -39 118 -11 rrcurveto
            66 50 39 113 106 vvcurveto
            92 -29 88 -66 38 vhcurveto
            -412 -94 -333 73 rlineto
            -83 -58 -80 -116 -89 vvcurveto
            243 -584 -158 -417 rlineto
            hintmask 01010000
            10 -71 33 -65 50 -60 rrcurveto
            hintmask 00101000
            return
          </CharString>
          <CharString index="6">
            253 80 rmoveto
            101 -98 349 -8 123 102 -15 88 -20 59 -23 49 130 518 rcurveline
            142 -492 -27 -57 -27 -68 -10 -93 rlinecurve
            101 -98 349 -8 123 102 -15 86 -20 59 -22 48 303 896 rcurveline
            -6 152 -59 143 -109 90 -144 -18 -194 -97 -65 -155 50 -110 86 -55 67 -59 -99 -683 rcurveline
            -17 hlineto
            -17 286 -148 411 -11 65 rrcurveto
            0 0 1 1 1 vhcurveto
            -5 154 -59 179 -85 77 -144 -18 -167 -88 -94 9 callgsubr
            -57 67 -59 -159 -687 rcurveline
            -7 hlineto
            -17 291 -119 759 -27 57 rrcurveto
            -1 hlineto
            -43 51 -60 21 -61 -2 -125 -3 -149 -117 -49 -103 173 -230 rcurveline
            3 -11 207 -795 -26 -55 -25 -67 -10 -89 rlinecurve
            return
          </CharString>
          <CharString index="7">
            rmoveto
            55 31 56 66 60 69 81 -62 85 -71 89 -33 67 17 58 83 18 45 -208 249 rcurveline
            3 -15 -19 1 -19 hhcurveto
            -89 -143 -26 -34 -38 hvcurveto
            -57 -92 -38 -44 -84 -80 27 -49 49 -44 65 -29 rrcurveto
            endchar
          </CharString>
          <CharString index="8">
            24 70 13 96 -5 83 -77 97 -276 164 -92 49 9 186 rcurveline
            26 9 68 -93 126 -111 82 -34 rlinecurve
            116 120 58 143 -35 121 -161 54 rcurveline
            24 -59 -85 58 -59 hhcurveto
            -76 -123 -57 -37 -62 hvcurveto
            -45 -27 -133 -99 -59 vvcurveto
            -42 1 -210 21 -79 vhcurveto
            54 -70 173 -79 129 -48 44 -16 39 -13 27 -8 3 -37 -2 -56 -7 -38 -49 -24 rcurveline
            -109 80 -127 85 -141 4 -16 -34 -86 -103 100 -182 rrcurveto
            return
          </CharString>
          <CharString index="9">
            hintmask 00000000
            hintmask 01101010
            116 147 26 callsubr
            39 -28 35 -24 36 2 18 1 18 7 20 16 95 82 112 224 79 226 13 -9 rcurveline
            hintmask 10110010
            -2 -188 25 -299 -9 -195 rrcurveto
            -93 -205 26 22 -98 hvcurveto
            -34 callgsubr
            44 -58 182 -101 150 -1 rrcurveto
            15 14 1 2 14 hvcurveto
            176 60 156 147 43 166 -132 758 rcurveline
            115 201 10 86 16 77 rrcurveto
            -1 hlineto
            1 1 rlineto
            84 -71 -84 37 -29 callgsubr
            -77 -70 -14 -14 -21 hvcurveto
            -32 6 -96 2 -118 vhcurveto
            hintmask 01101010
            -60 103 -69 119 -106 74 -39 -5 -202 -37 -124 -157 rrcurveto
            -19 -25 -7 -14 -16 vvcurveto
            -13 3 -15 8 -27 vhcurveto
            46 -157 20 -260 -158 -54 -6 -91 -28 vvcurveto
            304 206 rmoveto
            26 121 16 117 122 vvcurveto
            107 vlineto
            64 -15 66 -11 80 -20 rrcurveto
            -84 1 44 -3 -40 28 callsubr
            hintmask 00000101
            return
          </CharString>
          <CharString index="10">
            -74 callgsubr
            -79 125 -150 -67 19 78 54 221 38 443 9 49 rlinecurve
            41 -47 -57 17 -61 hhcurveto
            -125 -135 -72 -73 -60 hvcurveto
            131 -521 rlineto
            -93 -262 -1 14 -37 vvcurveto
            return
          </CharString>
          <CharString index="11">
            374 228 rmoveto
            -155 2 156 -93 141 hhcurveto
            131 189 138 118 51 hvcurveto
            -75 146 -65 -27 -126 -40 -55 -8 rlinecurve
            -31 191 136 76 146 165 137 287 54 139 rlinecurve
            -6 152 -50 142 -109 90 -144 -18 -180 -68 -65 9 callgsubr
            -61 67 -59 -153 -438 rcurveline
            -45 hlineto
            -133 840 -53 37 -62 13 -72 -1 rlinecurve
            -64 -1 -192 -34 -9 -225 120 -138 rcurveline
            142 -510 149 -116 -10 -82 -29 -80 2 -115 rlinecurve
            return
          </CharString>
          <CharString index="12">
            hintmask 00000000
            hintmask 01101000
            273 47 rmoveto
            -44 48 105 -23 100 hhcurveto
            96 92 21 42 26 hvcurveto
            41 -4 35 -11 31 vhcurveto
            42 102 36 123 33 114 65 -233 rcurveline
            hintmask 10101000
            -16 -43 -14 -53 -7 -113 rrcurveto
            -44 49 103 -24 106 hhcurveto
            101 102 21 44 50 hvcurveto
            -17 78 -21 53 -24 44 129 231 123 288 39 92 -11 135 -66 160 -98 79 -128 -16 -160 -119 -48 -137 47 -97 61 -45 62 -51 -13 -104 -48 -194 -49 -135 rrcurveto
            -15 hlineto
            -14 144 -45 213 -40 166 2 1 rcurveline
            -11 135 -66 160 -98 79 -128 -16 -160 -119 -48 -137 47 -97 61 -45 62 -51 -13 -104 -48 -196 -47 -135 -13 1 rcurveline
            -30 253 -99 466 -10 69 rrcurveto
            59 -32 -69 27 -74 hhcurveto
            -112 -148 -101 -110 hvcurveto
            154 -275 153 -410 rlineto
            hintmask 01101000
            -21 -51 -8 -48 -10 -137 rrcurveto
            hintmask 00010100
            return
          </CharString>
          <CharString index="13">
            130 147 rmoveto
            1 -53 82 -28 50 -35 39 -28 36 -25 36 2 18 1 18 8 19 16 95 82 114 269 53 141 5 -2 rcurveline
            -6 -92 -5 -81 -8 -101 -8 -89 35 -25 25 -27 56 -59 79 -42 62 1 116 2 97 137 67 160 -88 121 rcurveline
            -171 -92 87 291 43 864 -9 61 rlinecurve
            66 -71 -103 23 -92 hhcurveto
            -96 -84 -26 -28 -23 hvcurveto
            3 -40 58 -411 17 -198 -5 -2 rcurveline
            -62 103 -71 119 -108 74 -39 -5 -201 -37 -121 -157 rrcurveto
            -19 -25 -6 -14 -16 vvcurveto
            -13 4 -15 8 -27 vhcurveto
            76 -261 -7 -262 4 -225 rrcurveto
            300 206 rmoveto
            24 121 14 117 -2 122 -2 107 rcurveline
            64 -15 67 -11 80 -20 1 -84 1 44 -3 -40 -32 -70 -108 -212 -74 -73 rrcurveto
            return
          </CharString>
          <CharString index="14">
            rmoveto
            27 30 3 5 30 hvcurveto
            90 16 136 81 145 vvcurveto
            150 -108 93 -170 -28 -30 -2 -5 -30 vhcurveto
            -90 -16 -136 -80 -145 vvcurveto
            -151 107 -94 172 vhcurveto
            28 182 rmoveto
            -28 -29 6 12 -22 hvcurveto
            -9 13 -3 17 18 vvcurveto
            15 3 15 4 14 vhcurveto
            3 13 20 2 21 hhcurveto
            33 37 -5 -14 18 hvcurveto
            6 -11 3 -16 -15 vvcurveto
            -15 -3 -16 -3 -14 vhcurveto
            -6 -19 -21 -3 -21 hhcurveto
            endchar
          </CharString>
          <CharString index="15">
            30 -66 88 -99 103 -56 129 14 260 122 22 75 rrcurveto
            39 134 49 517 155 vvcurveto
            137 -5 32 -7 61 vhcurveto
            -96 108 -155 101 -114 54 -712 60 rcurveline
            -103 -71 -23 -132 -9 -120 183 -16 rcurveline
            17 -188 15 -250 58 -335 -49 callsubr
            return
          </CharString>
          <CharString index="16">
            258 -20 rmoveto
            116 7 78 74 52 89 rrcurveto
            -78 98 137 -92 123 hhcurveto
            202 47 201 188 107 -15 103 -17 46 hvcurveto
            -184 24 -95 -289 -253 48 -13 1 105 1080 rlineto
            29 -48 -50 -45 callgsubr
            34 -201 0 -300 79 -461 -52 callsubr
            -59 callgsubr
            rlinecurve
            return
          </CharString>
          <CharString index="17">
            122 134 128 56 8 hvcurveto
            17 197 -77 338 -21 92 -4 -2 rcurveline
            4 22 8 35 51 221 40 407 6 49 rlinecurve
            40 -46 -57 18 -59 hhcurveto
            -126 1 -136 -72 -61 -74 127 -453 rcurveline
            -33 -699 -56 8 return
          </CharString>
          <CharString index="18">
            167 127 rmoveto
            -22 27 144 -125 88 hhcurveto
            157 244 224 86 47 hvcurveto
            -101 153 -112 -60 -158 -79 -48 -20 rlinecurve
            -19 16 37 175 5 270 -16 144 rlinecurve
            62 -84 70 -112 102 -60 51 15 165 180 -35 231 -186 48 rcurveline
            23 -50 -120 74 -60 hhcurveto
            -63 -122 -61 -31 -52 hvcurveto
            -52 -31 -127 -94 -57 vvcurveto
            -13 7 -20 9 -28 vhcurveto
            39 -114 21 -251 -185 vvcurveto
            -104 -38 -16 84 -72 vhcurveto
            return
          </CharString>
          <CharString index="19">
            -50 callgsubr
            -14 callgsubr
            hintmask 00000000
            hintmask 01011000
            130 146 rmoveto
            1 -53 83 -28 49 -35 40 -28 35 -24 36 2 18 1 18 7 20 16 94 82 111 269 55 141 15 -7 rcurveline
            -14 -90 -10 -78 -10 -101 rrcurveto
            hintmask 10101000
            -9 -89 34 -25 25 -27 55 -59 78 -42 62 1 116 2 100 137 69 160 -85 121 rcurveline
            -173 -92 99 234 81 455 -8 64 rlinecurve
            84 -71 -84 37 -29 callgsubr
            -77 -70 -14 -14 -21 hvcurveto
            -32 6 -96 2 -118 vhcurveto
            hintmask 01011000
            -60 103 -79 119 -107 74 -39 -5 -201 -37 -122 -157 rrcurveto
            -18 -25 -7 -14 -16 vvcurveto
            -13 4 -15 8 -27 vhcurveto
            49 -157 24 -260 3 -158 rrcurveto
            1 -54 -4 -91 -28 vvcurveto
            301 206 rmoveto
            24 121 14 117 -3 122 -1 107 rcurveline
            64 -15 70 -11 80 -20 rrcurveto
            -84 1 44 -3 -40 vhcurveto
            -33 -70 -109 -212 -74 -73 rrcurveto
            return
          </CharString>
          <CharString index="20">
            48 1 -49 callgsubr
            -23 callsubr
            hintmask 00000000
            hintmask 10110000
            -30 callgsubr
            -29 40 33 -22 37 hhcurveto
            108 150 344 173 68 hvcurveto
            15 -7 -14 -90 -10 -78 -10 -101 rlinecurve
            -1 -10 -1 -9 -9 vvcurveto
            -67 30 -22 22 -24 vhcurveto
            -60 55 77 -40 63 hhcurveto
            116 100 140 159 69 hvcurveto
            -85 121 -173 -92 rlineto
            94 223 78 425 94 vvcurveto
            11 vlineto
            hintmask 11010000
            84 -71 -84 37 -29 callgsubr
            -77 -70 -14 -14 -21 hvcurveto
            -32 5 -72 -18 callsubr
            -255 -75 -73 -30 14 rcurveline
            39 182 12 178 196 vvcurveto
            hintmask 10110000
            86 -3 83 -7 74 vhcurveto
            11 -23 -37 6 -44 hhcurveto
            -122 -172 -50 -137 -55 hvcurveto
            155 -431 rlineto
            return
          </CharString>
          <CharString index="21">
            rmoveto
            -68 -389 142 -57 85 74 175 192 50 93 rlinecurve
            -50 86 -220 14 -114 -13 rrcurveto
            endchar
          </CharString>
          <CharString index="22">
            rmoveto
            314 -12 273 6 70 6 45 88 14 103 -19 80 -651 -14 rcurveline
            -38 -65 -18 -98 10 -94 rrcurveto
            endchar
          </CharString>
          <CharString index="23">
            rmoveto
            165 4 171 145 43 163 -110 94 rcurveline
            -136 -134 -40 -8 -8 hhcurveto
            -56 -103 24 139 -66 hvcurveto
            -79 -13 -95 -60 -61 -99 33 -157 177 -98 163 2 rrcurveto
            endchar
          </CharString>
          <CharString index="24">
            rmoveto
            165 4 171 120 43 163 -110 94 rcurveline
            -101 -84 -95 -18 -27 hhcurveto
            -32 -103 -1 139 -66 hvcurveto
            -79 -13 -95 -60 -61 -99 33 -157 177 -73 163 2 rrcurveto
            endchar
          </CharString>
          <CharString index="25">
            rmoveto
            hintmask 10010100
            73 12 166 143 43 92 rrcurveto
            hintmask 10001000
            -66 callgsubr
            hintmask 10010100
            -18 -60 -2 -32 -46 callsubr
            hintmask 10001000
            -90 callsubr
            -64 10 -36 3 rlinecurve
            endchar
          </CharString>
          <CharString index="26">
            -59 callgsubr
            rrcurveto
            272 417 rmoveto
            36 783 242 -51 rlineto
            12 -127 5 -220 -196 vvcurveto
            -86 -3 -107 -4 -82 vhcurveto
            -271 83 rlineto
            return
          </CharString>
          <CharString index="27">
            -47 callsubr
            hstemhm
            45 1063 hintmask 00000000
            hintmask 01101100
            116 147 26 callsubr
            39 -28 35 -24 36 2 18 1 18 7 20 16 95 82 112 224 79 226 13 -9 rcurveline
            hintmask 10110100
            -2 -188 25 -299 -9 -195 rrcurveto
            -93 -205 26 22 -98 hvcurveto
            -34 callgsubr
            44 -58 182 -101 150 -1 rrcurveto
            15 14 1 2 14 hvcurveto
            176 60 156 147 43 166 -132 758 rcurveline
            115 201 10 86 16 77 rrcurveto
            -1 hlineto
            1 1 rlineto
            84 -71 -84 37 -29 callgsubr
            -77 -70 -14 -14 -21 hvcurveto
            -32 6 -96 2 -118 vhcurveto
            hintmask 01101100
            -60 103 -69 119 -106 74 -39 -5 -202 -37 -124 -157 rrcurveto
            -19 -25 -7 -14 -16 vvcurveto
            -13 3 -15 8 -27 vhcurveto
            46 -157 20 -260 -158 -54 -6 -91 -28 vvcurveto
            304 206 rmoveto
            26 121 16 117 122 vvcurveto
            107 vlineto
            64 -15 66 -11 80 -20 rrcurveto
            -84 1 44 -3 -40 28 callsubr
            return
          </CharString>
          <CharString index="28">
            rmoveto
            34 37 34 62 -4 63 -171 85 -88 54 -129 90 -107 -65 -63 -116 -10 -101 149 -79 233 -52 122 22 rrcurveto
            endchar
          </CharString>
          <CharString index="29">
            98 -418 -21 440 -21 41 -21 1182 -20 29 -20 hstemhm
            84 389 -293 287 hintmask 00000000
            hintmask 10101100
            360 70 rmoveto
            9 7 rlineto
            -35 50 75 -42 16 hhcurveto
            58 1 34 97 101 399 15 -7 rcurveline
            -14 -90 -10 -78 -10 -101 rrcurveto
            -1 -10 -1 -9 -9 vvcurveto
            hintmask 11010010
            -67 30 -22 22 -24 vhcurveto
            -60 55 77 -40 63 hhcurveto
            116 100 140 159 69 hvcurveto
            -85 121 -173 -92 rlineto
            94 223 78 425 94 vvcurveto
            11 vlineto
            84 -71 -84 37 -29 callgsubr
            -77 -70 -14 -14 -21 hvcurveto
            -32 5 -72 24 -286 vhcurveto
            -20 -75 -151 -255 -71 -73 -31 14 rcurveline
            30 182 3 178 -11 196 rrcurveto
            hintmask 10101010
            -4 86 -8 83 -10 74 rrcurveto
            11 -24 -37 6 -44 hhcurveto
            -122 -170 -50 -137 -47 hvcurveto
            185 -338 rlineto
            hintmask 10101100
            -89 -375 -7 -483 -173 vvcurveto
            -45 51 88 -29 107 hhcurveto
            64 49 12 24 30 hvcurveto
            -13 134 -16 150 -84 189 rrcurveto
            endchar
          </CharString>
          <CharString index="30">
            291 1207 rmoveto
            -63 callsubr
            -34 callsubr
            rrcurveto
            -228 -995 -97 callsubr
            return
          </CharString>
          <CharString index="31">
            -27 callsubr
            hstemhm
            83 432 519 13 -29 callsubr
            233 95 rmoveto
            33 -26 46 -34 47 -24 rrcurveto
            -18 27 29 -13 31 hhcurveto
            128 129 243 124 54 hvcurveto
            24 -11 -14 -119 -16 -82 -6 -87 rlinecurve
            50 -50 87 -17 83 -1 rrcurveto
            56 63 22 21 30 hvcurveto
            -64 476 98 221 rlineto
            84 -69 -85 38 -123 hhcurveto
            -77 -68 -15 -12 -23 hvcurveto
            -37 7 -123 54 -158 vhcurveto
            hintmask 10110000
            -73 -62 -170 -155 -49 2 rrcurveto
            -3 hlineto
            1 38 23 196 35 460 -18 194 rlinecurve
            24 22 100 -89 180 -74 91 -19 rlinecurve
            55 27 128 190 -54 254 -343 -31 rcurveline
            -62 32 -199 58 -61 9 -119 -44 -142 -125 -25 -94 rrcurveto
            -15 6 -66 4 -34 vhcurveto
            14 -123 21 -218 14 -217 11 -161 8 -157 5 -103 rrcurveto
            hintmask 01010000
            5 -33 16 -28 46 -36 rrcurveto
            return
          </CharString>
          <CharString index="32">
            152 123 rmoveto
            -89 449 -57 226 37 36 2 4 36 vhcurveto
            209 76 144 217 221 vvcurveto
            38 -4 38 -9 38 vhcurveto
            -26 32 -89 23 -87 13 13 58 rcurveline
            47 217 41 261 4 189 rrcurveto
            102 -121 -161 42 -76 hhcurveto
            -58 -51 -12 -5 -21 hvcurveto
            -227 -562 -29 14 95 497 rlineto
            34 -50 -58 15 -57 hhcurveto
            -109 -108 -55 -81 -60 hvcurveto
            -1 -2 0 -4 -6 vvcurveto
            -113 79 -792 53 -106 vhcurveto
            -28 -92 -12 -41 -20 -74 rrcurveto
            -5 -17 -2 -13 -10 vvcurveto
            396 623 rmoveto
            54 119 93 194 45 92 47 -8 rcurveline
            -1 -78 -10 -187 -11 -141 -67 3 -86 4 -64 2 rrcurveto
            -83 -402 rmoveto
            6 77 10 76 13 76 400 -83 rcurveline
            3 -24 1 -21 -18 vvcurveto
            -64 -13 -46 -19 -95 vhcurveto
            -127 8 -157 47 -117 67 rrcurveto
            return
          </CharString>
          <CharString index="33">
            127 240 rmoveto
            -123 4 207 -137 122 hhcurveto
            131 198 271 98 38 hvcurveto
            -127 141 -216 -178 -2 529 77 3 95 6 61 5 rlinecurve
            21 57 59 132 -81 138 -222 -45 rcurveline
            22 callgsubr
            -61 -363 -112 -39 -3 -37 3 -86 20 -54 rlinecurve
            96 -6 50 -358 rlineto
            -57 -183 -8 -48 -25 vvcurveto
            return
          </CharString>
          <CharString index="34">
            58 49 52 54 42 62 69 227 30 266 -3 188 -120 102 -162 43 -76 -1 -58 -1 -51 -10 -21 -6 -268 -562 rcurveline
            -28 14 95 497 -146 99 -205 -62 -91 -124 rlinecurve
            -9 -39 84 -870 56 -114 rrcurveto
            return
          </CharString>
          <CharString index="35">
            -85 139 -129 -62 -129 -79 -68 -13 rlinecurve
            -29 hlineto
            178 160 251 return
          </CharString>
          <CharString index="36">
            -13 -42 -13 -71 4 -53 31 -40 107 -71 105 -1 rrcurveto
            11 10 1 1 9 hvcurveto
            124 42 109 103 30 116 return
          </CharString>
          <CharString index="37">
            -4 callsubr
            hstemhm
            -5 1049 -26 callsubr
            173 68 rmoveto
            143 -38 299 -45 178 -5 112 28 87 80 52 105 rrcurveto
            89 -17 136 -21 56 vhcurveto
            -180 15 rlineto
            hintmask 10100000
            -82 -190 -287 10 14 355 rlineto
            -60 107 138 -23 129 hhcurveto
            20 20 1 2 20 hvcurveto
            23 25 28 83 86 vvcurveto
            54 -11 54 -29 44 vhcurveto
            -150 -31 -93 -25 -210 -23 -39 320 rcurveline
            215 -59 136 -39 118 -11 rrcurveto
            66 50 39 113 106 vvcurveto
            92 -29 88 -66 38 vhcurveto
            -412 -94 -333 73 rlineto
            -83 -58 -80 -116 -89 vvcurveto
            243 -584 -158 -417 rlineto
            hintmask 01100000
            10 -71 33 -65 50 -60 rrcurveto
            return
          </CharString>
          <CharString index="38">
            88 105 rmoveto
            46 -60 121 -59 43 -6 103 69 89 99 95 102 32 -112 55 -112 94 -29 rrcurveto
            -11 35 34 -6 32 hhcurveto
            88 -1 75 42 44 96 rrcurveto
            33 71 8 54 105 vvcurveto
            -118 91 -39 -42 -39 -31 -40 -20 rlinecurve
            -32 32 -49 54 -20 29 121 139 95 144 37 64 1 135 -81 176 -90 86 -129 -5 -173 -103 -63 -131 38 -89 52 -66 61 -50 -69 -166 -83 -179 -93 -155 -11 5 rcurveline
            47 338 57 612 -15 351 -44 35 -55 13 -59 -1 -123 -1 -136 -65 -65 -81 51 -318 39 -206 86 -280 -46 -154 -34 -209 -6 -194 rrcurveto
            return
          </CharString>
          <CharString index="39">
            192 143 rmoveto
            -76 85 -88 129 159 147 89 77 38 vhcurveto
            -28 124 -206 13 -36 179 116 -36 191 -35 68 1 rlinecurve
            80 1 138 127 43 51 84 232 36 382 -17 220 -120 102 -162 43 -76 -1 -58 -1 -51 -10 -21 -6 -268 -562 rcurveline
            -28 14 95 497 -52 35 -59 15 -59 -1 rlinecurve
            -107 -2 -106 -54 -59 -80 -9 -39 84 -754 56 -112 rrcurveto
            -18 -76 -9 -240 -29 vvcurveto
            312 552 rmoveto
            45 96 158 249 73 111 47 -8 rcurveline
            17 -163 -21 -184 -28 -158 -16 -93 -222 131 -53 19 rrcurveto
            return
          </CharString>
          <CharString index="40">
            -21 1224 -20 return
          </CharString>
          <CharString index="41">
            -82 -190 -287 20 14 345 rlineto
            -60 107 138 -23 129 hhcurveto
            20 20 1 2 20 hvcurveto
            23 25 28 83 86 vvcurveto
            54 -11 54 -29 44 vhcurveto
            -150 -31 -93 -25 -210 -23 -17 323 rcurveline
            179 -51 148 -34 118 -14 rrcurveto
            66 50 41 100 106 vvcurveto
            92 -29 88 -66 38 vhcurveto
            -369 -94 -344 74 -38 -27 -38 -39 -29 -43 rlinecurve
            -464 129 -83 -75 -42 -165 -3 -103 rlinecurve
            49 -19 85 -16 94 -13 -172 -866 rcurveline
            -132 11 rlineto
            518 330 rmoveto
            22 201 15 203 5 93 99 -8 rcurveline
            102 -466 -81 -7 -89 -8 -73 -8 rlinecurve
            return
          </CharString>
          <CharString index="42">
            1 -67 callsubr
            return
          </CharString>
          <CharString index="43">
            89 69 rmoveto
            -56 50 108 -33 103 hhcurveto
            67 66 15 32 44 hvcurveto
            -15 134 -36 102 -33 97 38 84 109 224 53 110 24 -4 rcurveline
            31 -408 -16 -80 -28 -38 -17 -183 rlinecurve
            -53 47 92 -32 91 hhcurveto
            65 65 16 35 46 hvcurveto
            -9 122 -6 82 -44 128 34 82 113 192 69 132 24 -5 rcurveline
            -14 -166 -13 -181 -11 -193 -4 -64 19 -39 47 -49 rrcurveto
            -52 49 78 -40 63 hhcurveto
            115 117 171 128 43 hvcurveto
            -89 121 -170 -89 119 311 36 266 7 171 rlinecurve
            return
          </CharString>
          <CharString index="44">
            73 12 166 153 43 92 rrcurveto
            -39 callsubr
            -108 -63 -142 return
          </CharString>
          <CharString index="45">
            -253 -103 -88 -210 -17 -38 21 callsubr
            return
          </CharString>
          <CharString index="46">
            35 -92 49 -82 80 -25 rrcurveto
            -14 43 41 -7 38 hhcurveto
            75 63 28 60 41 hvcurveto
            44 64 50 112 105 vvcurveto
            -118 102 -44 -37 -46 -33 -45 -16 rlinecurve
            -72 69 -79 149 -43 81 144 202 184 303 23 202 rrcurveto
            132 -104 -197 45 -85 hhcurveto
            -96 -44 -59 -130 -15 -142 141 -50 rcurveline
            -27 -121 -108 -247 -78 -148 -106 -12 rcurveline
            72 834 rlineto
            29 -48 -55 11 -63 hhcurveto
            -76 callgsubr
            rrcurveto
            return
          </CharString>
          <CharString index="47">
            -34 -36 -4 -10 -27 hvcurveto
            -89 -124 return
          </CharString>
          <CharString index="48">
            -15 64 -10 65 73 vvcurveto
            61 7 50 16 54 vhcurveto
            50 24 119 -42 rlineto
            16 -65 9 -61 -71 vvcurveto
            -62 -7 -52 -12 -56 vhcurveto
            -45 -32 -53 12 -43 16 -32 22 rlinecurve
            return
          </CharString>
          <CharString index="49">
            rmoveto
            -25 36 116 -12 62 hhcurveto
            55 1 55 10 35 26 -17 140 -41 116 -15 50 42 190 28 267 7 144 -45 40 -49 36 -52 31 -161 -36 -158 -118 -84 -105 60 -131 rcurveline
            167 29 27 -178 rlineto
            return
          </CharString>
          <CharString index="50">
            rmoveto
            14 -67 72 -58 77 -22 1149 1524 rcurveline
            -54 75 -114 85 -78 4 rrcurveto
            endchar
          </CharString>
          <CharString index="51">
            -129 16 106 -65 117 hhcurveto
            171 62 156 32 21 hvcurveto
            -32 166 -186 -27 65 338 18 456 8 198 rlinecurve
            -87 93 -302 142 -106 15 -135 -53 -69 -129 -11 -120 25 -15 35 -16 38 -16 -18 -90 -35 -185 -25 -148 -26 -220 rcurveline
            -8 -1 -172 790 -139 106 -293 85 -94 12 rlinecurve
            -140 -71 -38 -132 -9 -120 169 -51 rcurveline
            -69 -870 -1 -9 -110 9 rlineto
            return
          </CharString>
          <CharString index="52">
            58 -73 callgsubr
            return
          </CharString>
          <CharString index="53">
            -92 57 -242 187 -91 89 -54 -32 -71 -67 -33 -67 68 -94 173 -167 98 -89 -99 -100 -169 -208 -36 -104 17 -67 96 -79 55 -23 436 425 rcurveline
            15 86 -30 206 -41 47 rrcurveto
            return
          </CharString>
          <CharString index="54">
            rmoveto
            -36 callgsubr
            -82 callgsubr
            return
          </CharString>
          <CharString index="55">
            rrcurveto
            -32 hlineto
            -60 callsubr
            return
          </CharString>
          <CharString index="56">
            102 0 299 hstem
            17 1184 vstem
            129 hmoveto
            915 hlineto
            78 96 47 109 32 115 -213 583 rcurveline
            -191 626 -33 15 -75 6 -41 -1 rlinecurve
            -95 -3 -167 -41 -34 -43 -124 -559 rcurveline
            -211 -749 23 -60 42 -56 47 -38 rlinecurve
            239 309 rmoveto
            142 616 26 199 rlineto
            26 hlineto
            54 -221 229 -614 rlineto
            endchar
          </CharString>
          <CharString index="57">
            43 9 57 35 40 42 310 -54 rcurveline
            -35 -253 33 -23 101 -12 58 1 rlinecurve
            52 1 61 9 33 24 -17 132 -37 188 -15 47 52 228 26 231 -8 61 rrcurveto
            8 -19 -21 4 -21 hhcurveto
            -185 -89 -103 -37 -18 hvcurveto
            71 -287 -255 18 208 513 rlineto
            39 -31 -84 6 -34 hhcurveto
            -86 -90 -28 -67 -51 hvcurveto
            -42 -446 return
          </CharString>
          <CharString index="58">
            -52 callsubr
            rlineto
            return
          </CharString>
          <CharString index="59">
            42 -58 39 -67 174 -12 70 65 59 200 -37 74 -107 -11 -105 19 -163 37 return
          </CharString>
          <CharString index="60">
            27 -438 284 -263 -21 440 -21 1201 -20 42 -20 return
          </CharString>
          <CharString index="61">
            6 -76 35 -46 118 -89 120 -22 rrcurveto
            return
          </CharString>
          <CharString index="62">
            893 271 rmoveto
            1 1 1 1 vvcurveto
            13 101 10 274 56 vvcurveto
            91 -29 68 -20 35 -8 -58 -136 -114 -173 -46 -68 rrcurveto
            -589 -65 rmoveto
            26 121 16 117 122 vvcurveto
            107 vlineto
            69 -7 61 -19 80 -20 rrcurveto
            -53 vlineto
            -9 0 6 -2 -24 28 callsubr
            return
          </CharString>
          <CharString index="63">
            -21 1644 396 hstemhm
            return
          </CharString>
          <CharString index="64">
            1 -44 callsubr
            return
          </CharString>
          <CharString index="65">
            51 102 168 270 71 107 47 -8 rcurveline
            10 -90 -5 -188 -27 -172 rrcurveto
            return
          </CharString>
          <CharString index="66">
            -417 -21 439 -21 return
          </CharString>
          <CharString index="67">
            -57 callgsubr
            -260 -77 rcurveline
            -19 366 21 -29 92 -93 110 -42 rlinecurve
            return
          </CharString>
          <CharString index="68">
            169 -40 -169 48 -136 hhcurveto
            -35 -101 -40 return
          </CharString>
          <CharString index="69">
            rmoveto
            182 152 rlineto
            -55 92 272 -100 75 hhcurveto
            152 166 216 119 26 hvcurveto
            -121 112 -175 -149 rlineto
            38 -91 -260 119 -86 hhcurveto
            -152 -175 -223 -118 -26 hvcurveto
            return
          </CharString>
          <CharString index="70">
            -70 59 97 -88 92 hhcurveto
            126 return
          </CharString>
          <CharString index="71">
            rmoveto
            -16 34 35 -7 34 hhcurveto
            55 52 18 44 42 hvcurveto
            15 1163 rlineto
            213 hlineto
            1 callgsubr
            -296 -23 rcurveline
            40 374 rlineto
            25 -26 -45 11 -54 hhcurveto
            -95 -128 -37 -70 -44 hvcurveto
            return
          </CharString>
          <CharString index="72">
            -69 -357 rcurveline
            -11 -57 16 -31 20 -23 rrcurveto
            return
          </CharString>
          <CharString index="73">
            47 -57 104 -65 50 -1 return
          </CharString>
          <CharString index="74">
            rmoveto
            98 3 36 57 62 107 rrcurveto
            return
          </CharString>
          <CharString index="75">
            72 7 66 25 return
          </CharString>
          <CharString index="76">
            -63 -142 -34 callsubr
            rrcurveto
            return
          </CharString>
          <CharString index="77">
            hhcurveto
            70 64 32 68 51 hvcurveto
            return
          </CharString>
          <CharString index="78">
            hintmask 00000000
            hintmask 01010000
            return
          </CharString>
          <CharString index="79">
            38 -99 108 -61 112 -2 rrcurveto
            17 hlineto
            2 hlineto
            175 58 123 145 -2 hvcurveto
            -5 259 -79 562 -21 99 19 7 rcurveline
            289 -889 rlineto
            return
          </CharString>
          <CharString index="80">
            55 -20 302 -281 -21 return
          </CharString>
          <CharString index="81">
            hintmask 00000000
            hintmask 01100000
            return
          </CharString>
          <CharString index="82">
            -2 -112 -53 callsubr
            return
          </CharString>
          <CharString index="83">
            rmoveto
            -39 112 -94 72 -104 45 -90 -30 -173 -123 -31 -132 68 -95 106 -93 128 -36 51 34 162 197 16 49 rrcurveto
            endchar
          </CharString>
          <CharString index="84">
            hstemhm
            7 1157 return
          </CharString>
          <CharString index="85">
            31 -18 callgsubr
            return
          </CharString>
          <CharString index="86">
            66 rmoveto
            -57 51 116 -29 99 hhcurveto
            65 63 12 32 44 hvcurveto
            -15 134 -36 105 -33 97 76 146 61 132 66 143 27 -9 rcurveline
            return
          </CharString>
          <CharString index="87">
            -83 callgsubr
            endchar
          </CharString>
          <CharString index="88">
            520 0 -21 22 -67 callsubr
            return
          </CharString>
          <CharString index="89">
            24 -286 vhcurveto
            -20 -75 -118 return
          </CharString>
          <CharString index="90">
            33 callsubr
            398 hstemhm
            return
          </CharString>
          <CharString index="91">
            1 -184 138 return
          </CharString>
          <CharString index="92">
            -274 -117 -186 -243 -4 return
          </CharString>
          <CharString index="93">
            -241 102 -186 278 273 125 197 244 return
          </CharString>
          <CharString index="94">
            6 337 rlinecurve
            35 -46 -53 13 -59 hhcurveto
            -120 -131 -69 -79 -61 hvcurveto
            -2 -1 -2 -4 vvcurveto
            -96 116 return
          </CharString>
          <CharString index="95">
            rmoveto
            746 1 54 106 37 111 -23 96 rlinecurve
            -758 -65 -46 -78 -22 -58 20 callsubr
          </CharString>
          <CharString index="96">
            242 -51 rlineto
            12 -127 5 -220 -196 vvcurveto
            -86 -3 -107 -4 -82 vhcurveto
            -271 83 rlineto
            endchar
          </CharString>
          <CharString index="97">
            rmoveto
            746 1 54 106 37 101 -23 96 rlinecurve
            -758 -65 -46 -78 -22 -48 20 callsubr
          </CharString>
          <CharString index="98">
            -46 -78 -22 -38 9 callsubr
            return
          </CharString>
          <CharString index="99">
            -80 127 -143 -67 59 605 26 331 11 316 rlinecurve
            -43 35 -55 13 -57 -1 return
          </CharString>
          <CharString index="100">
            820 1 54 106 37 101 -23 96 rlinecurve
            -832 -65 -46 -78 -22 -48 9 callsubr
            return
          </CharString>
          <CharString index="101">
            -9 rcurveline
            -25 -551 -3 return
          </CharString>
          <CharString index="102">
            59 -326 -239 -19 -9 callsubr
            282 hlineto
            endchar
          </CharString>
          <CharString index="103">
            -6 -20 324 -303 -21 return
          </CharString>
          <CharString index="104">
            63 351 243 366 return
          </CharString>
          <CharString index="105">
            -88 -212 -46 -220 -68 -219 -4 1 rcurveline
            -13 3 32 357 45 return
          </CharString>
          <CharString index="106">
            rcurveline
            25 callsubr
            rrcurveto
            endchar
          </CharString>
          <CharString index="107">
            1 -46 callgsubr
            return
          </CharString>
          <CharString index="108">
            216 158 218 return
          </CharString>
          <CharString index="109">
            182 115 196 return
          </CharString>
          <CharString index="110">
            987 -438 694 -694 752 -313 -21 751 290 return
          </CharString>
          <CharString index="111">
            7 vstem
            111 437 rmoveto
            377 -14 return
          </CharString>
          <CharString index="112">
            723 3 370 1251 396 hstemhm
            -69 1864 return
          </CharString>
          <CharString index="113">
            rmoveto
            -90 63 166 -39 147 hhcurveto
            70 97 19 34 58 hvcurveto
            return
          </CharString>
          <CharString index="114">
            -65 callsubr
            hstem
            return
          </CharString>
          <CharString index="115">
            hintmask 00000000
            hintmask 11000000
            return
          </CharString>
          <CharString index="116">
            12 -113 rlinecurve
            return
          </CharString>
          <CharString index="117">
            12 callgsubr
            -22 return
          </CharString>
          <CharString index="118">
            224 868 -20 hstemhm
            75 786 -262 262 return
          </CharString>
          <CharString index="119">
            -27 -80 -16 -61 -27 -161 rrcurveto
            return
          </CharString>
          <CharString index="120">
            -160 1709 return
          </CharString>
          <CharString index="121">
            43 -448 rrcurveto
            return
          </CharString>
          <CharString index="122">
            -20 hstemhm
            38 416 32 416 hintmask 11000000
            196 return
          </CharString>
          <CharString index="123">
            -424 1247 485 hstem
            75 523 vstem
            return
          </CharString>
          <CharString index="124">
            43 83 31 78 79 vvcurveto
            18 -2 18 -4 19 vhcurveto
            return
          </CharString>
          <CharString index="125">
            54 -1 -66 49 -78 hhcurveto
            -88 -31 -27 -30 -60 hvcurveto
            return
          </CharString>
          <CharString index="126">
            1 -21 1633 -20 return
          </CharString>
          <CharString index="127">
            9 callsubr
            endchar
          </CharString>
          <CharString index="128">
            -16 callsubr
            -773 14 callsubr
            return
          </CharString>
          <CharString index="129">
            549 13 callsubr
            -1548 -21 return
          </CharString>
          <CharString index="130">
            -80 -50 hvcurveto
            -10 -36 88 -535 48 -122 return
          </CharString>
          <CharString index="131">
            -627 1595 -20 hstem
            38 416 vstem
            return
          </CharString>
          <CharString index="132">
            -46 -78 -22 -61 12 -113 return
          </CharString>
          <CharString index="133">
            rmoveto
            -53 82 -28 49 -35 vhcurveto
            return
          </CharString>
          <CharString index="134">
            181 0 -21 return
          </CharString>
          <CharString index="135">
            vhcurveto
            -33 -70 -112 -212 -75 -73 rrcurveto
            return
          </CharString>
          <CharString index="136">
            -15 callsubr
            hvcurveto
            return
          </CharString>
          <CharString index="137">
            63 1 63 11 40 30 -20 160 -46 return
          </CharString>
          <CharString index="138">
            -501 1 -21 1267 485 hstemhm
            return
          </CharString>
          <CharString index="139">
            hintmask 00000000
            hintmask 10100000
            return
          </CharString>
          <CharString index="140">
            -21 1629 return
          </CharString>
        <CharString name=".notdef">
          587 0 346 846 341 hstem
          222 207 849 203 vstem
          222 78 rmoveto
          -49 25 -29 44 vhcurveto
          1114 hlineto
          51 25 29 47 hvcurveto
          1381 vlineto
          47 -25 29 -51 vhcurveto
          -1117 hlineto
          -41 -25 -29 -50 hvcurveto
          223 -1033 rmoveto
          -22 22 1 28 18 17 285 285 rcurveline
          -287 289 -17 16 -5 26 22 22 rlinecurve
          61 58 21 21 25 -7 15 -15 rlinecurve
          287 -288 281 282 15 16 26 8 23 -24 rlinecurve
          67 -69 19 -18 -5 -25 -23 -22 rlinecurve
          -275 -276 284 -284 21 -20 3 -26 -24 -24 rlinecurve
          -52 -52 -22 -22 -27 2 -24 25 rlinecurve
          -281 279 -276 -277 -26 -27 -28 -1 -25 26 rlinecurve
          endchar
        </CharString>
        <CharString name="A">
          156 1 -21 hstem
          15 callgsubr
          vstem
          -105 callsubr
          endchar
        </CharString>
        <CharString name="AE">
          628 -20 329 -308 -21 hstemhm
          6 1672 -26 callsubr
          -43 callgsubr
          hintmask 10100000
          -66 callsubr
          endchar
        </CharString>
        <CharString name="AEacute">
          628 -20 329 -308 -44 callsubr
          6 1672 -971 568 -29 callsubr
          -43 callgsubr
          hintmask 10010000
          -66 callsubr
          hintmask 00101000
          202 996 -94 callgsubr
          endchar
        </CharString>
        <CharString name="Aacute">
          156 -43 callsubr
          6 1241 -817 568 hintmask 10100000
          -105 callsubr
          hintmask 01010000
          -308 974 -94 callgsubr
          endchar
        </CharString>
        <CharString name="Abreve">
          156 1 -21 1639 262 13 callgsubr
          -948 752 hintmask 10100000
          -105 callsubr
          hintmask 01010000
          -130 964 -83 callsubr
        </CharString>
        <CharString name="Acircumflex">
          156 1 -17 callsubr
          6 1241 -919 710 hintmask 10100000
          -105 callsubr
          hintmask 01010000
          -333 954 -100 callsubr
        </CharString>
        <CharString name="Adieresis">
          156 1 -21 1606 434 13 callgsubr
          -1003 888 hintmask 10100000
          -105 callsubr
          hintmask 01010000
          127 931 -104 callgsubr
        </CharString>
        <CharString name="Agrave">
          156 -43 callsubr
          6 1241 -927 568 hintmask 10100000
          -105 callsubr
          hintmask 01010000
          22 974 -79 callsubr
        </CharString>
        <CharString name="Amacron">
          156 1 -21 1677 264 13 callgsubr
          -215 8 hintmask 10100000
          -105 callsubr
          hintmask 01010000
          -467 1002 -85 callsubr
        </CharString>
        <CharString name="Aogonek">
          156 -41 callsubr
          33 -21 13 callgsubr
          hintmask 00000000
          hintmask 10110000
          6 140 rmoveto
          hintmask 11010000
          38 -99 110 -59 112 -2 222 -3 31 236 26 225 85 -8 102 -6 68 -4 rrcurveto
          54 hlineto
          19 -87 rlineto
          hintmask 10110000
          -81 -272 30 -32 50 -24 58 -13 rlinecurve
          -92 -58 -103 -78 -81 vvcurveto
          -68 callgsubr
          39 73 148 79 71 52 rlinecurve
          6 102 2 94 -228 1136 -250 76 -254 63 -266 44 -83 -75 -42 -155 -3 -103 52 -20 85 -16 93 -13 -174 -875 rcurveline
          -132 11 rlineto
          518 330 rmoveto
          23 207 15 210 5 88 86 -8 rcurveline
          104 -475 rlineto
          endchar
        </CharString>
        <CharString name="Aring">
          156 1 -21 1547 2 callsubr
          13 callgsubr
          -874 1 callsubr
          hintmask 10010000
          -105 callsubr
          hintmask 01101100
          -150 872 -93 callsubr
        </CharString>
        <CharString name="Atilde">
          156 1 -21 1625 415 13 callgsubr
          -1018 842 hintmask 10100000
          -105 callsubr
          hintmask 01010000
          -463 971 -84 callgsubr
        </CharString>
        <CharString name="B">
          200 -23 245 hstem
          898 391 vstem
          -75 callsubr
          endchar
        </CharString>
        <CharString name="C">
          -105 1 -21 hstem
          83 432 429 13 vstem
          -89 callgsubr
          endchar
        </CharString>
        <CharString name="CR">
          -787 endchar
        </CharString>
        <CharString name="Cacute">
          -105 -43 callsubr
          83 432 -202 568 63 13 hintmask 10101000
          -89 callgsubr
          hintmask 01010000
          144 1534 -94 callgsubr
          endchar
        </CharString>
        <CharString name="Ccaron">
          -105 1 -21 hstemhm
          83 432 429 13 vstemhm
          -89 callgsubr
          183 1519 -88 callgsubr
        </CharString>
        <CharString name="Ccedilla">
          -105 -408 239 -239 1957 hstemhm
          83 432 429 13 -29 callsubr
          233 95 rmoveto
          54 -42 89 -61 70 -10 rrcurveto
          hintmask 10110000
          68 -151 rlineto
          -16 callgsubr
          -71 callsubr
          -116 181 rcurveline
          149 70 116 116 49 83 -75 167 rcurveline
          -196 -73 -152 -67 -80 -12 23 196 35 460 -18 194 24 22 rcurveline
          100 -89 90 -55 91 -38 55 27 128 190 -54 254 -316 -22 rcurveline
          -62 32 -136 46 -61 12 -119 -44 -142 -125 -25 -94 rrcurveto
          -15 0 -66 6 -34 vhcurveto
          22 -116 17 -225 14 -217 11 -161 8 -157 5 -103 rrcurveto
          hintmask 01010000
          5 -33 16 -28 46 -36 rrcurveto
          endchar
        </CharString>
        <CharString name="Ccircumflex">
          -105 1 -17 callsubr
          83 432 -386 710 105 13 hintmask 10101000
          -89 callgsubr
          hintmask 01010000
          37 1514 -100 callsubr
        </CharString>
        <CharString name="Cdotaccent">
          -105 1 -13 callgsubr
          83 432 -176 446 159 13 hintmask 10101000
          -89 callgsubr
          hintmask 01010000
          323 1471 -103 callsubr
        </CharString>
        <CharString name="D">
          218 0 -21 22 -21 hstemhm
          855 399 -26 callsubr
          -51 callgsubr
          hintmask 10100000
          -92 callsubr
          hintmask 01100000
          -81 callsubr
          endchar
        </CharString>
        <CharString name="DC1">
          endchar
        </CharString>
        <CharString name="DC2">
          endchar
        </CharString>
        <CharString name="DC3">
          endchar
        </CharString>
        <CharString name="DC4">
          endchar
        </CharString>
        <CharString name="DEL">
          endchar
        </CharString>
        <CharString name="DLE">
          endchar
        </CharString>
        <CharString name="Dcaron">
          218 0 -21 22 -21 hstemhm
          855 399 -26 callsubr
          -51 callgsubr
          hintmask 10100000
          -92 callsubr
          hintmask 01100000
          -31 callgsubr
          -40 1220 -88 callgsubr
        </CharString>
        <CharString name="Dcroat">
          -77 callgsubr
        </CharString>
        <CharString name="Delta">
          -51 callsubr
        </CharString>
        <CharString name="E">
          -70 callsubr
          endchar
        </CharString>
        <CharString name="Eacute">
          -6 -20 324 -303 -44 callsubr
          -5 1049 -762 568 -102 callsubr
          173 1561 -94 callgsubr
          endchar
        </CharString>
        <CharString name="Ebreve">
          -4 callsubr
          1639 262 hstemhm
          -5 1049 -893 752 -102 callsubr
          351 1551 -83 callsubr
        </CharString>
        <CharString name="Ecaron">
          -70 callsubr
          hintmask 00000000
          212 1546 -88 callgsubr
        </CharString>
        <CharString name="Ecircumflex">
          -6 -20 324 -303 -17 callsubr
          -5 1049 -864 710 -102 callsubr
          148 1541 -100 callsubr
        </CharString>
        <CharString name="Edieresis">
          -4 callsubr
          1606 434 hstemhm
          -5 1049 -948 888 -102 callsubr
          608 1518 -104 callgsubr
        </CharString>
        <CharString name="Edotaccent">
          -6 -20 324 -303 -13 callgsubr
          -5 1049 -736 446 -102 callsubr
          352 1498 -103 callsubr
        </CharString>
        <CharString name="Egrave">
          -6 -20 324 -303 -44 callsubr
          -5 1049 -872 568 -102 callsubr
          503 1561 -79 callsubr
        </CharString>
        <CharString name="Emacron">
          -4 callsubr
          1677 264 hstemhm
          -5 1049 -160 8 -102 callsubr
          14 1589 -85 callsubr
        </CharString>
        <CharString name="Eng">
          255 -436 304 -283 -21 437 -21 hstemhm
          205 353 -53 787 hintmask 00000000
          hintmask 01101000
          67 142 rmoveto
          -99 47 113 -63 119 hhcurveto
          hintmask 10110000
          153 59 98 125 15 -1 15 -1 15 hvcurveto
          -27 259 -148 562 -30 99 5 2 rcurveline
          437 -925 113 -250 15 -127 rlineto
          hintmask 10101000
          -93 -198 26 22 -98 hvcurveto
          -15 -50 -12 -47 -58 vvcurveto
          -12 1 -12 1 -13 vhcurveto
          44 -58 202 -101 -52 callgsubr
          -27 120 rcurveline
          -52 288 80 1138 rlineto
          28 -41 -72 15 -53 hhcurveto
          -106 -113 -46 -53 -25 hvcurveto
          -150 107 -737 41 -238 vhcurveto
          -4 -4 -384 1084 -149 106 -211 46 -95 12 rlinecurve
          -135 -72 -24 -131 -120 vvcurveto
          hintmask 01110000
          50 -32 66 -15 57 -4 8 -879 rcurveline
          -111 9 rlineto
          endchar
        </CharString>
        <CharString name="Eogonek">
          -6 -417 -21 455 -21 hstem
          -5 1049 vstem
          173 68 rmoveto
          97 -26 169 -29 154 -17 rrcurveto
          -94 -58 -108 -80 -83 vvcurveto
          -68 callgsubr
          27 50 112 73 76 50 rlinecurve
          81 39 63 67 42 84 rrcurveto
          89 -17 136 -21 56 vhcurveto
          -180 15 -82 -190 -287 10 14 355 rlineto
          -60 107 138 -23 129 hhcurveto
          20 20 1 2 20 hvcurveto
          23 25 28 83 86 vvcurveto
          54 -11 54 -29 44 vhcurveto
          -150 -31 -93 -25 -210 -23 -39 320 rcurveline
          215 -59 136 -39 118 -11 rrcurveto
          66 50 39 113 106 vvcurveto
          92 -29 88 -66 38 vhcurveto
          -412 -94 -333 73 rlineto
          -83 -58 -80 -116 -89 vvcurveto
          243 -584 -158 -417 10 -71 33 -65 50 -60 rlinecurve
          endchar
        </CharString>
        <CharString name="Eth">
          -77 callgsubr
        </CharString>
        <CharString name="Euro">
          92 1 -21 513 170 -169 200 118 160 -159 191 hstemhm
          36 1104 -977 398 hintmask 00000000
          hintmask 10101100
          256 192 rmoveto
          3 -33 18 -28 46 -36 rrcurveto
          -46 59 102 -69 71 hhcurveto
          236 26 250 171 68 117 -65 149 rcurveline
          -172 -48 -222 -40 -170 -35 22 174 rcurveline
          346 1 38 74 15 69 -16 67 rlinecurve
          -358 -21 6 43 5 43 5 43 rlinecurve
          335 1 38 74 15 59 -16 67 rlinecurve
          hintmask 10101010
          -354 -19 9 104 4 92 -5 59 rlinecurve
          24 22 100 -89 225 -63 82 -20 rlinecurve
          55 27 126 112 -54 254 rrcurveto
          -323 hlineto
          -92 20 -192 24 -61 12 -119 -44 -152 -125 -25 -94 rrcurveto
          -15 0 -66 6 -34 vhcurveto
          hintmask 11010010
          9 -49 10 -68 10 -79 -121 -6 rcurveline
          -32 -55 -16 -22 9 -80 rrcurveto
          178 hlineto
          4 -47 5 -49 3 -49 -131 -7 rcurveline
          -32 -55 -16 -32 9 -80 rrcurveto
          181 hlineto
          hintmask 10101100
          7 -116 4 -108 6 -77 rrcurveto
          endchar
        </CharString>
        <CharString name="F">
          -41 -20 331 hstem
          21 1003 vstem
          -62 callgsubr
          endchar
        </CharString>
        <CharString name="G">
          -76 callsubr
          endchar
        </CharString>
        <CharString name="Gbreve">
          -27 callsubr
          1639 262 hstemhm
          83 432 -253 752 20 -103 callgsubr
          402 1524 -83 callsubr
        </CharString>
        <CharString name="Gcaron">
          -76 callsubr
          hintmask 00000000
          263 1519 -88 callgsubr
        </CharString>
        <CharString name="Gcircumflex">
          55 -20 302 -281 -17 callsubr
          83 432 -224 710 33 -103 callgsubr
          199 1514 -100 callsubr
        </CharString>
        <CharString name="Gcommaaccent">
          55 10 callgsubr
          67 302 -281 -21 hstemhm
          83 432 -95 452 162 13 hintmask 00000000
          hintmask 00100100
          233 95 rmoveto
          33 -26 46 -34 47 -24 rrcurveto
          -18 27 29 -13 31 hhcurveto
          128 129 243 124 54 hvcurveto
          24 -11 -14 -119 -16 -82 -6 -87 rlinecurve
          50 -50 87 -17 83 -1 rrcurveto
          56 63 22 21 30 hvcurveto
          -64 476 98 221 rlineto
          84 -69 -85 38 -123 hhcurveto
          -77 -68 -15 -12 -23 hvcurveto
          -37 7 -123 54 -158 vhcurveto
          hintmask 01010100
          -73 -62 -170 -155 -49 2 rrcurveto
          -3 hlineto
          1 38 23 196 35 460 -18 194 rlinecurve
          24 22 100 -89 180 -74 91 -19 rlinecurve
          55 27 128 190 -54 254 -343 -31 rcurveline
          -62 32 -199 58 -61 9 -119 -44 -142 -125 -25 -94 rrcurveto
          -15 6 -66 4 -34 vhcurveto
          14 -123 21 -218 14 -217 11 -161 8 -157 5 -103 rrcurveto
          hintmask 00100100
          5 -33 16 -28 46 -36 rrcurveto
          hintmask 10001000
          255 -186 -86 callsubr
        </CharString>
        <CharString name="Gdotaccent">
          55 -20 302 -281 -13 callgsubr
          83 432 -96 446 169 -103 callgsubr
          403 1471 -103 callsubr
        </CharString>
        <CharString name="Gtilde">
          -27 callsubr
          1625 415 hstemhm
          83 432 -302 842 -21 -103 callgsubr
          90 1531 -84 callgsubr
        </CharString>
        <CharString name="H">
          219 -20 337 hstemhm
          133 425 8 callsubr
          -67 callgsubr
          endchar
        </CharString>
        <CharString name="HT">
          endchar
        </CharString>
        <CharString name="Hbar">
          232 -20 337 673 235 -221 271 hstemhm
          7 508 -382 425 770 27 hintmask 00000000
          hintmask 11001100
          133 62 rmoveto
          -50 53 86 10 callsubr
          236 -34 163 rrcurveto
          1 vlineto
          86 -12 163 -9 99 -6 -19 -125 -21 -111 2 -117 rrcurveto
          -155 2 99 -93 141 hhcurveto
          131 103 118 79 32 hvcurveto
          -35 142 -136 -3 rlineto
          hintmask 10101100
          46 688 65 2 46 2 14 1 rlinecurve
          45 88 22 107 -48 76 -127 -10 rcurveline
          15 220 rlineto
          29 -47 -59 11 -63 hhcurveto
          -149 -129 -73 -57 -39 hvcurveto
          hintmask 11010100
          7 -50 8 -57 11 -59 -213 -17 rcurveline
          23 272 rlineto
          29 -48 -55 -45 callgsubr
          37 -233 -102 -18 -19 -65 9 -25 24 -65 rlinecurve
          hintmask 11001100
          33 -2 41 0 45 -1 22 -120 26 -118 32 -96 -49 -143 -38 -255 -10 -196 rrcurveto
          hintmask 11010100
          374 738 rmoveto
          16 190 94 1 95 2 91 2 rlinecurve
          11 -51 12 -51 12 -49 -86 -9 -151 -20 -94 -15 rrcurveto
          endchar
        </CharString>
        <CharString name="Hcircumflex">
          219 -20 337 1292 398 hstemhm
          133 425 -231 710 32 callsubr
          -67 callgsubr
          hintmask 01010000
          335 1547 -100 callsubr
        </CharString>
        <CharString name="I">
          -450 1 -21 hstemhm
          133 425 8 callsubr
          -95 callgsubr
          endchar
        </CharString>
        <CharString name="IJ">
          22 callsubr
          hstemhm
          133 425 115 20 callgsubr
          -26 callsubr
          -95 callgsubr
          hintmask 10011000
          627 -65 -98 callgsubr
          endchar
        </CharString>
        <CharString name="IJ_acutecomb">
          22 callsubr
          1644 396 hstemhm
          87 568 -522 425 115 305 -63 568 -375 530 hintmask 00000000
          hintmask 01001000
          -95 callgsubr
          hintmask 00100010
          846 1567 -94 callgsubr
          hintmask 10000101
          -219 -1632 -98 callgsubr
          hintmask 00110000
          -609 1632 -94 callgsubr
          endchar
        </CharString>
        <CharString name="Iacute">
          -450 -43 callsubr
          87 568 -522 33 callgsubr
          hintmask 10010000
          -95 callgsubr
          hintmask 01100000
          18 1567 -94 callgsubr
          endchar
        </CharString>
        <CharString name="Ibreve">
          -450 1 -21 1639 262 hstemhm
          -44 752 -575 33 callgsubr
          hintmask 10010000
          -95 callgsubr
          hintmask 01100000
          196 1557 -83 callsubr
        </CharString>
        <CharString name="Icircumflex">
          -450 1 -17 callsubr
          -15 710 -562 33 callgsubr
          hintmask 10010000
          -95 callgsubr
          hintmask 01100000
          -7 1547 -100 callsubr
        </CharString>
        <CharString name="Idieresis">
          -450 1 -21 1606 434 hstemhm
          -99 888 -656 33 callgsubr
          hintmask 10010000
          -95 callgsubr
          hintmask 01100000
          453 1524 -104 callgsubr
        </CharString>
        <CharString name="Idotaccent">
          -450 1 -13 callgsubr
          113 446 -426 33 callgsubr
          hintmask 10010000
          -95 callgsubr
          hintmask 01100000
          197 1504 -103 callsubr
        </CharString>
        <CharString name="Igrave">
          -450 -43 callsubr
          -23 568 -412 33 callgsubr
          hintmask 10010000
          -95 callgsubr
          hintmask 01100000
          348 1567 -79 callsubr
        </CharString>
        <CharString name="Imacron">
          -450 1 -21 1677 264 hstemhm
          133 425 131 8 32 callsubr
          -95 callgsubr
          hintmask 01010000
          -141 1595 -85 callsubr
        </CharString>
        <CharString name="Iogonek">
          -450 -417 -21 452 -21 hstemhm
          76 490 -433 33 callgsubr
          hintmask 11010000
          133 62 rmoveto
          33 -32 47 -24 60 -13 rrcurveto
          hintmask 11100000
          -93 -58 -104 -78 -82 vvcurveto
          -68 callgsubr
          rlineto
          hintmask 11010000
          39 73 132 78 59 38 -11 189 -25 212 -34 163 rrcurveto
          hintmask 11100000
          78 906 rlineto
          -40 callgsubr
          hintmask 11010000
          -76 callgsubr
          -49 -143 -38 -255 -10 -196 rrcurveto
          endchar
        </CharString>
        <CharString name="Itilde">
          -450 1 -21 1625 415 hstemhm
          -93 842 -616 33 callgsubr
          hintmask 10010000
          -95 callgsubr
          hintmask 01100000
          -116 1564 -84 callgsubr
        </CharString>
        <CharString name="J">
          -117 13 callsubr
          hstem
          7 20 callgsubr
          vstem
          94 -3 -98 callgsubr
          endchar
        </CharString>
        <CharString name="Jcircumflex">
          -117 13 callsubr
          60 398 hstemhm
          7 305 -164 710 -416 530 hintmask 10101000
          94 -3 -98 callgsubr
          hintmask 01010000
          195 1612 -100 callsubr
        </CharString>
        <CharString name="K">
          208 1 -21 22 -21 hstemhm
          82 1242 32 callsubr
          -28 callgsubr
          hintmask 01100000
          -61 callsubr
          hintmask 10100000
          -49 -143 -48 -255 -10 -196 rrcurveto
          endchar
        </CharString>
        <CharString name="Kcommaaccent">
          208 -517 450 68 -21 22 -21 hstemhm
          82 1242 -824 452 -29 callsubr
          -28 callgsubr
          hintmask 00110000
          -61 callsubr
          hintmask 01010000
          -49 -143 -48 -255 -10 -196 rrcurveto
          hintmask 10001000
          445 -133 -86 callsubr
        </CharString>
        <CharString name="L">
          26 1 -21 hstem
          55 1056 vstem
          -91 callsubr
          endchar
        </CharString>
        <CharString name="LF">
          endchar
        </CharString>
        <CharString name="Lacute">
          26 -43 callsubr
          55 1056 -929 568 hintmask 10100000
          -91 callsubr
          hintmask 01010000
          -12 1649 -94 callgsubr
          endchar
        </CharString>
        <CharString name="Lcaron">
          26 1 33 callsubr
          393 hstemhm
          41 463 -449 212 hintmask 00000000
          hintmask 11010000
          266 1614 rmoveto
          52 -11 155 10 49 9 259 266 rcurveline
          -23 47 -68 63 -50 22 -92 -66 -44 -49 -69 -101 -168 198 rcurveline
          hintmask 11100000
          -91 7 -131 -132 -4 -73 rrcurveto
          hintmask 11010000
          217 -1824 rmoveto
          hintmask 11100000
          116 7 78 74 52 89 rrcurveto
          -78 98 137 -92 123 hhcurveto
          202 47 201 188 107 -15 103 -17 46 hvcurveto
          -184 24 -95 -289 -253 48 -13 1 105 1080 rlineto
          29 -48 -50 -45 callgsubr
          34 -201 0 -300 79 -461 rrcurveto
          -32 hlineto
          hintmask 11010000
          -60 callsubr
          -59 callgsubr
          rlinecurve
          endchar
        </CharString>
        <CharString name="Lcommaaccent">
          26 2 callgsubr
          hstemhm
          55 1056 -736 452 hintmask 01100000
          -91 callsubr
          hintmask 10010000
          185 -71 -86 callsubr
        </CharString>
        <CharString name="Ldot">
          26 1 -21 788 434 hstemhm
          55 1056 -348 446 hintmask 10100000
          -91 callsubr
          hintmask 01010000
          722 788 -103 callsubr
        </CharString>
        <CharString name="Lslash">
          26 1 -21 hstem
          851 47 vstem
          258 -20 rmoveto
          116 7 78 74 52 89 rrcurveto
          -78 98 137 -92 123 hhcurveto
          202 47 201 188 107 -15 103 -17 46 hvcurveto
          -184 24 -95 -289 -253 48 -13 1 31 317 326 140 15 92 -7 125 -48 29 rlinecurve
          -262 -132 50 509 rlineto
          29 -48 -50 -45 callgsubr
          24 -144 7 -194 31 -267 -161 -81 rcurveline
          6 -62 25 -85 43 -24 113 48 rcurveline
          7 -49 9 -51 9 -53 -52 callsubr
          -59 callgsubr
          rlinecurve
          endchar
        </CharString>
        <CharString name="M">
          743 1 -21 22 -21 187 132 hstemhm
          192 352 760 398 hintmask 00000000
          hintmask 01111000
          37 142 rmoveto
          hintmask 10111000
          -28 callsubr
          hintmask 01111000
          -38 callgsubr
          hintmask 10111000
          -56 callsubr
          endchar
        </CharString>
        <CharString name="N">
          255 0 -9 callgsubr
          -26 callsubr
          -86 callgsubr
          hintmask 10100000
          -97 callgsubr
          endchar
        </CharString>
        <CharString name="NULL">
          endchar
        </CharString>
        <CharString name="Nacute">
          255 0 -21 22 -44 callsubr
          205 353 -78 568 -29 callsubr
          -86 callgsubr
          hintmask 10010000
          -97 callgsubr
          hintmask 00101000
          446 1324 -94 callgsubr
          endchar
        </CharString>
        <CharString name="Ncaron">
          255 0 -9 callgsubr
          -26 callsubr
          -86 callgsubr
          hintmask 10100000
          -97 callgsubr
          hintmask 00000000
          485 1309 -88 callgsubr
        </CharString>
        <CharString name="Ncommaaccent">
          255 10 callgsubr
          87 -9 callgsubr
          -99 452 hintmask 00000000
          hintmask 00110000
          -86 callgsubr
          hintmask 01010000
          -97 callgsubr
          hintmask 10001000
          429 -396 -86 callsubr
        </CharString>
        <CharString name="Ntilde">
          255 0 -21 22 -21 1625 415 hstemhm
          205 353 -212 842 -29 callsubr
          -86 callgsubr
          hintmask 10010000
          -97 callgsubr
          hintmask 00101000
          358 1321 -84 callgsubr
        </CharString>
        <CharString name="O">
          175 0 -21 hstem
          -3 callgsubr
          vstem
          -106 callgsubr
          endchar
        </CharString>
        <CharString name="OE">
          681 -19 329 -310 -21 23 -21 hstemhm
          96 390 317 383 hintmask 00000000
          hintmask 00111000
          173 147 rmoveto
          hintmask 01011000
          89 -80 292 -79 149 -15 callgsubr
          93 47 rrcurveto
          hintmask 00111000
          23 12 rlineto
          -58 170 174 -31 179 hhcurveto
          164 87 104 154 89 -17 91 -21 56 hvcurveto
          -180 15 rlineto
          hintmask 10011000
          -82 -190 -308 20 14 91 14 120 11 121 rlinecurve
          -52 104 146 -19 121 hhcurveto
          20 20 1 2 20 hvcurveto
          23 25 28 83 86 vvcurveto
          54 -11 54 -29 44 vhcurveto
          -139 -29 -108 -23 -179 -22 rrcurveto
          5 79 3 71 54 vvcurveto
          39 -1 32 -1 29 vhcurveto
          156 -44 132 -29 107 -12 rrcurveto
          66 50 41 100 106 vvcurveto
          92 -29 88 -66 38 vhcurveto
          -369 -94 -188 -36 rlineto
          73 -141 -192 57 -70 hhcurveto
          -69 -355 -114 -98 -75 hvcurveto
          -37 -49 1 -134 -73 vvcurveto
          hintmask 00111000
          -202 40 -493 37 -239 vhcurveto
          328 184 rmoveto
          14 callgsubr
          168 174 vvcurveto
          149 4 150 8 89 vhcurveto
          71 35 214 -91 rlineto
          12 -127 8 -209 -196 -44 callgsubr
          -62 10 -71 15 -102 46 -55 32 rlinecurve
          endchar
        </CharString>
        <CharString name="Oacute">
          27 callsubr
          1645 396 hstemhm
          102 384 -81 568 -176 392 hintmask 10101000
          -106 callgsubr
          hintmask 01010000
          -31 1298 -94 callgsubr
          endchar
        </CharString>
        <CharString name="Obreve">
          27 callsubr
          1640 262 hstemhm
          102 384 -212 752 -229 392 hintmask 10101000
          -106 callgsubr
          hintmask 01010000
          147 1288 -83 callsubr
        </CharString>
        <CharString name="Ocircumflex">
          27 callsubr
          1630 398 hstemhm
          102 384 -183 710 -216 392 hintmask 10101000
          -106 callgsubr
          hintmask 01010000
          -56 1278 -100 callsubr
        </CharString>
        <CharString name="Odieresis">
          27 callsubr
          1607 434 hstemhm
          102 384 -267 888 -310 392 hintmask 10101000
          -106 callgsubr
          hintmask 01010000
          404 1255 -104 callgsubr
        </CharString>
        <CharString name="Ograve">
          27 callsubr
          1645 396 hstemhm
          102 384 -191 568 -66 392 hintmask 10101000
          -106 callgsubr
          hintmask 01010000
          299 1298 -79 callsubr
        </CharString>
        <CharString name="Ohungarumlaut">
          27 callsubr
          1609 432 hstemhm
          102 384 -165 888 -412 392 hintmask 10101000
          -106 callgsubr
          hintmask 01010000
          373 1257 -63 callgsubr
        </CharString>
        <CharString name="Omacron">
          27 callsubr
          1678 264 hstemhm
          -3 callgsubr
          -182 8 hintmask 10110000
          -106 callgsubr
          hintmask 01001000
          -190 1326 -85 callsubr
        </CharString>
        <CharString name="Omega">
          -79 callgsubr
        </CharString>
        <CharString name="Oslash">
          27 callsubr
          hstem
          -3 callgsubr
          vstem
          185 147 rmoveto
          22 -20 33 -20 40 -18 -102 -279 rcurveline
          49 -81 77 18 79 -4 115 271 rcurveline
          74 -19 72 -12 55 -4 -32 callsubr
          92 47 62 32 95 42 15 -55 callsubr
          123 -7 57 -9 81 vhcurveto
          -24 29 -41 29 -49 27 128 249 rcurveline
          -50 102 -58 32 -99 28 -147 -315 rcurveline
          29 -87 -79 18 -39 hhcurveto
          -69 -346 -114 -98 -75 hvcurveto
          -37 -49 1 -134 -73 vvcurveto
          -202 46 -493 37 -239 vhcurveto
          315 184 rmoveto
          -10 113 -4 168 174 vvcurveto
          149 4 150 7 89 vhcurveto
          69 35 211 -91 rlineto
          12 -127 8 -209 -196 vvcurveto
          -120 -3 -112 -8 -74 vhcurveto
          -61 -42 -70 15 -100 46 -55 32 rlinecurve
          endchar
        </CharString>
        <CharString name="Otilde">
          27 callsubr
          1626 415 hstemhm
          102 384 -261 842 -270 392 hintmask 10101000
          -106 callgsubr
          hintmask 01010000
          -165 1295 -84 callgsubr
        </CharString>
        <CharString name="P">
          148 0 -21 412 214 hstem
          833 390 vstem
          -68 callsubr
          endchar
        </CharString>
        <CharString name="Q">
          175 -446 1995 hstemhm
          -3 callgsubr
          -12 12 hintmask 00000000
          hintmask 10010000
          221 -77 rmoveto
          -6 -135 50 -144 88 -54 72 5 50 38 38 49 179 -68 247 -48 101 -12 14 4 9 8 5 10 82 57 67 191 -40 100 -108 -14 -270 -21 -172 -12 -4 29 rcurveline
          3 12 270 105 112 76 rrcurveto
          hintmask 11100000
          44 25 39 30 10 36 rrcurveto
          38 135 50 516 219 32 callgsubr
          -95 -352 113 -98 hhcurveto
          -69 -346 -114 -98 -75 hvcurveto
          -37 -49 1 -134 -73 vvcurveto
          -202 46 -493 37 -239 vhcurveto
          65 -59 172 -39 145 -19 -146 -99 rcurveline
          -55 49 rlineto
          hintmask 10010000
          -53 -8 -44 -23 -48 -26 rrcurveto
          hintmask 11100000
          279 408 rmoveto
          -10 113 -4 168 174 vvcurveto
          149 4 150 7 89 vhcurveto
          69 35 211 -91 rlineto
          12 -127 8 -209 -196 vvcurveto
          -120 -3 -112 -8 -74 vhcurveto
          -61 -42 -70 15 -100 46 -55 32 rlinecurve
          endchar
        </CharString>
        <CharString name="R">
          -75 callgsubr
          endchar
        </CharString>
        <CharString name="RS">
          endchar
        </CharString>
        <CharString name="Racute">
          248 -43 callsubr
          87 1268 -931 568 -160 387 32 callsubr
          -78 callgsubr
          hintmask 10001000
          -73 callsubr
          hintmask 10100000
          -23 callgsubr
          hintmask 10001000
          -42 callsubr
          hintmask 01010000
          -317 936 -94 callgsubr
          endchar
        </CharString>
        <CharString name="Rcaron">
          -75 callgsubr
          hintmask 00000000
          -326 921 -88 callgsubr
        </CharString>
        <CharString name="Rcommaaccent">
          248 2 callgsubr
          hstemhm
          87 1268 -874 452 -101 387 -26 callsubr
          -78 callgsubr
          hintmask 01001000
          -73 callsubr
          hintmask 01100000
          -23 callgsubr
          hintmask 01001000
          -42 callsubr
          hintmask 10010000
          -256 -784 -86 callsubr
        </CharString>
        <CharString name="S">
          -66 1 -21 hstem
          986 16 vstem
          -96 callgsubr
          endchar
        </CharString>
        <CharString name="Sacute">
          -66 -43 callsubr
          301 568 117 16 hintmask 10010000
          -96 callgsubr
          hintmask 01100000
          196 1592 -94 callgsubr
          endchar
        </CharString>
        <CharString name="Scaron">
          -74 1 -21 hstemhm
          986 16 vstemhm
          -96 callgsubr
          277 1577 -88 callgsubr
        </CharString>
        <CharString name="Scircumflex">
          -66 1 -17 callsubr
          174 710 102 16 hintmask 10010000
          -96 callgsubr
          hintmask 01100000
          146 1572 -100 callsubr
        </CharString>
        <CharString name="T">
          -13 0 -21 hstemhm
          412 341 8 callsubr
          -85 callgsubr
          endchar
        </CharString>
        <CharString name="Tbar">
          -13 0 -21 590 309 -298 262 hstemhm
          249 515 238 7 hintmask 00000000
          hintmask 11011000
          427 227 rmoveto
          -155 14 186 -93 141 hhcurveto
          131 151 210 94 21 hvcurveto
          -78 132 -220 -101 -18 255 84 -2 60 1 35 3 rlinecurve
          8 callgsubr
          -218 -16 rcurveline
          29 272 rlineto
          -33 75 116 -25 57 hhcurveto
          132 90 9 306 -132 69 -348 -111 rcurveline
          -439 111 -95 -9 -118 -60 -71 -87 rlinecurve
          -59 -105 52 -218 34 -103 79 -34 75 6 79 27 41 281 rcurveline
          130 -33 rlineto
          hintmask 10111000
          34 -366 -156 -11 25 callsubr
          rlinecurve
          234 -9 rlineto
          hintmask 11011000
          -21 -123 -48 -110 10 -116 rrcurveto
          endchar
        </CharString>
        <CharString name="Tcaron">
          -13 0 -21 hstemhm
          412 341 8 callsubr
          -85 callgsubr
          hintmask 00000000
          84 1387 -88 callgsubr
        </CharString>
        <CharString name="Thorn">
          148 1 -21 260 229 hstem
          833 390 vstem
          153 62 rmoveto
          -50 53 86 -32 119 hhcurveto
          71 53 11 28 43 hvcurveto
          -7 109 -24 133 -27 124 116 -59 158 -87 61 1 80 1 138 127 43 51 84 232 36 382 -17 220 -120 102 -162 43 -76 -1 -58 -1 -51 -10 -21 -6 -231 -387 rcurveline
          -31 9 61 478 rlineto
          36 -57 -56 13 -57 hhcurveto
          -106 -107 -56 -80 -59 hvcurveto
          -9 -37 76 -686 56 -162 -30 -137 -21 -170 -7 -139 rrcurveto
          351 652 rmoveto
          70 99 136 119 70 68 47 -8 rcurveline
          17 -163 -21 -184 -28 -158 -16 -93 -222 291 -53 29 rrcurveto
          endchar
        </CharString>
        <CharString name="U">
          21 callgsubr
          hstem
          133 390 277 399 vstem
          -107 callgsubr
          endchar
        </CharString>
        <CharString name="US">
          endchar
        </CharString>
        <CharString name="Uacute">
          21 callgsubr
          1645 396 -2 callgsubr
          -128 568 -163 399 hintmask 10101000
          -107 callgsubr
          hintmask 01010000
          249 1482 -94 callgsubr
          endchar
        </CharString>
        <CharString name="Ubreve">
          21 callgsubr
          1640 262 -2 callgsubr
          -259 752 -216 399 hintmask 10101000
          -107 callgsubr
          hintmask 01010000
          427 1472 -83 callsubr
        </CharString>
        <CharString name="Ucircumflex">
          21 callgsubr
          1630 398 -2 callgsubr
          -230 710 -203 399 hintmask 10101000
          -107 callgsubr
          hintmask 01010000
          224 1462 -100 callsubr
        </CharString>
        <CharString name="Udieresis">
          21 callgsubr
          1607 434 -2 callgsubr
          -314 888 -297 399 hintmask 10101000
          -107 callgsubr
          hintmask 01010000
          684 1439 -104 callgsubr
        </CharString>
        <CharString name="Ugrave">
          21 callgsubr
          1645 396 -2 callgsubr
          -238 568 -53 399 hintmask 10101000
          -107 callgsubr
          hintmask 01010000
          579 1482 -79 callsubr
        </CharString>
        <CharString name="Uhungarumlaut">
          21 callgsubr
          1609 432 -2 callgsubr
          -212 888 -399 399 hintmask 10101000
          -107 callgsubr
          hintmask 01010000
          653 1441 -63 callgsubr
        </CharString>
        <CharString name="Umacron">
          21 callgsubr
          1678 264 -2 callgsubr
          277 399 -202 8 hintmask 10110000
          -107 callgsubr
          hintmask 01001000
          90 1510 -85 callsubr
        </CharString>
        <CharString name="Uogonek">
          156 -417 -21 449 -21 hstem
          133 390 277 399 vstem
          210 147 rmoveto
          74 -67 186 -65 146 -25 rrcurveto
          -76 -58 -75 -75 -82 vvcurveto
          -68 callgsubr
          23 45 40 69 38 63 rlinecurve
          34 13 37 17 42 21 62 32 102 42 16 -55 callsubr
          88 -5 55 -7 54 vhcurveto
          1 hlineto
          -2 16 -2 10 -2 18 rlineto
          -1 7 -1 6 7 vvcurveto
          -1 hlineto
          -11 88 -121 68 -149 62 -68 10 rlinecurve
          -135 -53 -69 -129 -11 -120 164 -46 rcurveline
          12 -128 9 -292 -195 -44 callgsubr
          -111 14 -84 37 -55 32 rrcurveto
          14 callgsubr
          188 174 vvcurveto
          1 388 25 171 rlineto
          -1 -1 -1 0 -1 hhcurveto
          3 2 -139 106 -134 85 -94 12 rlinecurve
          -140 -71 -38 -132 -9 -120 139 -48 rcurveline
          -1 -36 0 -35 -26 vvcurveto
          -202 40 -493 37 -239 vhcurveto
          endchar
        </CharString>
        <CharString name="Uring">
          21 callgsubr
          1548 2 callsubr
          -2 callgsubr
          -185 1 callsubr
          -130 399 hintmask 10010010
          -107 callgsubr
          hintmask 01101100
          407 1380 -93 callsubr
        </CharString>
        <CharString name="Utilde">
          21 callgsubr
          1626 415 -2 callgsubr
          -308 842 -257 399 hintmask 10101000
          -107 callgsubr
          hintmask 01010000
          115 1479 -84 callgsubr
        </CharString>
        <CharString name="V">
          95 -22 1573 hstem
          -51 1247 vstem
          340 46 rmoveto
          -43 53 121 -25 117 hhcurveto
          103 100 20 43 54 hvcurveto
          -17 97 -21 67 -23 54 369 868 rcurveline
          -11 152 -70 182 -112 90 -144 -18 -176 -76 -60 -155 54 -110 68 -51 69 -59 -169 -739 rcurveline
          -26 329 -187 743 -29 57 rrcurveto
          40 -53 -63 17 -62 hhcurveto
          -132 -128 -85 -157 -16 hvcurveto
          175 -222 267 -783 -23 -62 -21 -75 -7 -99 rlinecurve
          endchar
        </CharString>
        <CharString name="W">
          723 3 370 hstem
          -69 1864 vstem
          -101 callsubr
          endchar
        </CharString>
        <CharString name="Wacute">
          5 callsubr
          -1133 568 hintmask 10100000
          -101 callsubr
          hintmask 01010000
          473 1549 -94 callgsubr
          endchar
        </CharString>
        <CharString name="Wcircumflex">
          723 3 370 1236 398 hstemhm
          -69 1864 -1235 710 hintmask 10100000
          -101 callsubr
          hintmask 01010000
          448 1529 -100 callsubr
        </CharString>
        <CharString name="Wdieresis">
          723 3 370 1213 434 hstemhm
          -69 1864 -1319 888 hintmask 10100000
          -101 callsubr
          hintmask 01010000
          908 1506 -104 callgsubr
        </CharString>
        <CharString name="Wgrave">
          5 callsubr
          -1243 568 hintmask 10100000
          -101 callsubr
          hintmask 01010000
          803 1549 -79 callsubr
        </CharString>
        <CharString name="X">
          229 1 -21 22 -21 hstemhm
          26 1276 -26 callsubr
          293 -19 rmoveto
          108 76 140 150 54 hvcurveto
          39 108 27 114 18 69 6 -2 rcurveline
          11 -120 39 -204 84 -152 rrcurveto
          hintmask 10100000
          -71 39 84 -33 81 hhcurveto
          106 79 36 73 40 hvcurveto
          51 92 35 104 20 120 -135 100 rcurveline
          -142 -126 -235 407 159 340 113 -186 109 24 84 49 59 84 rlinecurve
          -3 161 -101 172 -110 99 -118 -5 -119 -62 -47 -54 -24 -27 -46 -199 -32 -246 -7 100 -18 157 -78 169 rrcurveto
          112 -52 -76 53 -115 hhcurveto
          -43 -49 -7 -15 -55 hvcurveto
          -101 -55 -65 -182 -17 -111 137 -134 rcurveline
          155 97 187 -374 -124 -313 -141 142 -89 -32 -65 -44 -54 -78 rlinecurve
          hintmask 01100000
          -167 24 119 -273 118 hhcurveto
          endchar
        </CharString>
        <CharString name="Y">
          52 1 -21 hstem
          0 1165 vstem
          -96 callsubr
          endchar
        </CharString>
        <CharString name="Yacute">
          52 -43 callsubr
          0 1165 -806 568 hintmask 10100000
          -96 callsubr
          hintmask 01010000
          49 1401 -94 callgsubr
          endchar
        </CharString>
        <CharString name="Ycircumflex">
          52 1 -17 callsubr
          0 1165 -908 710 hintmask 10100000
          -96 callsubr
          hintmask 01010000
          24 1381 -100 callsubr
        </CharString>
        <CharString name="Ydieresis">
          52 1 -21 1606 434 hstemhm
          0 1165 -992 888 hintmask 10100000
          -96 callsubr
          hintmask 01010000
          484 1358 -104 callgsubr
        </CharString>
        <CharString name="Ygrave">
          52 -43 callsubr
          0 1165 -916 568 hintmask 10100000
          -96 callsubr
          hintmask 01010000
          379 1401 -79 callsubr
        </CharString>
        <CharString name="Z">
          92 1 -21 hstem
          29 1145 vstem
          206 -20 -99 callgsubr
          endchar
        </CharString>
        <CharString name="Zacute">
          92 -43 callsubr
          29 1145 -767 568 hintmask 10100000
          206 -20 -99 callgsubr
          hintmask 01010000
          265 1649 -94 callgsubr
          endchar
        </CharString>
        <CharString name="Zcaron">
          92 1 -21 hstemhm
          29 1145 vstemhm
          206 -20 -99 callgsubr
          304 1634 -88 callgsubr
        </CharString>
        <CharString name="Zdotaccent">
          92 1 -13 callgsubr
          29 1145 -741 446 hintmask 10100000
          206 -20 -99 callgsubr
          hintmask 01010000
          444 1586 -103 callsubr
        </CharString>
        <CharString name="a">
          -88 callsubr
          endchar
        </CharString>
        <CharString name="aacute">
          -50 callgsubr
          64 485 -14 callgsubr
          -761 523 -105 callgsubr
          78 909 -92 callgsubr
        </CharString>
        <CharString name="abreve">
          -88 callsubr
          hintmask 00000000
          142 942 -84 callsubr
        </CharString>
        <CharString name="acircumflex">
          -50 callgsubr
          63 461 -14 callgsubr
          -967 730 -105 callgsubr
          -86 908 -93 callgsubr
        </CharString>
        <CharString name="acute">
          16 callsubr
          174 1247 -92 callgsubr
        </CharString>
        <CharString name="acute.cap">
          -424 1624 396 hstem
          55 568 vstem
          119 1629 -94 callgsubr
          endchar
        </CharString>
        <CharString name="adieresis">
          -50 callgsubr
          64 434 -14 callgsubr
          -1016 888 -105 callgsubr
          409 909 -104 callgsubr
        </CharString>
        <CharString name="ae">
          16 callgsubr
          hstemhm
          45 1448 -790 330 hintmask 00000000
          hintmask 01110000
          3 callgsubr
          hintmask 01101000
          -33 callgsubr
          hintmask 10110000
          -54 callgsubr
          hintmask 01110000
          -54 -6 -91 -28 vvcurveto
          hintmask 01101000
          -45 callsubr
          endchar
        </CharString>
        <CharString name="aeacute">
          16 callgsubr
          64 485 hstemhm
          45 1448 -933 523 -380 330 hintmask 00000000
          hintmask 01101000
          3 callgsubr
          hintmask 01100010
          -33 callgsubr
          hintmask 10101000
          -54 callgsubr
          hintmask 01101000
          -54 -6 -91 -28 vvcurveto
          hintmask 01100010
          -45 callsubr
          hintmask 00010100
          209 909 -92 callgsubr
        </CharString>
        <CharString name="agrave">
          -50 callgsubr
          64 485 -14 callgsubr
          -947 523 -105 callgsubr
          217 909 -80 callgsubr
        </CharString>
        <CharString name="amacron">
          -50 callgsubr
          154 271 -14 callgsubr
          -238 8 -105 callgsubr
          -195 999 -85 callsubr
        </CharString>
        <CharString name="ampersand">
          328 1 -21 1207 -20 hstem
          115 346 232 33 430 13 vstem
          148 147 rmoveto
          96 -74 302 -83 181 -10 156 20 176 100 79 101 rrcurveto
          131 -7 130 -21 131 vhcurveto
          13 12 62 -42 62 -34 64 -26 rlinecurve
          35 18 64 108 137 vvcurveto
          57 -12 61 -35 61 vhcurveto
          -263 -70 -188 70 -80 -39 -50 -122 -15 -82 rlinecurve
          18 -150 40 -150 39 -152 -114 -10 -204 49 -80 42 -6 51 0 83 5 67 32 34 rcurveline
          41 -23 51 -22 29 -4 81 36 71 200 -77 123 -34 -3 -44 -8 -33 -14 -81 336 rcurveline
          62 48 106 -111 271 -110 87 -4 rlinecurve
          55 27 128 190 -54 254 -343 -31 rcurveline
          -62 32 -242 58 -61 9 -125 -27 -202 -181 -20 -109 78 -205 48 -108 145 -194 -82 -36 -88 -68 -52 -60 -47 -86 2 -192 43 -136 rrcurveto
          endchar
        </CharString>
        <CharString name="aogonek">
          78 -41 callsubr
          34 -21 1188 -20 42 -20 hstemhm
          45 1149 hintmask 00000000
          hintmask 10101100
          116 146 rmoveto
          hintmask 11001100
          -53 82 -28 49 -35 vhcurveto
          39 -28 35 -24 36 2 18 1 18 7 20 16 96 82 119 269 55 141 15 -7 rcurveline
          -14 -90 -10 -78 -10 -101 rrcurveto
          hintmask 10110100
          -9 -89 34 -25 25 -27 36 -39 45 -31 45 -16 rrcurveto
          -77 -59 -78 -76 -83 vvcurveto
          -68 callgsubr
          37 69 75 129 47 75 rlinecurve
          37 49 33 61 28 65 -85 121 rcurveline
          -173 -92 99 234 81 455 -8 64 rlinecurve
          84 -71 -84 37 -29 callgsubr
          -77 -70 -14 -14 -21 hvcurveto
          -32 6 -96 2 -118 vhcurveto
          hintmask 10101100
          -60 103 -69 119 -106 74 -39 -5 -202 -37 -124 -157 rrcurveto
          -19 -25 -7 -14 -16 vvcurveto
          -13 3 -15 8 -27 vhcurveto
          46 -157 20 -260 -158 -54 -6 -91 -28 vvcurveto
          304 206 rmoveto
          26 121 16 117 122 vvcurveto
          107 vlineto
          64 -15 66 -11 80 -20 rrcurveto
          -84 1 44 -3 -40 28 callsubr
          endchar
        </CharString>
        <CharString name="approxequal">
          44 89 957 hstem
          32 1091 vstem
          153 594 -38 callsubr
          126 -613 -38 callsubr
          endchar
        </CharString>
        <CharString name="aring">
          -50 callgsubr
          45 2 callsubr
          -14 callgsubr
          -898 1 callsubr
          hintmask 0000000000000000
          hintmask 0101001000000000
          130 146 rmoveto
          1 -53 83 -28 49 -35 40 -28 35 -24 36 2 18 1 18 7 20 16 94 82 111 269 55 141 15 -7 rcurveline
          -14 -90 -10 -78 -10 -101 rrcurveto
          hintmask 1010001000000000
          -9 -89 34 -25 25 -27 55 -59 78 -42 62 1 116 2 100 137 69 160 -85 121 rcurveline
          -173 -92 99 234 81 455 -8 64 rlinecurve
          84 -71 -84 37 -29 callgsubr
          -77 -70 -14 -14 -21 hvcurveto
          -32 6 -96 2 -118 vhcurveto
          hintmask 0101001000000000
          -60 103 -79 119 -107 74 -39 -5 -201 -37 -122 -157 rrcurveto
          -18 -25 -7 -14 -16 vvcurveto
          -13 4 -15 8 -27 vhcurveto
          49 -157 24 -260 3 -158 rrcurveto
          1 -54 -4 -91 -28 vvcurveto
          301 206 rmoveto
          24 121 14 117 -3 122 -1 107 rcurveline
          64 -15 70 -11 80 -20 rrcurveto
          -84 1 44 -3 -40 vhcurveto
          -33 -70 -109 -212 -74 -73 rrcurveto
          hintmask 0000110110000000
          121 890 -93 callsubr
        </CharString>
        <CharString name="asciicircum">
          93 332 1117 hstem
          62 1082 vstem
          268 332 rmoveto
          307 685 367 -685 74 9 105 74 23 55 rlinecurve
          -362 975 -86 15 -206 -30 -47 -41 rlinecurve
          -57 -92 -285 -714 -39 -123 32 -54 96 -67 78 -7 rrcurveto
          endchar
        </CharString>
        <CharString name="asciitilde">
          44 374 455 hstem
          37 1086 vstem
          158 377 rmoveto
          182 132 rlineto
          -55 92 272 -80 75 hhcurveto
          152 166 216 119 26 hvcurveto
          -121 112 -175 -129 rlineto
          38 -91 -260 99 -86 hhcurveto
          -152 -175 -223 -118 -26 hvcurveto
          endchar
        </CharString>
        <CharString name="asterisk">
          -35 1618 -20 hstem
          37 1007 vstem
          385 596 rmoveto
          135 369 8 -2 41 -127 56 -135 53 -89 rlinecurve
          121 15 104 59 61 101 -308 244 rcurveline
          5 10 rlineto
          -8 57 83 -11 73 hhcurveto
          45 57 4 11 49 hvcurveto
          13 38 6 42 42 vvcurveto
          86 -26 83 -51 48 vhcurveto
          -317 -225 -5 4 -1 3 -6 4 rlinecurve
          138 456 rlineto
          22 -44 -69 9 -44 hhcurveto
          -78 -74 -30 -49 -53 hvcurveto
          6 -87 28 -219 39 -94 -13 -8 rcurveline
          -275 241 -96 -65 -57 -138 -9 -120 rlinecurve
          -31 98 130 -12 111 11 27 1 11 hhcurveto
          2 -11 -114 -65 -105 -84 -89 -108 rlinecurve
          -81 47 103 -93 116 hhcurveto
          endchar
        </CharString>
        <CharString name="at">
          588 -235 290 974 353 hstem
          129 359 254 202 340 290 vstem
          330 -76 rmoveto
          333 -234 729 53 236 152 24 100 -52 144 -49 94 -216 -156 -143 -21 -69 -1 -51 -1 -63 34 -45 48 -20 22 -28 20 8 72 8 82 9 69 12 73 -21 5 rcurveline
          -44 -114 -83 -224 -77 -65 -16 -14 -14 -5 -15 -1 -29 -2 -29 19 -32 23 -40 28 -67 24 -1 42 rrcurveto
          23 4 74 -1 43 vhcurveto
          -3 128 -19 211 -39 128 rrcurveto
          -7 21 -3 12 11 vvcurveto
          13 5 11 15 21 vhcurveto
          96 129 166 27 31 5 87 -60 63 -97 49 -83 rrcurveto
          -1 96 -5 77 26 vvcurveto
          11 17 57 12 62 hhcurveto
          99 68 -30 -68 58 hvcurveto
          6 -52 -66 -369 -80 -189 268 -4 rcurveline
          75 111 49 89 38 161 rrcurveto
          425 12 -347 279 -346 hhcurveto
          -246 -274 -84 -123 -118 hvcurveto
          -63 -113 -60 -292 -3 -208 -3 -208 87 -293 117 -137 rrcurveto
          382 424 rmoveto
          36 -20 67 66 100 192 29 64 rlinecurve
          1 61 -203 43 1 -105 2 -98 -12 -98 -21 -105 rlinecurve
          endchar
        </CharString>
        <CharString name="atilde">
          -50 callgsubr
          73 415 -14 callgsubr
          -1000 842 -105 callgsubr
          -161 927 -81 callgsubr
        </CharString>
        <CharString name="b">
          24 -20 235 -214 -46 callgsubr
          451 -20 hstemhm
          47 1057 hintmask 00000000
          hintmask 01111000
          -55 callgsubr
          hintmask 10111000
          -20 callgsubr
          endchar
        </CharString>
        <CharString name="backslash">
          -328 1605 -20 hstem
          47 618 vstem
          393 1660 rmoveto
          -74 26 -194 -32 -78 -49 361 -1844 rcurveline
          103 -3 78 23 76 53 rrcurveto
          endchar
        </CharString>
        <CharString name="bar">
          -467 1838 11 hstem
          142 338 vstem
          200 -293 rmoveto
          88 -30 84 3 98 31 10 2127 rcurveline
          -89 26 -184 -23 -65 -45 rrcurveto
          endchar
        </CharString>
        <CharString name="braceleft">
          -264 1538 265 hstemhm
          94 547 -324 535 32 callsubr
          317 -232 rmoveto
          141 -52 110 -20 170 22 38 186 rcurveline
          -179 67 55 602 rlineto
          hintmask 11000000
          -21 59 -72 65 -88 68 rrcurveto
          15 vlineto
          57 49 53 47 59 83 rrcurveto
          1 1 618 vlineto
          hintmask 10100000
          57 -38 64 -9 65 13 23 88 6 83 -4 88 rrcurveto
          -132 -102 14 32 -130 hvcurveto
          -52 -10 -103 -71 -35 -71 83 -758 rcurveline
          -48 -59 rlineto
          hintmask 11000000
          -44 36 -47 36 -18 13 -143 -54 -21 -217 80 -115 rrcurveto
          hintmask 10100000
          68 -22 61 7 56 27 47 -44 rcurveline
          endchar
        </CharString>
        <CharString name="braceright">
          -264 -292 2140 hstemhm
          58 506 -340 541 8 callsubr
          83 -13 rmoveto
          -23 -88 -6 -53 4 -91 291 -47 rcurveline
          52 10 103 71 35 71 -61 757 rcurveline
          48 59 rlineto
          hintmask 10100000
          109 -84 143 54 21 217 -80 115 rlinecurve
          hintmask 11000000
          -69 22 -61 -7 -56 -28 -46 45 rcurveline
          77 779 -141 52 -188 20 -170 -22 rlinecurve
          -38 -186 rlineto
          hintmask 10100000
          202 -67 -10 -614 24 -52 57 -60 88 -68 rlinecurve
          -15 vlineto
          -57 -49 -68 -61 -44 -69 rrcurveto
          -1 -1 vlineto
          45 -645 rlineto
          hintmask 11000000
          -57 31 -58 10 -65 -6 rrcurveto
          endchar
        </CharString>
        <CharString name="bracketleft">
          -406 -291 2140 hstem
          601 82 vstem
          207 -245 rmoveto
          394 -46 38 196 -177 67 22 1606 62 -29 50 -11 62 6 rlinecurve
          23 88 6 83 -4 88 -383 46 rcurveline
          -151 -125 rlineto
          endchar
        </CharString>
        <CharString name="bracketright">
          -406 -292 2141 hstem
          31 29 vstem
          56 -18 rmoveto
          -23 -88 -6 -52 4 -88 322 -46 rcurveline
          151 125 3 1969 -447 47 -49 -216 50 -38 70 -19 48 -11 rlinecurve
          73 -1617 -62 29 -72 11 -62 -6 rlinecurve
          endchar
        </CharString>
        <CharString name="breve">
          -311 1280 262 hstemhm
          31 752 8 callsubr
          404 1280 -84 callsubr
        </CharString>
        <CharString name="breve.cap">
          -311 1619 262 hstem
          31 752 vstem
          404 1619 -83 callsubr
        </CharString>
        <CharString name="brokenbar">
          -480 513 12 1313 11 hstemhm
          156 321 -288 283 hintmask 00000000
          hintmask 11100000
          170 791 rmoveto
          101 -21 101 1 103 27 5 1040 rcurveline
          -89 26 -184 -23 -65 -45 rrcurveto
          hintmask 11010000
          58 -2089 rmoveto
          88 -30 84 3 98 31 4 788 rcurveline
          -95 28 -98 6 -103 -20 rrcurveto
          endchar
        </CharString>
        <CharString name="bullet">
          -338 332 593 hstem
          60 618 vstem
          60 599 rmoveto
          46 -130 109 -84 121 -53 105 35 201 144 36 153 -79 111 -123 108 -149 42 -59 -39 -189 -230 -19 -57 rrcurveto
          endchar
        </CharString>
        <CharString name="c">
          -214 7 callsubr
          462 9 vstem
          -89 callsubr
          endchar
        </CharString>
        <CharString name="cacute">
          -214 -65 callsubr
          63 485 hstemhm
          212 523 -273 9 hintmask 11001000
          -89 callsubr
          hintmask 00110000
          144 1120 -92 callgsubr
        </CharString>
        <CharString name="caron">
          -207 1269 424 hstemhm
          99 746 8 callsubr
          350 1279 -91 callgsubr
        </CharString>
        <CharString name="caron.cap">
          -207 1609 393 hstemhm
          98 740 8 callsubr
          323 1614 -88 callgsubr
        </CharString>
        <CharString name="caronvertical">
          -700 1613 -20 hstem
          30 343 vstem
          184 1014 rmoveto
          99 169 50 197 40 130 rrcurveto
          18 callsubr
          -19 -514 rlineto
          endchar
        </CharString>
        <CharString name="ccaron">
          -214 -65 callsubr
          hstemhm
          462 9 vstemhm
          -89 callsubr
          191 1152 -91 callgsubr
        </CharString>
        <CharString name="ccedilla">
          -214 -408 239 170 -67 callsubr
          hstem
          462 9 vstem
          167 127 rmoveto
          -22 27 144 -125 88 hhcurveto
          2 hlineto
          67 -149 rlineto
          -16 callgsubr
          -71 callsubr
          -129 202 rcurveline
          113 73 105 106 29 54 -101 153 rcurveline
          -112 -60 -158 -79 -48 -20 -19 16 rcurveline
          37 175 5 270 -16 144 62 -84 70 -112 102 -60 51 15 165 180 -35 231 -186 48 rcurveline
          23 -50 -120 74 -60 hhcurveto
          -63 -122 -61 -31 -52 hvcurveto
          -52 -31 -127 -94 -57 vvcurveto
          -13 7 -20 9 -28 vhcurveto
          39 -114 21 -251 -185 vvcurveto
          -104 -38 -16 84 -72 vhcurveto
          endchar
        </CharString>
        <CharString name="ccircumflex">
          -214 4 callgsubr
          101 730 -369 9 hintmask 11001000
          -89 callsubr
          hintmask 00110000
          75 1119 -93 callgsubr
        </CharString>
        <CharString name="cdotaccent">
          -214 -65 callsubr
          63 434 hstemhm
          220 446 -204 9 hintmask 11001000
          -89 callsubr
          hintmask 00110000
          270 1120 -103 callsubr
        </CharString>
        <CharString name="cedilla">
          -563 -408 542 hstemhm
          8 536 8 callsubr
          30 -130 rmoveto
          -71 callsubr
          -178 279 rcurveline
          -220 1 137 -304 rlineto
          -16 callgsubr
          endchar
        </CharString>
        <CharString name="cent">
          -154 1201 -20 hstemhm
          401 180 -145 23 32 callsubr
          161 127 rmoveto
          16 -13 59 -48 64 -38 -51 -292 rcurveline
          hintmask 11000000
          70 -81 160 -26 102 71 -8 89 -11 120 -21 97 151 62 179 154 37 68 -101 153 rcurveline
          hintmask 10100000
          -112 -60 -188 -79 -48 -20 -19 16 rcurveline
          37 175 -25 280 -16 144 62 -84 130 -102 102 -60 51 15 165 180 -35 231 -206 48 rcurveline
          -46 19 84 362 rlineto
          25 -26 -65 11 -54 hhcurveto
          hintmask 11000000
          -95 -58 -27 -70 -44 hvcurveto
          26 -246 -66 -13 -98 -49 -45 -27 rlinecurve
          hintmask 10100000
          -52 -31 -127 -94 -57 vvcurveto
          -13 7 -20 9 -28 vhcurveto
          39 -114 21 -251 -185 vvcurveto
          -104 -38 -16 84 -72 vhcurveto
          endchar
        </CharString>
        <CharString name="circumflex">
          -207 1246 461 hstem
          74 730 vstem
          215 1246 -93 callgsubr
        </CharString>
        <CharString name="circumflex.cap">
          -207 1609 398 hstem
          98 710 vstem
          239 1609 -100 callsubr
        </CharString>
        <CharString name="colon">
          -425 -34 509 258 509 hstemhm
          70 531 hintmask 10100000
          70 195 -70 callgsubr
          hintmask 01100000
          767 vmoveto
          -20 callsubr
        </CharString>
        <CharString name="comma">
          -465 -244 695 hstem
          -11 560 vstem
          -11 -176 -11 callgsubr
        </CharString>
        <CharString name="commaaccent">
          -657 10 callgsubr
          hstem
          30 452 vstem
          98 -91 -86 callsubr
        </CharString>
        <CharString name="copyright">
          317 1322 242 hstem
          119 248 678 270 vstem
          183 405 rmoveto
          16 -111 415 -105 140 -13 76 12 378 116 31 106 rrcurveto
          36 131 40 343 210 vvcurveto
          118 -5 90 -46 55 vhcurveto
          111 -93 -370 96 -96 hhcurveto
          -66 -413 -110 -94 -72 hvcurveto
          -36 -46 1 -128 -72 vvcurveto
          -193 28 -287 36 -229 vhcurveto
          283 134 rmoveto
          -67 58 30 14 84 vvcurveto
          150 -17 113 -31 92 vhcurveto
          -8 23 -6 16 11 vvcurveto
          45 104 77 41 25 vhcurveto
          25 42 99 50 52 hhcurveto
          48 97 -60 -19 41 hvcurveto
          150 -39 29 -187 -134 -146 -42 -12 rlinecurve
          -76 46 -54 82 -48 65 -24 -10 rcurveline
          11 -111 9 -118 -28 -134 15 -12 rcurveline
          40 16 128 64 90 48 81 -124 rcurveline
          -69 -37 -197 -182 -128 hhcurveto
          -71 -117 102 17 -22 hvcurveto
          endchar
        </CharString>
        <CharString name="currency">
          67 31 1129 -1000 268 287 287 hstemhm
          169 287 269 286 hintmask 00000000
          hintmask 10011000
          237 38 rmoveto
          hintmask 01111000
          41 20 50 55 62 95 rrcurveto
          -28 54 91 -20 56 hhcurveto
          64 62 16 28 55 hvcurveto
          129 -173 rlineto
          81 158 132 84 4 hvcurveto
          -20 40 -62 59 -95 57 rrcurveto
          28 55 16 61 63 vvcurveto
          54 -15 79 -25 64 vhcurveto
          179 133 rlineto
          81 -132 158 -84 4 vhcurveto
          -42 -21 -63 -67 -60 -104 rrcurveto
          1 vlineto
          34 -59 -65 4 -54 hhcurveto
          -64 -59 -14 -25 -54 hvcurveto
          -144 197 rlineto
          -81 -158 -132 -84 -4 hvcurveto
          21 -44 61 -55 108 -67 rrcurveto
          -31 -59 -17 -66 -71 vvcurveto
          -46 10 -76 23 -46 vhcurveto
          -181 -133 rlineto
          hintmask 10011000
          -81 132 -158 84 -4 vhcurveto
          hintmask 01111000
          239 438 rmoveto
          -13 35 -7 33 33 vvcurveto
          41 11 41 24 45 vhcurveto
          8 15 20 3 23 hhcurveto
          56 69 -21 -26 33 hvcurveto
          11 -34 7 -33 -33 vvcurveto
          -42 -10 -41 -22 -44 vhcurveto
          -2 -3 rlineto
          -7 -14 -18 -3 -22 hhcurveto
          -57 -73 22 26 -31 hvcurveto
          endchar
        </CharString>
        <CharString name="d">
          84 -65 callsubr
          429 -20 hstem
          45 1161 vstem
          -94 callsubr
          endchar
        </CharString>
        <CharString name="dagger">
          -107 1181 -20 43 25 callgsubr
          hintmask 00000000
          hintmask 01111000
          397 -268 -36 callsubr
          hintmask 10111000
          -5 callsubr
        </CharString>
        <CharString name="daggerdbl">
          -107 396 294 514 25 callgsubr
          hintmask 10001000
          61 396 rmoveto
          816 1 1 callgsubr
          rlinecurve
          -828 -65 -9 callsubr
          hintmask 00000000
          336 -664 -36 callsubr
          hintmask 01111000
          -5 callsubr
        </CharString>
        <CharString name="dcaron">
          328 -65 callsubr
          429 -20 30 -20 hstemhm
          45 1509 hintmask 00000000
          hintmask 11011000
          1138 988 rmoveto
          158 -52 119 179 89 218 50 189 rlinecurve
          70 -65 -100 31 -92 hhcurveto
          -37 -36 -5 -9 -31 hvcurveto
          -1063 -1462 rmoveto
          1 -53 82 -28 50 -35 39 -28 36 -25 36 2 18 1 18 8 19 16 95 82 114 269 53 141 5 -2 rcurveline
          -6 -92 -5 -81 -8 -101 -8 -89 35 -25 25 -27 56 -59 79 -42 62 1 116 2 153 168 67 160 -88 121 rcurveline
          -227 -123 rlineto
          hintmask 11101000
          87 291 43 864 -9 61 rrcurveto
          66 -71 -103 23 -92 hhcurveto
          -96 -84 -26 -28 -23 hvcurveto
          3 -40 58 -411 17 -198 -5 -2 rcurveline
          -62 103 -71 119 -108 74 -39 -5 -201 -37 -121 -157 rrcurveto
          -19 -25 -6 -14 -16 vvcurveto
          -13 4 -15 8 -27 vhcurveto
          hintmask 11011000
          76 -261 -7 -262 4 -225 rrcurveto
          300 206 rmoveto
          24 121 14 117 -2 122 -2 107 rcurveline
          64 -15 67 -11 80 -20 1 -84 1 44 -3 -40 -32 -70 -108 -212 -74 -73 rrcurveto
          endchar
        </CharString>
        <CharString name="dcroat">
          95 1 -21 1160 265 -257 203 262 -20 hstemhm
          432 617 120 25 hintmask 00000000
          hintmask 10111100
          130 147 rmoveto
          1 -53 82 -28 50 -35 39 -28 36 -25 36 2 18 1 18 8 19 16 95 82 114 269 53 141 5 -2 rcurveline
          -6 -92 -5 -81 -8 -101 -8 -89 35 -25 25 -27 56 -59 79 -42 62 1 116 2 97 137 67 160 -88 121 rcurveline
          -171 -92 rlineto
          hintmask 11011100
          51 172 29 372 14 288 53 1 39 1 20 2 45 64 12 126 -41 77 -120 -12 rcurveline
          1 67 0 45 -2 13 rrcurveto
          66 -71 -83 23 -92 hhcurveto
          -96 -77 -26 -28 -23 hvcurveto
          hintmask 10111100
          1 -15 10 -81 14 -104 -191 -16 rcurveline
          -14 -59 4 -71 24 -65 69 -3 68 -2 67 -1 15 -121 13 -119 7 -76 -21 -2 rcurveline
          -62 103 -71 119 -108 74 -39 -5 -201 -37 -121 -157 rrcurveto
          -19 -25 -6 -14 -16 vvcurveto
          -13 4 -15 8 -27 vhcurveto
          76 -261 -7 -178 4 -225 rrcurveto
          300 206 rmoveto
          24 121 14 117 -2 122 -2 23 rcurveline
          64 -15 67 -11 80 -20 -1 -6 rcurveline
          -32 -70 -108 -202 -74 -73 rrcurveto
          endchar
        </CharString>
        <CharString name="degree">
          -138 584 245 391 290 hstem
          57 295 260 309 vstem
          479 584 rmoveto
          291 151 220 259 249 -124 198 -301 -290 -149 -208 -256 -254 130 -208 292 hvcurveto
          -75 268 rmoveto
          -30 55 -22 70 69 vvcurveto
          62 19 61 33 47 vhcurveto
          3 16 15 1 16 hhcurveto
          36 37 -7 -11 36 hvcurveto
          31 -49 21 -68 -70 vvcurveto
          -64 -18 -65 -30 -51 vhcurveto
          -4 -20 -21 -2 -19 hhcurveto
          -43 -37 9 14 -20 hvcurveto
          endchar
        </CharString>
        <CharString name="dieresis">
          -106 1247 434 hstem
          90 888 vstem
          775 1247 -104 callgsubr
        </CharString>
        <CharString name="dieresis.cap">
          -106 1586 434 hstem
          90 888 vstem
          775 1586 -104 callgsubr
        </CharString>
        <CharString name="divide">
          -117 1 -21 460 314 440 -20 hstemhm
          293 405 207 7 hintmask 10110000
          473 805 rmoveto
          70 22 132 95 17 callgsubr
          -151 -11 -37 29 -86 72 -55 79 -34 rrcurveto
          -180 -650 rmoveto
          29 -86 72 -55 79 -34 70 23 132 94 17 callgsubr
          -150 -11 -38 rrcurveto
          hintmask 01001000
          -202 285 -12 callsubr
        </CharString>
        <CharString name="dollar">
          -136 -221 1945 hstemhm
          76 357 -23 200 -52 316 32 callsubr
          130 135 rmoveto
          46 -8 78 -11 92 -10 -58 -250 rcurveline
          70 -81 150 -26 102 71 -8 86 -10 98 -20 86 rrcurveto
          hintmask 11010000
          107 44 85 68 78 76 24 70 13 134 -5 83 -77 97 -276 177 -92 49 9 215 rcurveline
          26 9 68 -93 146 -103 82 -34 rlinecurve
          109 93 65 212 -35 121 -161 54 rcurveline
          -15 6 -17 5 -18 4 64 311 rcurveline
          25 -26 -45 11 -54 hhcurveto
          hintmask 10100000
          -95 -78 -37 -70 -44 hvcurveto
          31 -235 -67 -19 -76 -37 -44 -26 rlinecurve
          hintmask 11010000
          -45 -27 -133 -99 -59 vvcurveto
          -42 1 -262 21 -79 vhcurveto
          54 -70 173 -79 129 -48 44 -16 39 -13 27 -8 3 -37 -2 -84 -7 -38 -49 -24 rcurveline
          -109 80 -127 55 -141 4 rrcurveto
          hintmask 10100000
          -16 -34 -86 -103 100 -182 rrcurveto
          endchar
        </CharString>
        <CharString name="dotaccent">
          -650 1247 434 hstem
          20 446 vstem
          237 1247 -103 callsubr
        </CharString>
        <CharString name="dotaccent.cap">
          -650 1566 434 hstem
          20 446 vstem
          237 1566 -103 callsubr
        </CharString>
        <CharString name="dotlessi">
          -501 1 -21 hstem
          26 594 vstem
          63 212 -61 callgsubr
        </CharString>
        <CharString name="dotlessj">
          -552 -417 -21 hstem
          -51 562 vstem
          -25 -109 rmoveto
          -18 -60 -13 -36 -46 callsubr
          -90 callsubr
          -52 9 -37 8 rlinecurve
          endchar
        </CharString>
        <CharString name="e">
          -167 7 callsubr
          45 863 vstem
          -107 callsubr
          endchar
        </CharString>
        <CharString name="eacute">
          -167 -65 callsubr
          63 485 hstemhm
          45 863 -690 523 hintmask 11010000
          -107 callsubr
          hintmask 00101000
          -108 830 -92 callgsubr
        </CharString>
        <CharString name="ebreve">
          -167 -65 callsubr
          hstemhm
          45 863 vstemhm
          -107 callsubr
          51 863 -84 callsubr
        </CharString>
        <CharString name="ecaron">
          -167 -65 callsubr
          hstemhm
          45 863 vstemhm
          -107 callsubr
          -61 862 -91 callgsubr
        </CharString>
        <CharString name="ecircumflex">
          -167 4 callgsubr
          45 863 -801 730 hintmask 11010000
          -107 callsubr
          hintmask 00101000
          -177 829 -93 callgsubr
        </CharString>
        <CharString name="edieresis">
          -167 -65 callsubr
          63 434 hstemhm
          45 863 -850 888 hintmask 11010000
          -107 callsubr
          hintmask 00101000
          318 830 -104 callgsubr
        </CharString>
        <CharString name="edotaccent">
          -167 -65 callsubr
          63 434 hstemhm
          45 863 -648 446 hintmask 11010000
          -107 callsubr
          hintmask 00101000
          52 830 -103 callsubr
        </CharString>
        <CharString name="egrave">
          -167 -65 callsubr
          63 485 hstemhm
          45 863 -781 523 hintmask 11010000
          -107 callsubr
          hintmask 00101000
          126 830 -80 callgsubr
        </CharString>
        <CharString name="eight">
          -29 -34 1581 -311 311 hstemhm
          56 295 -287 317 268 367 -325 341 hintmask 00000000
          hintmask 10101000
          87 138 rmoveto
          122 -116 244 -55 117 -1 rrcurveto
          hintmask 10100100
          126 37 200 70 99 112 50 121 -5 116 -25 116 -284 238 rcurveline
          hintmask 10101000
          117 91 122 150 42 90 13 113 -19 89 -21 66 rrcurveto
          hintmask 01011000
          -122 116 -244 55 -117 1 -119 -6 -221 -117 -71 -78 -58 -112 45 -230 46 -83 rrcurveto
          -1 vlineto
          199 -169 rlineto
          hintmask 10101000
          -114 -89 -125 -118 -24 -138 -13 -113 19 -89 21 -66 rrcurveto
          502 758 rmoveto
          -18 18 -37 37 -27 29 rrcurveto
          hintmask 10011000
          -40 43 -52 54 -39 38 rrcurveto
          hintmask 01011000
          10 103 39 18 85 -1 73 -25 66 -41 rlinecurve
          hintmask 10101000
          -13 -123 -12 -61 -35 -89 rrcurveto
          -234 -555 rmoveto
          -8 92 20 31 71 117 43 50 rlinecurve
          hintmask 10100100
          215 -213 -9 -122 -40 -18 rlineto
          hintmask 10101000
          -101 -9 -98 25 -93 47 rrcurveto
          endchar
        </CharString>
        <CharString name="ellipsis">
          654 -34 509 hstem
          15 531 59 531 59 531 cntrmask 01110000
          1195 195 -70 callgsubr
          -590 hmoveto
          -83 callgsubr
          -590 hmoveto
          -20 callsubr
        </CharString>
        <CharString name="emacron">
          -167 -65 callsubr
          153 271 hstemhm
          45 863 -72 8 hintmask 11010000
          -107 callsubr
          hintmask 00101000
          -286 920 -85 callsubr
        </CharString>
        <CharString name="emdash">
          905 430 324 hstem
          1907 4 callsubr
          1267 9 84 7 8 callgsubr
          -1740 -65 -1 callsubr
        </CharString>
        <CharString name="endash">
          241 430 324 hstem
          1226 4 callsubr
          586 9 84 7 8 callgsubr
          -1059 -65 -1 callsubr
        </CharString>
        <CharString name="eng">
          -8 -41 callsubr
          hstem
          492 22 142 374 vstem
          73 66 rmoveto
          46 -54 106 -30 96 -2 69 -2 70 12 49 34 -11 134 -32 105 -29 97 80 146 66 132 70 143 28 -9 rcurveline
          -27 -378 5 -528 -56 8 -52 9 -37 8 rlinecurve
          -16 -60 -12 -36 9 -76 36 -46 121 -89 121 -22 rrcurveto
          122 130 128 56 6 hvcurveto
          9 192 -84 325 -26 102 88 219 72 297 5 157 rrcurveto
          106 -88 -131 36 -129 hhcurveto
          -48 -46 -3 -12 -38 hvcurveto
          -96 -212 -49 -220 -74 -219 -16 3 rcurveline
          95 626 rlineto
          28 -30 -52 9 -62 hhcurveto
          -108 -146 -39 23 callsubr
          -29 -80 -18 -61 -33 -161 rrcurveto
          endchar
        </CharString>
        <CharString name="enspace">
          241 endchar
        </CharString>
        <CharString name="eogonek">
          -167 -41 callsubr
          1224 -20 hstem
          45 863 vstem
          164 127 rmoveto
          11 -9 24 -18 28 -25 13 -11 13 -13 13 -13 rrcurveto
          -43 41 32 -15 33 hhcurveto
          71 83 33 48 79 hvcurveto
          11 -6 rlineto
          -100 -82 -158 -116 -92 vvcurveto
          -81 150 -122 97 116 79 64 131 67 vhcurveto
          -47 127 -196 -67 -14 13 81 156 101 157 91 156 rlinecurve
          -72 callsubr
          277 16 29 23 44 2 87 -10 65 -10 61 -6 3 -20 8 -99 36 -54 14 -159 106 -35 23 -24 6 -19 1 rrcurveto
          -73 -124 -58 -37 -60 hvcurveto
          -51 -32 -124 -95 -60 vvcurveto
          -12 4 -15 8 -27 vhcurveto
          26 -86 34 -246 -198 vvcurveto
          -104 -35 -33 82 -74 vhcurveto
          261 290 rmoveto
          1 1 1 1 vvcurveto
          13 101 10 254 56 vvcurveto
          91 -29 68 -20 35 -8 -58 -136 -114 -153 -46 -68 rrcurveto
          endchar
        </CharString>
        <CharString name="equal">
          -23 210 696 hstem
          989 7 vstem
          101 602 rmoveto
          -7 callsubr
          -392 vmoveto
          -7 callsubr
          endchar
        </CharString>
        <CharString name="eth">
          -43 19 callsubr
          hstem
          62 355 231 365 vstem
          126 136 rmoveto
          92 -73 211 -71 133 -12 65 7 60 22 85 43 57 29 82 49 25 30 rrcurveto
          34 124 43 276 199 vvcurveto
          60 vlineto
          78 -3 92 -16 69 vhcurveto
          -108 113 -134 120 -152 103 139 144 rcurveline
          -37 91 -124 35 -59 7 -127 -154 rcurveline
          -76 39 -79 32 -81 25 rrcurveto
          -50 -22 -67 -121 -51 vvcurveto
          181 -111 -115 -140 25 -71 81 -27 67 -11 rlinecurve
          126 130 68 -57 62 -60 58 -66 rlinecurve
          -4 -7 -36 7 -35 5 -31 3 rlinecurve
          -102 -14 -245 -90 -59 -74 rrcurveto
          -13 -84 -5 -98 -74 vvcurveto
          -169 28 -145 36 -130 vhcurveto
          302 166 rmoveto
          -8 64 -3 85 55 vvcurveto
          49 3 49 6 74 vhcurveto
          189 161 16 -4 rlineto
          10 -109 7 -121 -116 vvcurveto
          -77 -3 -76 -6 -68 vhcurveto
          -55 -38 -63 19 -52 26 -41 27 rlinecurve
          endchar
        </CharString>
        <CharString name="exclam">
          -425 1613 -20 hstem
          81 531 vstem
          165 655 rmoveto
          84 -105 232 49 40 88 -64 277 rcurveline
          116 602 -36 30 -57 19 -57 -2 rlinecurve
          -135 -4 -138 -56 -65 -86 32 -244 42 -87 58 -223 -24 -82 -17 -86 -11 -90 rrcurveto
          -84 -460 rmoveto
          -20 callsubr
        </CharString>
        <CharString name="exclamdown">
          -425 -436 20 hstem
          81 531 vstem
          528 522 rmoveto
          -84 105 -232 -49 -40 -88 64 -277 rcurveline
          -116 -602 36 -30 57 -19 57 2 rlinecurve
          135 4 138 56 65 86 -32 244 -42 87 -58 223 24 82 17 86 11 90 rrcurveto
          84 460 -24 callsubr
        </CharString>
        <CharString name="f">
          -372 -417 -21 1667 6 callgsubr
          hintmask 00000000
          hintmask 11110000
          -26 callgsubr
          hintmask 11101100
          -42 callgsubr
          hintmask 11110000
          -48 callsubr
          rrcurveto
          hintmask 11101100
          -62 callsubr
          endchar
        </CharString>
        <CharString name="f_f">
          372 -417 -21 1667 336 48 11 callgsubr
          799 -744 396 -115 11 374 29 hintmask 0000000000000000
          hintmask 1011010010000000
          -2 -112 rmoveto
          -21 -60 -15 -40 2 -76 -40 callsubr
          110 -42 127 -37 87 -6 70 65 58 240 -37 74 -107 -11 -397 70 -163 37 rrcurveto
          hintmask 1010110010000000
          -62 callsubr
          hintmask 0000000000000000
          541 -22 callsubr
          hintmask 1110001000000000
          -42 callgsubr
          hintmask 1110000101000000
          -48 callsubr
          rrcurveto
          hintmask 1110001000000000
          -62 callsubr
          endchar
        </CharString>
        <CharString name="f_f_i">
          3 callsubr
          204 370 18 -6 callgsubr
          270 29 -6 508 213 29 535 13 hintmask 0000000000000000
          hintmask 0011101010110000
          23 callgsubr
          hintmask 1001101010110000
          -58 callgsubr
          hintmask 1001100101110000
          -260 -77 -19 321 29 -41 173 -78 160 -47 rlinecurve
          26 -272 113 -651 38 -396 -203 31 rcurveline
          -36 callgsubr
          -57 callgsubr
          -260 -77 rcurveline
          -19 326 166 -90 397 -47 201 19 rlinecurve
          hintmask 0011011010110000
          70 65 46 245 -37 74 rrcurveto
          hintmask 0011101010110000
          -220 -28 -363 2 -281 53 rrcurveto
          hintmask 0011010110110000
          -76 -31 -62 -44 -50 -46 -163 15 -273 50 -128 29 -62 callsubr
          1350 -1 callgsubr
          hintmask 0101101010110000
          -79 125 -150 -67 19 78 54 221 38 443 9 49 rlinecurve
          41 -47 -57 17 -61 hhcurveto
          -125 -135 -72 -73 -60 hvcurveto
          131 -521 rlineto
          hintmask 0011010110110000
          -93 -262 -1 14 -37 vvcurveto
          endchar
        </CharString>
        <CharString name="f_f_i_trk">
          3 callsubr
          208 336 48 -6 callgsubr
          270 29 -6 55 0 27 callgsubr
          hintmask 0000000000000000
          hintmask 0011110001010000
          1578 1330 rmoveto
          -34 callsubr
          -63 callsubr
          rrcurveto
          -836 -1442 rmoveto
          -36 callgsubr
          rrcurveto
          hintmask 1001110001010000
          -58 callgsubr
          hintmask 0011110000110000
          -260 -77 -20 345 rlineto
          hintmask 0011110001010000
          -48 callsubr
          rrcurveto
          hintmask 0011110000110000
          -62 callsubr
          hintmask 1001111001010000
          -947 -22 callsubr
          hintmask 0011110110010000
          -42 callgsubr
          hintmask 0011110101010000
          -48 callsubr
          -62 callsubr
          1350 -1 callgsubr
          hintmask 0101110001010000
          -79 125 -150 -67 19 78 54 221 38 443 9 49 rlinecurve
          41 -47 -57 17 -61 hhcurveto
          -125 -135 -72 -73 -60 hvcurveto
          131 -521 rlineto
          hintmask 0011110101010000
          -93 -262 -1 14 -37 vvcurveto
          endchar
        </CharString>
        <CharString name="f_f_l">
          998 -438 692 -692 752 -313 -21 1633 11 callgsubr
          508 -271 1048 -564 29 hintmask 0000000000000000
          hintmask 0011101001000000
          23 callgsubr
          hintmask 1001101010000000
          -40 callsubr
          45 -17 47 -17 47 -14 26 -272 113 -650 38 -396 rrcurveto
          hintmask 1001100101000000
          -203 31 -36 callgsubr
          rlinecurve
          -56 callgsubr
          -20 83 3 32 47 58 202 -64 98 -260 -45 rcurveline
          -19 292 21 -29 56 -57 74 -30 rlinecurve
          -29 71 90 -23 90 hhcurveto
          22 -178 31 -225 32 -168 -35 callsubr
          hintmask 0011101001000000
          -37 callsubr
          115 158 116 38 hvcurveto
          hintmask 0101011010000000
          -8 callsubr
          -94 -1 -100 -41 -70 -56 -132 16 -192 55 -129 27 -64 -26 -54 -33 -45 -36 -160 12 -288 53 -133 30 -62 callsubr
          endchar
        </CharString>
        <CharString name="f_i_trk">
          243 -41 callsubr
          1249 6 callgsubr
          56 594 hintmask 00000000
          hintmask 10111000
          -26 callgsubr
          hintmask 10110110
          -42 callgsubr
          hintmask 10111000
          -48 callsubr
          rrcurveto
          hintmask 10110110
          -62 callsubr
          hintmask 01000001
          834 1350 rmoveto
          -63 callsubr
          -34 callsubr
          rrcurveto
          -228 -995 -61 callgsubr
        </CharString>
        <CharString name="fi">
          243 -41 callsubr
          1244 364 25 -20 31 -6 callgsubr
          270 29 535 13 hintmask 0000000000000000
          hintmask 1110110110000000
          -2 -112 rmoveto
          -21 -60 -15 -40 2 -76 -58 callgsubr
          hintmask 1110101110000000
          -260 -77 -19 310 166 -90 397 -31 201 19 rlinecurve
          hintmask 1101010110000000
          70 65 46 245 -37 74 rrcurveto
          hintmask 1110101110000000
          -220 -28 -363 -14 -281 53 -253 -103 -96 -221 -17 -38 21 callsubr
          606 355 -61 callgsubr
        </CharString>
        <CharString name="five">
          -67 -291 268 366 311 551 -20 hstem
          637 358 vstem
          49 -17 rmoveto
          -17 1 -22 7 -23 vhcurveto
          -120 87 148 -92 205 hhcurveto
          339 159 227 301 225 -124 196 -233 -4 hvcurveto
          -82 -22 -85 -73 -65 -64 -6 5 rcurveline
          29 365 114 -60 237 -50 73 -4 rlinecurve
          35 18 76 120 137 vvcurveto
          57 -12 61 -35 61 vhcurveto
          -375 -70 -61 10 -198 49 -55 11 rlinecurve
          -80 -39 -62 -118 -3 -86 149 -469 rcurveline
          -140 8 -24 -33 -9 -39 2 -39 rlinecurve
          3 -102 86 -124 70 -21 73 14 98 109 38 74 170 6 rcurveline
          22 -20 16 -85 -81 vvcurveto
          -85 -21 -80 -21 -12 vhcurveto
          -4 -26 -32 -2 -25 hhcurveto
          -143 -130 67 63 -129 hvcurveto
          -39 -35 -22 -35 -54 vvcurveto
          endchar
        </CharString>
        <CharString name="fl">
          254 -41 callsubr
          1633 -6 callgsubr
          -214 1048 -564 29 hintmask 00000000
          hintmask 11110010
          -2 -112 rmoveto
          -21 -60 -15 -40 2 -76 -58 callgsubr
          hintmask 11101010
          -260 -77 -19 305 rlineto
          -57 41 178 -92 183 hhcurveto
          22 -178 31 -225 32 -168 -35 callsubr
          -37 callsubr
          115 158 116 38 hvcurveto
          hintmask 11100100
          -8 callsubr
          -78 -1 -110 -40 -75 -57 -132 16 -192 55 -130 27 rrcurveto
          hintmask 11101010
          -253 -103 -88 -210 -17 -38 rrcurveto
          hintmask 11100100
          21 callsubr
          endchar
        </CharString>
        <CharString name="florin">
          -254 -417 -21 2051 -20 hstemhm
          17 868 -106 21 hintmask 00000000
          hintmask 11100000
          46 -99 rmoveto
          -20 -60 -13 -46 4 -76 78 -76 128 -67 105 -14 103 9 114 87 38 61 13 21 10 22 3 24 -47 1008 rcurveline
          hintmask 11010000
          192 -2 54 73 4 155 -33 68 rlinecurve
          -229 -49 -20 287 rlineto
          hintmask 11100000
          44 -58 65 -51 150 -28 68 65 54 240 -38 74 -113 -3 -87 11 -164 37 rrcurveto
          -270 -100 -84 -251 0 vvcurveto
          32 -245 -95 -12 -33 -55 -13 -79 15 -71 rlinecurve
          155 -2 123 -935 -104 4 -153 26 -36 8 rlinecurve
          endchar
        </CharString>
        <CharString name="four">
          82 1181 -20 hstem
          36 32 vstem
          171 39 rmoveto
          53 10 69 43 48 51 380 -65 rcurveline
          -46 -329 41 -29 122 -14 71 1 rlinecurve
          30 callsubr
          228 -18 57 63 278 33 394 -9 74 rrcurveto
          10 -23 -26 5 -26 hhcurveto
          -224 -148 -179 1 21 hvcurveto
          89 -433 -306 22 267 760 rlineto
          48 -37 -102 7 -42 hhcurveto
          -104 -110 -34 -81 -62 hvcurveto
          -66 -680 -111 14 -84 -137 94 -203 93 -21 rlinecurve
          endchar
        </CharString>
        <CharString name="fraction">
          272 -112 1688 hstem
          48 1312 vstem
          48 35 -57 callsubr
        </CharString>
        <CharString name="g">
          -80 callsubr
          endchar
        </CharString>
        <CharString name="gbreve">
          -80 callsubr
          hintmask 00000000
          93 941 -84 callsubr
        </CharString>
        <CharString name="gcircumflex">
          -47 callsubr
          62 461 hstemhm
          45 1063 -934 730 -98 callsubr
          -135 907 -93 callgsubr
        </CharString>
        <CharString name="gcommaaccent">
          -47 callsubr
          126 450 hstemhm
          45 1063 -732 452 -98 callsubr
          310 975 rmoveto
          68 389 -142 57 -85 -74 -175 -192 -50 -93 rlinecurve
          50 -86 220 -14 114 13 rrcurveto
          endchar
        </CharString>
        <CharString name="gdotaccent">
          -47 callsubr
          63 434 hstemhm
          45 1063 -781 446 -98 callsubr
          94 908 -103 callsubr
        </CharString>
        <CharString name="germandbls">
          133 -417 -21 438 -21 1634 -20 hstem
          65 392 vstem
          -43 -99 rmoveto
          -24 -60 -17 -46 -1 -76 28 -46 108 -89 117 -22 rrcurveto
          105 122 95 62 42 hvcurveto
          15 21 12 22 3 24 -19 1511 rcurveline
          16 14 50 -33 105 -64 66 -27 rlinecurve
          -144 -533 58 -75 217 -102 102 -45 rlinecurve
          -7 -53 -20 -84 -23 -61 -23 -7 rcurveline
          -59 76 -42 72 -123 16 -18 -30 -109 -125 83 -182 76 -19 46 -14 152 -42 108 40 105 75 75 73 36 66 76 170 3 83 -60 86 -217 156 -108 67 110 186 119 238 24 161 rrcurveto
          -181 138 -296 83 -161 12 -171 -49 -144 -126 -104 -143 -9 -184 81 -926 68 -322 -166 21 -46 9 -36 8 rrcurveto
          endchar
        </CharString>
        <CharString name="grave">
          16 callsubr
          499 1247 -80 callgsubr
        </CharString>
        <CharString name="grave.cap">
          -424 1624 396 hstem
          51 568 vstem
          555 1629 -79 callsubr
        </CharString>
        <CharString name="greater">
          -235 10 1097 hstem
          23 782 vstem
          745 774 rmoveto
          -580 333 -54 -32 -71 -95 -17 -74 rlinecurve
          426 -309 -405 -357 17 -67 94 -140 55 -23 rlinecurve
          591 425 15 86 -30 206 -41 47 rlinecurve
          endchar
        </CharString>
        <CharString name="greaterequal">
          29 callgsubr
          143 390 rmoveto
          756 208 29 106 -19 144 -34 75 rlinecurve
          -707 284 -55 -23 -55 -125 -17 -67 rlinecurve
          500 -217 -500 -181 17 -74 27 -80 58 -50 rlinecurve
          -52 -360 -10 callsubr
        </CharString>
        <CharString name="guillemotleft">
          158 10 1097 hstemhm
          55 643 -67 643 hintmask 11000000
          115 343 rmoveto
          -53 callgsubr
          hintmask 10100000
          576 hmoveto
          -53 callgsubr
          endchar
        </CharString>
        <CharString name="guillemotright">
          158 10 1097 hstemhm
          0 643 -67 643 hintmask 11000000
          583 774 rmoveto
          -54 callsubr
          hintmask 10100000
          576 hmoveto
          -54 callsubr
          endchar
        </CharString>
        <CharString name="guilsinglleft">
          -418 10 1097 hstem
          55 643 vstem
          115 343 rmoveto
          -53 callgsubr
          endchar
        </CharString>
        <CharString name="guilsinglright">
          -418 10 1097 hstem
          0 643 vstem
          583 774 rmoveto
          -54 callsubr
          endchar
        </CharString>
        <CharString name="h">
          82 0 callsubr
          452 -20 hstemhm
          10 471 -471 1187 hintmask 00000000
          hintmask 11101000
          112 -21 callsubr
          -25 -551 -3 -59 17 -41 47 -49 rlinecurve
          -52 49 78 -40 63 hhcurveto
          115 117 171 128 43 hvcurveto
          -89 121 -170 -89 rlineto
          91 222 71 334 171 vvcurveto
          108 -135 -144 36 -74 hhcurveto
          -57 -52 -12 -5 -21 hvcurveto
          hintmask 11110000
          -2 callsubr
          354 -13 callsubr
          -876 57 -116 vhcurveto
          -1 -1 0 -1 vvcurveto
          hintmask 11101000
          12 callsubr
          endchar
        </CharString>
        <CharString name="hbar">
          82 1 -21 1120 514 0 -20 hstemhm
          859 24 hintmask 00000000
          hintmask 10110000
          112 66 rmoveto
          48 -54 108 -30 96 -2 69 -2 70 12 47 34 -15 134 -36 105 -33 97 80 135 71 89 46 56 27 -9 rcurveline
          -9 -193 -10 -35 -1 -182 rrcurveto
          -89 29 -25 25 -27 vhcurveto
          57 -59 80 -42 62 1 116 2 124 158 35 139 -91 121 rcurveline
          -169 -89 91 222 45 208 20 156 rlinecurve
          -134 108 -145 37 -74 -1 -57 -1 -52 -10 -21 -6 -78 -174 -50 -117 -68 -219 -3 1 rcurveline
          -1 hlineto
          -13 3 rlineto
          hintmask 11010000
          40 582 192 2 163 5 37 3 rlinecurve
          45 88 32 140 -48 76 -402 -48 rcurveline
          14 200 -45 35 -45 14 -58 -1 rlinecurve
          -120 -2 -112 -65 -61 -81 -2 -10 4 -61 8 -88 -128 -24 rcurveline
          -19 -65 9 -48 24 -65 43 -2 45 -1 48 -1 34 -290 51 -369 36 -72 rrcurveto
          -1 -1 0 -1 vvcurveto
          hintmask 10110000
          12 callsubr
          endchar
        </CharString>
        <CharString name="hcircumflex">
          83 0 callsubr
          447 398 hstemhm
          -113 710 -586 471 -471 1188 hintmask 00000000
          hintmask 11000100
          113 -21 callsubr
          -26 -566 -4 -78 35 -24 23 -24 rlinecurve
          -60 57 80 -40 62 hhcurveto
          116 2 124 158 35 139 -91 121 rcurveline
          -169 -89 rlineto
          91 222 71 334 171 vvcurveto
          108 -135 -144 36 -74 hhcurveto
          -57 -52 -12 -5 -21 hvcurveto
          hintmask 11001000
          -2 callsubr
          269 -13 callsubr
          -791 57 -116 vhcurveto
          -1 -1 0 -1 vvcurveto
          hintmask 11000100
          12 callsubr
          hintmask 00110000
          -85 1543 -100 callsubr
        </CharString>
        <CharString name="hungarumlaut">
          -192 1231 493 hstem
          20 894 vstem
          165 1231 -71 callgsubr
        </CharString>
        <CharString name="hungarumlaut.cap">
          -192 1588 432 hstem
          44 888 vstem
          596 1588 -63 callgsubr
        </CharString>
        <CharString name="hyphen">
          -149 420 318 hstem
          861 4 callsubr
          221 -7 84 7 8 callgsubr
          -694 -49 -1 callsubr
        </CharString>
        <CharString name="i">
          -501 1 -21 hstem
          26 594 vstem
          -77 callsubr
          endchar
        </CharString>
        <CharString name="i.cy">
          -501 1 -21 hstem
          26 594 vstem
          -77 callsubr
          endchar
        </CharString>
        <CharString name="iacute">
          31 callsubr
          26 594 -573 523 hintmask 10100000
          63 212 -97 callsubr
          hintmask 01010000
          83 1035 -92 callgsubr
        </CharString>
        <CharString name="ibreve">
          -501 1 -21 hstemhm
          26 594 vstemhm
          63 212 -97 callsubr
          206 1068 -84 callsubr
        </CharString>
        <CharString name="icircumflex">
          -501 1 -21 1266 461 hstemhm
          -100 730 -604 594 hintmask 10010000
          63 212 -97 callsubr
          hintmask 01100000
          -22 1034 -93 callgsubr
        </CharString>
        <CharString name="idieresis">
          -501 1 -21 1267 434 hstemhm
          -149 888 -713 594 hintmask 10010000
          63 212 -97 callsubr
          hintmask 01100000
          473 1035 -104 callgsubr
        </CharString>
        <CharString name="igrave">
          31 callsubr
          -42 523 -455 594 hintmask 10010000
          63 212 -97 callsubr
          hintmask 01100000
          319 1035 -80 callgsubr
        </CharString>
        <CharString name="ij">
          63 -41 callsubr
          hstemhm
          26 594 -58 -17 callgsubr
          hintmask 01100000
          -77 callsubr
          hintmask 00000000
          814 986 -82 callsubr
        </CharString>
        <CharString name="ij_acutecomb">
          63 -41 callsubr
          1267 485 hstemhm
          26 594 -514 523 -65 562 -435 523 hintmask 01010000
          63 212 -97 callsubr
          hintmask 00100010
          727 1035 -90 callgsubr
          hintmask 10000100
          -200 -1356 rmoveto
          -18 -60 -13 -36 -46 callsubr
          -90 callsubr
          -52 9 -37 8 rlinecurve
          hintmask 00101000
          -385 1356 -92 callgsubr
        </CharString>
        <CharString name="imacron">
          -461 1 -21 1357 271 hstemhm
          46 594 -38 8 hintmask 01010000
          -8 1337 rmoveto
          314 -12 186 6 70 6 45 88 14 103 -19 80 -564 -14 rcurveline
          -38 -65 -18 -98 10 -94 rrcurveto
          hintmask 10100000
          91 -1125 -61 callgsubr
        </CharString>
        <CharString name="infinity">
          341 197 265 -265 281 273 304 hstemhm
          48 278 -278 1368 -29 callsubr
          223 223 rmoveto
          -20 37 46 -6 48 hhcurveto
          93 106 27 28 50 hvcurveto
          21 24 28 39 23 28 79 91 rcurveline
          hintmask 10110000
          75 -95 83 -119 114 -19 rrcurveto
          -3 22 21 -1 22 hhcurveto
          71 56 13 15 45 hvcurveto
          103 109 50 215 103 vvcurveto
          -31 108 -61 171 -101 90 rrcurveto
          24 -60 -58 10 -56 hhcurveto
          -46 -47 -6 -10 -47 hvcurveto
          -212 -250 -79 96 -102 136 -76 34 rlinecurve
          3 -22 -22 1 -22 hhcurveto
          -69 -58 -14 -15 -45 hvcurveto
          -104 -108 -49 -230 -1 -102 rrcurveto
          hintmask 01010000
          5 -104 102 -200 68 -63 rrcurveto
          119 259 rmoveto
          -16 33 1 72 29 117 35 56 rlinecurve
          67 -27 59 -52 62 -51 -150 -156 rcurveline
          426 116 rmoveto
          hintmask 10101000
          164 165 103 -8 15 -34 8 -85 -21 -83 -40 -79 rlinecurve
          -78 -7 rlineto
          endchar
        </CharString>
        <CharString name="integral">
          -389 -417 -21 1799 376 hstemhm
          8 795 -350 135 hintmask 00000000
          hintmask 11100000
          33 -99 rmoveto
          -18 -60 -13 -46 6 -76 35 -46 148 -89 120 -22 rrcurveto
          hintmask 11010000
          105 112 96 61 36 hvcurveto
          13 21 9 22 2 24 -135 1712 rcurveline
          hintmask 11100000
          45 -58 42 -67 175 -12 67 65 46 240 -40 74 -107 -11 -106 19 -164 37 rrcurveto
          -271 -113 -67 -205 0 vvcurveto
          9 -184 130 -949 105 -471 -168 21 -79 9 -37 8 rrcurveto
          endchar
        </CharString>
        <CharString name="iogonek">
          -501 -417 -21 458 -21 hstem
          102 471 vstem
          291 1207 rmoveto
          -63 callsubr
          -34 callsubr
          rrcurveto
          -228 -995 rmoveto
          -83 109 -91 94 -39 vhcurveto
          -80 -59 -84 -79 -86 vvcurveto
          -68 callgsubr
          4 8 183 276 35 49 27 53 17 40 rlinecurve
          -79 125 -150 -67 19 78 54 221 38 443 9 49 rlinecurve
          41 -47 -57 17 -61 hhcurveto
          -125 -135 -72 -73 -60 hvcurveto
          131 -521 rlineto
          -93 -262 -1 14 -37 vvcurveto
          endchar
        </CharString>
        <CharString name="itilde">
          -501 1 -21 1276 415 hstemhm
          -153 842 -663 594 hintmask 10010000
          63 212 -97 callsubr
          hintmask 01100000
          -117 1053 -81 callgsubr
        </CharString>
        <CharString name="j">
          -552 -417 -21 hstemhm
          -53 -17 callgsubr
          hintmask 00000000
          hintmask 11010000
          262 1198 rmoveto
          hintmask 10100000
          73 12 166 143 43 92 rrcurveto
          hintmask 11010000
          -66 callgsubr
          hintmask 10100000
          -18 -60 -2 -32 -46 callsubr
          hintmask 11010000
          -90 callsubr
          -64 10 -36 3 rlinecurve
          endchar
        </CharString>
        <CharString name="jcircumflex">
          -552 -417 -21 1684 461 hstemhm
          -97 730 -684 562 hintmask 10010000
          -25 -109 rmoveto
          -18 -60 -13 -36 -46 callsubr
          -90 callsubr
          -52 9 -37 8 rlinecurve
          hintmask 01100000
          69 1355 -93 callgsubr
        </CharString>
        <CharString name="k">
          -4 -65 callsubr
          429 -20 hstem
          -2 1117 vstem
          -69 callsubr
          endchar
        </CharString>
        <CharString name="kcommaaccent">
          -4 2 callgsubr
          1224 -20 429 -20 hstemhm
          -2 1117 -777 452 hintmask 01111000
          -69 callsubr
          hintmask 10000100
          318 -196 -86 callsubr
        </CharString>
        <CharString name="kgreenlandic">
          -27 7 callsubr
          26 1062 vstem
          52 105 rmoveto
          44 -60 119 -59 43 -6 105 69 93 99 98 102 29 -112 51 -112 93 -29 rrcurveto
          -11 34 34 -6 32 hhcurveto
          88 -1 76 42 48 96 35 71 10 54 4 105 -115 91 rcurveline
          -40 -42 -41 -31 -40 -20 -31 32 -47 54 -19 29 126 139 100 144 39 64 6 135 -75 176 -87 86 -129 -5 -177 -103 -68 -131 34 -101 55 -47 55 -57 -77 -166 -87 -179 -98 -155 -11 5 rcurveline
          40 231 50 358 26 316 rrcurveto
          28 -30 -54 14 -62 hhcurveto
          -108 -146 -43 23 callsubr
          -33 -72 -52 -113 -16 -106 rrcurveto
          endchar
        </CharString>
        <CharString name="l">
          -490 19 callsubr
          hstem
          37 595 vstem
          -65 callgsubr
          endchar
        </CharString>
        <CharString name="lacute">
          -490 -43 callsubr
          37 595 -594 568 hintmask 10100000
          105 138 7 callgsubr
          115 158 116 38 hvcurveto
          -80 127 -143 -67 59 605 26 290 11 316 rlinecurve
          -43 35 -55 13 -57 -1 -119 -1 -130 -65 -64 -81 -5 -29 57 -475 -19 callgsubr
          hintmask 01010000
          -3 1491 -94 callgsubr
          endchar
        </CharString>
        <CharString name="lcaron">
          -239 19 callsubr
          30 -20 hstemhm
          37 899 hintmask 00000000
          hintmask 10110000
          593 1052 rmoveto
          154 -28 99 169 50 197 40 130 rlinecurve
          18 callsubr
          -507 -1428 -10 callgsubr
          rlineto
          hintmask 11010000
          59 605 26 331 11 316 rrcurveto
          -21 callgsubr
          hintmask 10110000
          -36 14 -22 15 -18 vhcurveto
          endchar
        </CharString>
        <CharString name="lcommaaccent">
          -490 2 callgsubr
          1633 -20 hstemhm
          37 595 -502 452 hintmask 01110000
          -65 callgsubr
          hintmask 10001000
          93 -229 -86 callsubr
        </CharString>
        <CharString name="ldot">
          -176 1 -21 596 434 603 -20 hstemhm
          37 675 -184 446 hintmask 10110000
          105 138 -10 callgsubr
          59 605 26 331 11 316 rlinecurve
          -21 callgsubr
          -36 14 -22 15 -18 vhcurveto
          hintmask 01001000
          640 438 -103 callsubr
        </CharString>
        <CharString name="less">
          -235 10 1097 hstem
          76 782 vstem
          136 343 rmoveto
          580 -333 54 32 71 95 17 74 rlinecurve
          -426 309 405 357 -17 67 -94 140 -55 23 rlinecurve
          -591 -425 -15 -86 30 -206 41 -47 rlinecurve
          endchar
        </CharString>
        <CharString name="lessequal">
          29 callgsubr
          70 538 rmoveto
          756 -148 58 50 27 80 17 74 rlinecurve
          -500 121 500 277 -17 67 -55 125 -55 23 rlinecurve
          -707 -344 -34 -75 -19 -144 29 -106 rlinecurve
          21 -508 -10 callsubr
        </CharString>
        <CharString name="logicalnot">
          -43 222 24 hstem
          698 250 vstem
          91 440 rmoveto
          612 1 -9 -195 98 -38 87 3 70 81 rlinecurve
          375 vlineto
          -85 78 -717 -56 -46 -78 -22 -58 20 callsubr
        </CharString>
        <CharString name="lozenge">
          102 2 -21 1633 -20 hstem
          54 1090 vstem
          406 30 rmoveto
          -34 46 66 -15 68 hhcurveto
          107 114 37 49 53 hvcurveto
          284 761 -100 206 -237 551 -34 19 -45 9 -49 1 rlinecurve
          -107 3 -124 -27 -62 -50 -81 -235 rcurveline
          -251 -589 213 -392 rlineto
          368 -63 rmoveto
          -91 229 -138 293 97 275 65 183 rlineto
          16 hlineto
          91 -226 131 -277 -145 -477 rlineto
          endchar
        </CharString>
        <CharString name="lslash">
          -375 1 -21 1201 -20 452 -20 hstem
          -14 740 vstem
          135 138 7 callgsubr
          163 195 116 38 hvcurveto
          -80 127 -199 -104 18 183 14 158 11 140 rlinecurve
          248 150 15 92 -27 115 -48 29 rlinecurve
          -167 -113 12 188 7 157 6 153 rlinecurve
          -43 35 -40 13 -57 -1 -119 -1 -130 -65 -64 -81 -4 -24 45 -316 50 -286 -172 -117 rcurveline
          6 -62 52 -75 43 -24 95 57 rcurveline
          -72 -370 -11 -57 16 -31 20 -23 rlinecurve
          endchar
        </CharString>
        <CharString name="m">
          30 callgsubr
          hstemhm
          9 1704 hintmask 00000000
          hintmask 10110000
          -64 callsubr
          hintmask 11010000
          -39 callgsubr
          hintmask 10110000
          -24 callgsubr
          endchar
        </CharString>
        <CharString name="macron">
          -367 1337 271 hstem
          720 8 vstem
          23 1337 -85 callsubr
        </CharString>
        <CharString name="macron.cap">
          -367 1657 264 hstem
          720 8 vstem
          23 1657 -85 callsubr
        </CharString>
        <CharString name="minus">
          -117 440 314 hstem
          905 7 vstem
          91 440 -12 callsubr
        </CharString>
        <CharString name="mu">
          -78 callsubr
        </CharString>
        <CharString name="multiply">
          -28 117 867 hstem
          111 868 vstem
          111 301 rmoveto
          31 -66 68 -69 123 -44 211 259 rcurveline
          248 -264 67 32 71 71 45 122 rlinecurve
          -256 226 260 233 -32 68 -66 67 -124 44 rlinecurve
          -216 -257 -245 261 -66 -32 -72 -69 -44 -123 rlinecurve
          247 -227 rlineto
          endchar
        </CharString>
        <CharString name="n">
          76 1 -21 hstem
          26 1166 vstem
          -101 callgsubr
          endchar
        </CharString>
        <CharString name="nacute">
          76 1 -21 1267 485 hstemhm
          26 1166 -754 523 hintmask 10100000
          -101 callgsubr
          hintmask 01010000
          430 1181 -92 callgsubr
        </CharString>
        <CharString name="nbspace">
          -716 endchar
        </CharString>
        <CharString name="ncaron">
          76 1 -21 hstemhm
          26 1166 vstemhm
          -101 callgsubr
          382 1213 -91 callgsubr
        </CharString>
        <CharString name="ncommaaccent">
          76 2 callgsubr
          hstemhm
          26 1166 -806 452 hintmask 01100000
          -101 callgsubr
          hintmask 10010000
          347 -157 -86 callsubr
        </CharString>
        <CharString name="nine">
          37 -291 1521 -249 249 hstemhm
          63 383 287 350 hintmask 00000000
          hintmask 10110000
          236 -107 rmoveto
          46 -99 35 -45 80 -40 243 176 349 256 91 387 rrcurveto
          hintmask 01110000
          403 24 -134 299 -374 hhcurveto
          -368 -190 -233 -328 28 hvcurveto
          20 -240 133 -147 143 2 150 2 159 162 90 100 22 -12 rcurveline
          hintmask 10110000
          -142 -232 -240 -231 -165 -180 rrcurveto
          237 634 rmoveto
          hintmask 01110000
          -32 141 -5 137 27 133 63 43 rcurveline
          50 -6 86 -36 40 -36 24 -82 6 -39 1 -102 rrcurveto
          endchar
        </CharString>
        <CharString name="notequal">
          -23 211 239 157 617 hstem
          102 894 vstem
          104 211 rmoveto
          219 hlineto
          -56 -262 73 -51 46 -22 99 2 rlinecurve
          90 333 347 1 rlineto
          17 callsubr
          -343 -27 35 127 rlineto
          240 hlineto
          17 callsubr
          -234 -19 78 287 -92 48 -95 15 -106 -15 rlinecurve
          -77 -358 -305 -24 rlineto
          -41 -53 -16 -51 -75 vvcurveto
          -15 0 -18 2 -18 vhcurveto
          305 hlineto
          -32 -147 -218 -17 rlineto
          -42 -56 -15 -49 -74 vvcurveto
          -15 0 -18 2 -19 vhcurveto
          endchar
        </CharString>
        <CharString name="ntilde">
          76 1 -21 1276 415 hstemhm
          26 1166 -1013 842 hintmask 10100000
          -101 callgsubr
          hintmask 01010000
          171 1199 -81 callgsubr
        </CharString>
        <CharString name="numbersign">
          328 51 257 -240 241 312 238 hstemhm
          19 1394 hintmask 00000000
          hintmask 01110000
          23 101 rmoveto
          208 -19 -43 -264 88 -45 94 -24 104 -5 rlinecurve
          57 328 215 -8 -50 -246 92 -49 83 -26 102 2 rlinecurve
          hintmask 10110000
          65 313 266 -13 36 78 19 102 -29 84 rlinecurve
          -230 hlineto
          56 312 rlineto
          224 hlineto
          38 83 2 76 -18 79 rrcurveto
          -199 hlineto
          49 230 -97 73 -98 20 -125 -21 rlinecurve
          -47 -302 rlineto
          -222 hlineto
          48 230 -93 57 -103 35 -132 -19 rlinecurve
          -46 -303 rlineto
          -246 hlineto
          -37 -98 -3 -38 25 -97 229 -12 rcurveline
          hintmask 01110000
          -41 -305 rlineto
          -211 hlineto
          -35 -64 -4 -56 9 -88 rrcurveto
          557 208 rmoveto
          56 302 rlineto
          208 hlineto
          -50 -302 rlineto
          endchar
        </CharString>
        <CharString name="o">
          -33 7 callsubr
          -3 callsubr
          vstem
          -106 callsubr
          endchar
        </CharString>
        <CharString name="oacute">
          -8 callgsubr
          63 485 hstemhm
          63 351 -103 523 -177 366 hintmask 11010100
          -106 callsubr
          hintmask 00101000
          -18 955 -92 callgsubr
        </CharString>
        <CharString name="obreve">
          -8 callgsubr
          hstemhm
          -3 callsubr
          vstemhm
          -106 callsubr
          107 988 -84 callsubr
        </CharString>
        <CharString name="ocircumflex">
          -33 4 callgsubr
          63 351 -248 730 -239 366 hintmask 11010100
          -106 callsubr
          hintmask 00101000
          -121 954 -93 callgsubr
        </CharString>
        <CharString name="odieresis">
          -8 callgsubr
          63 434 hstemhm
          63 351 -297 888 -348 366 hintmask 11010100
          -106 callsubr
          hintmask 00101000
          374 955 -104 callgsubr
        </CharString>
        <CharString name="oe">
          372 7 callsubr
          61 353 vstem
          121 167 rmoveto
          16 -105 302 -70 133 -12 58 6 73 42 62 45 rrcurveto
          1 hlineto
          13 -11 13 -13 13 -13 rrcurveto
          -43 41 32 -15 33 hhcurveto
          178 253 212 107 80 hvcurveto
          -72 callsubr
          297 16 29 23 44 2 87 -10 65 -10 61 -6 3 -20 8 -99 36 -54 14 -159 106 -35 23 -24 6 -19 1 rrcurveto
          -73 -124 -58 -37 -60 hvcurveto
          -7 -5 rlineto
          50 -80 -90 32 -56 hhcurveto
          -63 -301 -104 -89 -68 hvcurveto
          -34 -44 1 -121 -68 vvcurveto
          -183 26 -211 34 -217 vhcurveto
          307 125 rmoveto
          -10 101 -4 101 99 vvcurveto
          81 4 80 8 80 vhcurveto
          60 29 154 -63 rlineto
          12 -115 5 -104 -101 vvcurveto
          -75 -1 -74 -7 -73 vhcurveto
          -55 -38 -70 15 -55 30 -41 27 rlinecurve
          536 123 rmoveto
          1 1 1 1 vvcurveto
          13 101 10 274 56 vvcurveto
          91 -29 68 -20 35 -8 -58 -136 -114 -173 -46 -68 rrcurveto
          endchar
        </CharString>
        <CharString name="ogonek">
          -566 -417 -21 hstem
          28 509 vstem
          28 -225 rmoveto
          -68 callgsubr
          39 73 83 141 46 72 rlinecurve
          -189 -70 rlineto
          -90 -61 -141 -99 -111 vvcurveto
          endchar
        </CharString>
        <CharString name="ograve">
          -8 callgsubr
          63 485 hstemhm
          63 351 -198 523 -82 366 hintmask 11010100
          -106 callsubr
          hintmask 00101000
          212 955 -80 callgsubr
        </CharString>
        <CharString name="ohungarumlaut">
          -8 callgsubr
          47 493 hstemhm
          63 351 -237 894 -414 366 hintmask 11010100
          -106 callsubr
          hintmask 00101000
          -106 939 -71 callgsubr
        </CharString>
        <CharString name="omacron">
          -8 callgsubr
          153 271 hstemhm
          -3 callsubr
          -128 8 hintmask 11011000
          -106 callsubr
          hintmask 00100100
          -230 1045 -85 callsubr
        </CharString>
        <CharString name="one">
          -368 1 -21 hstem
          3 627 vstem
          216 22 rmoveto
          41 -29 132 -14 71 1 30 callsubr
          132 -18 57 49 217 32 306 7 164 -51 46 -56 41 -59 35 -184 -41 -181 -134 -96 -121 69 -149 rcurveline
          191 33 30 -203 rlineto
          endchar
        </CharString>
        <CharString name="onehalf">
          1040 -20 18 -16 18 763 19 hstemhm
          148 549 1001 322 hintmask 00110000
          334 800 -58 callsubr
          hintmask 00000000
          927 -1293 -12 callgsubr
          hintmask 01001000
          -60 callgsubr
          hintmask 10001000
          -5 -115 59 -197 76 -47 rrcurveto
          hintmask 01001000
          -1017 146 -57 callsubr
        </CharString>
        <CharString name="onequarter">
          1082 -19 1688 -1668 -21 783 19 hstemhm
          148 549 -385 1312 -432 27 hintmask 01000100
          1304 235 rmoveto
          -50 callsubr
          -92 11 -69 -113 77 -167 77 -17 rlinecurve
          hintmask 00110000
          -970 565 -58 callsubr
          hintmask 10001000
          -90 -1147 -57 callsubr
        </CharString>
        <CharString name="onesuperior">
          -384 562 19 hstem
          23 549 vstem
          209 599 -58 callsubr
          endchar
        </CharString>
        <CharString name="ordfeminine">
          -3 478 18 -17 18 997 17 2 17 hstemhm
          61 994 hintmask 00000000
          hintmask 01011000
          134 622 rmoveto
          1 -46 71 -24 42 -30 35 -24 30 -21 31 2 15 1 16 6 17 13 81 71 95 231 47 121 13 -6 rcurveline
          -12 -77 -8 -67 -9 -87 rrcurveto
          hintmask 10101000
          -8 -76 29 -22 22 -23 47 -51 67 -36 54 1 99 2 86 117 60 138 -73 104 rcurveline
          -149 -79 85 201 70 391 -7 55 rlinecurve
          72 -61 -73 32 -104 hhcurveto
          -67 -60 -12 -12 -18 hvcurveto
          -27 5 -83 2 -101 vhcurveto
          hintmask 01011000
          -52 88 -68 102 -92 64 -33 -4 -173 -32 -105 -135 rrcurveto
          -15 -21 -6 -12 -14 vvcurveto
          -11 3 -13 7 -24 vhcurveto
          42 -134 21 -224 2 -136 rrcurveto
          1 -46 -3 -78 -24 vvcurveto
          259 177 rmoveto
          20 104 12 100 -2 105 -1 92 rcurveline
          55 -13 60 -9 69 -18 rrcurveto
          -72 1 38 -3 -34 vhcurveto
          -28 -60 -94 -183 -64 -62 rrcurveto
          endchar
        </CharString>
        <CharString name="ordmasculine">
          -123 479 18 1016 17 hstem
          85 301 209 314 vstem
          139 613 rmoveto
          63 -63 206 -61 114 -10 55 6 52 19 73 37 49 25 70 42 22 25 rrcurveto
          29 107 37 237 171 vvcurveto
          96 -3 48 -11 51 vhcurveto
          -76 91 -193 82 -144 14 -87 -12 -245 -95 -50 -63 -36 -237 34 -248 41 -262 rrcurveto
          259 134 rmoveto
          -8 86 -4 87 85 vvcurveto
          70 4 68 6 69 vhcurveto
          52 25 132 -54 rlineto
          10 -99 5 -89 -87 vvcurveto
          -64 -1 -64 -6 -62 vhcurveto
          -47 -33 -60 13 -48 26 -35 23 rlinecurve
          endchar
        </CharString>
        <CharString name="oslash">
          -33 7 callsubr
          -3 callsubr
          vstem
          126 136 rmoveto
          20 -21 34 -20 40 -19 -78 -206 rcurveline
          47 -78 55 -20 75 -4 108 238 rcurveline
          53 -13 51 -9 41 -4 65 7 60 22 85 43 57 29 82 49 25 30 rrcurveto
          34 124 43 276 199 vvcurveto
          112 -3 56 -13 60 vhcurveto
          -29 34 -44 34 -52 30 95 206 rcurveline
          -49 98 -46 32 -96 27 -109 -275 rcurveline
          -52 15 -52 11 -47 5 -102 -14 -285 -110 -59 -74 -42 -276 40 -289 48 -305 rrcurveto
          302 156 rmoveto
          -10 101 -4 101 99 vvcurveto
          81 4 80 8 80 vhcurveto
          60 29 154 -63 rlineto
          12 -115 5 -104 -101 vvcurveto
          -75 -1 -74 -7 -73 vhcurveto
          -55 -38 -70 15 -55 30 -41 27 rlinecurve
          endchar
        </CharString>
        <CharString name="otilde">
          -8 callgsubr
          72 415 hstemhm
          63 351 -288 842 -311 366 hintmask 11010100
          -106 callsubr
          hintmask 00101000
          -203 973 -81 callgsubr
        </CharString>
        <CharString name="p">
          9 -4 callgsubr
          hstemhm
          144 317 hintmask 00000000
          hintmask 11110000
          -69 callgsubr
          endchar
        </CharString>
        <CharString name="paragraph">
          501 -184 37 1146 22 587 -20 hstem
          156 604 vstem
          388 -147 rmoveto
          117 -81 212 58 24 65 24 737 rcurveline
          -1 0 0 1 hvcurveto
          -8 527 94 -4 307 -48 300 96 rlinecurve
          24 104 7 216 -90 84 -602 -129 rcurveline
          -634 -164 -15 -205 10 -396 76 -207 rlinecurve
          49 -41 129 -29 118 -33 rrcurveto
          408 -551 rmoveto
          75 -59 231 8 80 93 -33 161 -18 101 -29 80 58 114 64 529 -9 39 -27 62 -212 79 -146 -61 55 -728 rcurveline
          -41 -90 -37 -194 -11 -134 rrcurveto
          endchar
        </CharString>
        <CharString name="parenleft">
          -422 -291 2143 hstem
          118 311 vstem
          636 1802 rmoveto
          -156 50 -144 -126 -217 -566 -1 -360 rlinecurve
          22 -304 67 -352 206 -435 106 18 96 34 78 60 -121 317 -124 357 -19 360 4 122 64 384 139 441 rrcurveto
          endchar
        </CharString>
        <CharString name="parenright">
          -422 -291 2143 hstem
          265 311 vstem
          58 -241 rmoveto
          156 -50 144 126 217 566 1 360 rlinecurve
          -22 304 -67 352 -206 435 -106 -18 -96 -34 -78 -60 121 -317 124 -357 19 -360 -4 -122 -64 -384 -139 -441 rrcurveto
          endchar
        </CharString>
        <CharString name="partialdiff">
          -13 19 callsubr
          hstem
          68 350 257 381 vstem
          106 136 rmoveto
          86 -73 216 -71 133 -12 65 7 61 22 87 43 60 29 87 49 26 30 43 124 62 276 15 199 6 86 10 126 -16 87 -116 169 -358 271 -325 115 -51 -22 -75 -121 -4 -51 rrcurveto
          231 -163 148 -120 101 -101 -109 -19 -321 -148 -63 -72 -61 -276 24 -197 38 -187 rrcurveto
          312 156 rmoveto
          -4 166 6 62 23 158 215 161 rcurveline
          17 -5 5 -180 -7 -195 -31 -201 rlinecurve
          -57 -38 -69 15 -58 30 -40 27 rlinecurve
          endchar
        </CharString>
        <CharString name="percent">
          874 -112 1688 -1576 -21 -5 callgsubr
          hintmask 01101110
          420 693 rmoveto
          273 125 197 244 26 callgsubr
          29 callsubr
          -241 102 -186 278 vhcurveto
          -81 236 rmoveto
          -59 callsubr
          813 -523 rmoveto
          -14 callsubr
          26 callgsubr
          -15 callsubr
          vhcurveto
          299 -191 rmoveto
          -59 callsubr
          hintmask 10010000
          -1139 -180 -57 callsubr
        </CharString>
        <CharString name="period">
          -526 -34 509 hstem
          15 531 vstem
          15 195 rmoveto
          -20 callsubr
        </CharString>
        <CharString name="periodcentered">
          -425 375 509 hstem
          75 531 vstem
          75 604 rmoveto
          -20 callsubr
        </CharString>
        <CharString name="perthousand">
          1718 -112 1688 -1597 856 -856 900 -273 943 -856 142 -5 callgsubr
          66 274 217 287 hintmask 0000000000000000
          hintmask 0000110111110000
          420 693 rmoveto
          273 125 197 244 hvcurveto
          hintmask 0001010100000000
          26 callgsubr
          -15 callsubr
          vhcurveto
          hintmask 0000110111110000
          -241 102 -186 278 vhcurveto
          -81 236 rmoveto
          -15 64 -10 65 73 vvcurveto
          61 7 50 16 54 vhcurveto
          50 24 119 -42 rlineto
          16 -65 9 -61 -71 vvcurveto
          hintmask 0010000100000000
          -62 -7 -52 -12 -56 vhcurveto
          -45 -32 rlineto
          hintmask 0000110111110000
          -53 12 -43 16 -32 22 rrcurveto
          1657 -523 rmoveto
          hintmask 0010000000110000
          -14 callsubr
          vhcurveto
          hintmask 0000100000010000
          26 callgsubr
          vhcurveto
          hintmask 0000110111110000
          29 callsubr
          hintmask 0100000010000000
          -844 hmoveto
          hintmask 0010000011000000
          -14 callsubr
          vhcurveto
          hintmask 0100000001000000
          26 callgsubr
          vhcurveto
          hintmask 0100000010000000
          29 callsubr
          hintmask 0001000011110000
          1143 -191 rmoveto
          -59 callsubr
          -844 hmoveto
          -59 callsubr
          hintmask 1000001000000000
          -1139 -180 -57 callsubr
        </CharString>
        <CharString name="pi">
          501 7 callsubr
          14 325 586 649 vstem
          391 54 rmoveto
          -45 48 87 -29 107 hhcurveto
          64 68 10 26 39 hvcurveto
          -10 170 -23 162 -30 147 29 362 rcurveline
          155 -16 -19 -268 5 -326 2 -35 rlinecurve
          -108 6 194 -124 94 hhcurveto
          131 93 178 98 37 hvcurveto
          -86 125 -178 -72 27 156 22 157 16 157 rlinecurve
          -22 105 52 -8 44 hhcurveto
          132 90 9 296 -132 69 -278 -111 rcurveline
          -890 111 -118 -24 -107 -60 -59 -72 rlinecurve
          -49 -104 102 -258 34 -103 66 -18 76 -2 81 19 5 319 rcurveline
          81 -9 55 -488 -44 -129 -35 -108 -8 -113 rlinecurve
          endchar
        </CharString>
        <CharString name="plus">
          -47 44 24 hstem
          411 246 318 7 vstem
          402 68 rmoveto
          98 -38 87 3 70 81 rrcurveto
          346 vlineto
          250 1 1 callgsubr
          rlinecurve
          -316 -25 40 376 rlineto
          25 -26 -45 11 -54 hhcurveto
          -95 -78 -37 -70 -44 hvcurveto
          59 -324 -269 -21 -9 callsubr
          329 hlineto
          endchar
        </CharString>
        <CharString name="plusminus">
          -47 21 -21 309 24 251 544 hstem
          410 246 319 7 vstem
          402 333 rmoveto
          98 -38 87 3 70 81 rrcurveto
          205 vlineto
          250 1 1 callgsubr
          rlinecurve
          -311 -25 35 240 rlineto
          25 -26 -45 11 -54 hhcurveto
          -95 -78 -37 -70 -44 hvcurveto
          53 -189 -263 -20 -9 callsubr
          328 hlineto
          -328 -584 rmoveto
          816 hlineto
          1 callgsubr
          -828 -65 rcurveline
          -46 -78 -22 -37 12 -113 rrcurveto
          endchar
        </CharString>
        <CharString name="product">
          295 -194 1725 hstemhm
          224 415 194 415 hintmask 00000000
          hintmask 11100000
          224 -112 rmoveto
          -7 callgsubr
          49 767 rcurveline
          191 -19 27 -231 29 -319 49 -149 24 callgsubr
          -7 callgsubr
          44 690 rcurveline
          -8 63 66 -3 38 hhcurveto
          94 101 -2 274 -98 59 -912 -77 rcurveline
          -503 75 -74 -129 8 -199 81 -94 rlinecurve
          220 33 26 -229 28 -301 48 -143 24 callgsubr
          endchar
        </CharString>
        <CharString name="q">
          18 -41 callsubr
          1202 -20 36 -20 hstemhm
          45 1161 hintmask 00000000
          hintmask 11011000
          116 147 26 callsubr
          39 -28 35 -25 36 2 18 1 18 8 20 16 96 82 119 269 55 141 20 -2 rcurveline
          -58 -703 -6 -63 30 -46 60 -43 rlinecurve
          67 -48 74 -33 80 3 38 1 39 19 41 42 57 57 44 92 37 100 -88 100 rcurveline
          -124 -70 -56 410 98 235 80 449 -8 64 rlinecurve
          hintmask 11101000
          84 -71 -84 37 -29 callgsubr
          -77 -70 -14 -14 -21 hvcurveto
          -32 6 -96 2 -118 vhcurveto
          hintmask 11011000
          -60 103 -69 113 -106 74 -39 -5 -202 -31 -124 -157 rrcurveto
          -19 -25 -7 -14 -16 vvcurveto
          -13 3 -15 8 -27 vhcurveto
          46 -157 20 -260 -158 -54 -6 -91 -28 vvcurveto
          304 206 rmoveto
          26 121 16 117 122 vvcurveto
          107 vlineto
          64 -15 66 -11 80 -20 rrcurveto
          -84 1 44 -3 -40 28 callsubr
          endchar
        </CharString>
        <CharString name="question">
          -161 1611 -20 hstem
          218 647 vstem
          290 605 rmoveto
          187 -10 48 218 rlineto
          158 -9 149 70 0 vvcurveto
          46 160 -6 225 -35 118 rrcurveto
          192 -133 -307 42 -98 hhcurveto
          -80 -35 -91 -147 -18 -123 182 -39 205 -29 123 -68 -303 -182 rcurveline
          -176 -107 104 -80 45 -196 rrcurveto
          -130 -410 rmoveto
          -20 callsubr
        </CharString>
        <CharString name="questiondown">
          -161 -440 20 hstem
          90 647 vstem
          665 566 rmoveto
          -187 10 -48 -218 rlineto
          -158 9 -149 -70 0 vvcurveto
          -46 -160 6 -225 35 -118 rrcurveto
          -192 133 307 -42 98 hhcurveto
          80 35 91 147 18 123 -182 39 -205 29 -123 68 303 182 rcurveline
          176 107 -104 80 -45 196 rrcurveto
          130 410 -24 callsubr
        </CharString>
        <CharString name="quotedbl">
          -211 1595 -20 hstemhm
          22 376 76 376 hintmask 11000000
          108 940 -37 callgsubr
          hintmask 10100000
          538 -621 -37 callgsubr
          endchar
        </CharString>
        <CharString name="quotedblbase">
          -179 441 15 callsubr
          -246 -64 callgsubr
          hintmask 10100000
          606 -52 -64 callgsubr
          endchar
        </CharString>
        <CharString name="quotedblleft">
          -172 920 20 hstemhm
          -11 416 39 416 hintmask 11000000
          247 1607 -41 callgsubr
          hintmask 10100000
          297 52 -41 callgsubr
          endchar
        </CharString>
        <CharString name="quotedblright">
          -179 1595 15 callsubr
          908 -64 callgsubr
          hintmask 10100000
          606 -52 -64 callgsubr
          endchar
        </CharString>
        <CharString name="quoteleft">
          -627 920 20 hstem
          -1 416 vstem
          257 1607 -41 callgsubr
          endchar
        </CharString>
        <CharString name="quotereversed">
          24 callsubr
          296 908 rmoveto
          158 52 -55 621 rlineto
          9 -31 -36 5 -37 hhcurveto
          -92 -100 -31 -70 -65 hvcurveto
          50 -189 89 -218 119 -179 rrcurveto
          endchar
        </CharString>
        <CharString name="quoteright">
          24 callsubr
          196 908 -64 callgsubr
          endchar
        </CharString>
        <CharString name="quotesinglbase">
          -627 446 -20 hstem
          38 416 vstem
          196 -241 -64 callgsubr
          endchar
        </CharString>
        <CharString name="quotesingle">
          -663 1595 -20 hstem
          22 376 vstem
          108 940 -37 callgsubr
          endchar
        </CharString>
        <CharString name="r">
          -89 1 -21 495 15 hstem
          648 330 vstem
          -87 callgsubr
          endchar
        </CharString>
        <CharString name="racute">
          -89 1 -21 495 15 757 485 hstemhm
          319 523 -194 330 hintmask 11001000
          -87 callgsubr
          hintmask 00110000
          221 1219 -92 callgsubr
        </CharString>
        <CharString name="radical">
          60 2 -21 1631 -20 hstem
          23 1230 vstem
          431 1 rmoveto
          33 -15 75 -6 41 1 95 3 167 41 34 43 165 696 rcurveline
          212 745 -23 60 -150 51 -116 -8 rlinecurve
          -208 -869 -64 -464 rlineto
          -26 hlineto
          -82 537 -72 58 -445 -78 -45 -69 -11 -53 24 -112 rlinecurve
          244 27 rlineto
          endchar
        </CharString>
        <CharString name="rcaron">
          -89 1 -21 495 15 hstemhm
          648 330 vstemhm
          -87 callgsubr
          173 1251 -91 callgsubr
        </CharString>
        <CharString name="rcommaaccent">
          -89 2 callgsubr
          495 15 hstemhm
          143 452 53 330 hintmask 01101000
          -87 callgsubr
          hintmask 10010000
          14 -119 -86 callsubr
        </CharString>
        <CharString name="registered">
          317 1312 275 hstem
          769 29 288 249 vstem
          165 357 rmoveto
          17 -115 428 -76 145 -13 79 12 391 87 31 110 rrcurveto
          38 136 41 386 217 vvcurveto
          123 -5 93 -47 56 vhcurveto
          115 -96 -384 99 -98 hhcurveto
          -69 -427 -113 -97 -74 hvcurveto
          -37 -48 1 -133 -74 vvcurveto
          -200 29 -328 37 -237 vhcurveto
          244 113 rmoveto
          19 93 11 35 18 46 -33 66 -48 501 5 23 52 71 158 36 84 -57 -35 -230 rcurveline
          37 -8 42 132 22 56 85 89 rlinecurve
          44 1 133 -26 70 -58 24 -115 -6 -170 -60 -125 -143 -94 rcurveline
          57 -67 93 47 72 -84 rlineto
          -96 -6 -53 -116 -105 hhcurveto
          -140 -68 106 163 -17 hvcurveto
          -69 9 23 -54 23 -122 7 -76 rlinecurve
          -18 -25 -46 -8 -36 hhcurveto
          -58 -2 -102 19 -29 33 rrcurveto
          220 357 rmoveto
          151 9 22 62 -1 97 -10 39 rlinecurve
          -22 3 -31 -47 -86 -118 -23 -45 rlinecurve
          endchar
        </CharString>
        <CharString name="ring">
          -484 1228 2 callsubr
          hstem
          19 1 callsubr
          vstem
          298 1228 -93 callsubr
        </CharString>
        <CharString name="ring.cap">
          -484 1527 2 callsubr
          hstem
          17 1 callsubr
          vstem
          296 1527 -93 callsubr
        </CharString>
        <CharString name="s">
          -216 7 callsubr
          43 19 callgsubr
          vstem
          97 55 rmoveto
          82 -13 180 -55 180 -7 107 44 85 68 78 76 -99 callsubr
          endchar
        </CharString>
        <CharString name="sacute">
          -216 -65 callsubr
          63 485 hstemhm
          43 357 -128 523 -270 316 hintmask 11010100
          97 55 rmoveto
          82 -13 180 -55 180 -7 107 44 85 68 78 76 -99 callsubr
          hintmask 00101000
          274 1192 -92 callgsubr
        </CharString>
        <CharString name="scaron">
          -216 -65 callsubr
          hstemhm
          43 19 callgsubr
          vstemhm
          97 55 rmoveto
          82 -13 180 -55 180 -7 107 44 85 68 78 76 -99 callsubr
          226 1224 -91 callgsubr
        </CharString>
        <CharString name="scircumflex">
          -216 4 callgsubr
          43 357 -334 730 -271 316 hintmask 11010100
          97 55 rmoveto
          82 -13 180 -55 180 -7 107 44 85 68 78 76 -99 callsubr
          hintmask 00101000
          110 1191 -93 callgsubr
        </CharString>
        <CharString name="section">
          -216 1616 -20 hstemhm
          39 351 -347 19 callgsubr
          -299 299 hintmask 00000000
          hintmask 10110000
          97 -4 rmoveto
          82 -13 180 -55 180 -7 107 44 85 68 78 76 24 70 13 96 -5 83 -28 35 -55 34 -62 45 rrcurveto
          hintmask 10101000
          113 98 24 70 13 96 -5 83 rlinecurve
          -77 97 -276 144 -92 49 9 216 rcurveline
          26 9 68 -93 126 -111 82 -34 rlinecurve
          116 120 58 143 -35 121 -161 54 rcurveline
          24 -59 -85 58 -59 hhcurveto
          -76 -123 -57 -37 -62 hvcurveto
          -45 -27 -133 -99 -59 vvcurveto
          -42 1 -220 21 -79 vhcurveto
          25 -32 50 -35 59 -32 rrcurveto
          hintmask 11010000
          -55 -37 -105 -84 -52 vvcurveto
          -42 5 -48 21 -79 vhcurveto
          92 -88 240 -107 134 -39 3 -37 -2 -76 -7 -38 -49 -24 rcurveline
          -109 80 -127 85 -141 4 rrcurveto
          hintmask 10110000
          -16 -34 -86 -103 100 -182 rrcurveto
          hintmask 11001000
          289 662 rmoveto
          8 160 146 -49 rlineto
          2 -22 0 -10 -12 vvcurveto
          -33 -2 -36 -6 -31 vhcurveto
          -53 -27 rlineto
          endchar
        </CharString>
        <CharString name="semicolon">
          -425 -244 695 282 509 hstemhm
          12 560 -502 531 hintmask 01010000
          70 962 -70 callgsubr
          hintmask 10100000
          -58 -1138 -11 callgsubr
        </CharString>
        <CharString name="seven">
          -66 1203 -20 hstem
          42 1003 vstem
          171 -162 rmoveto
          32 -80 125 -44 114 -4 48 -2 26 5 36 12 163 559 rcurveline
          170 506 122 -20 74 158 -34 201 -134 74 rlinecurve
          -83 -26 -68 -42 -73 -58 -104 47 -96 50 -149 29 -42 2 -226 -96 -23 -114 -31 -165 78 -238 74 -81 175 20 rcurveline
          27 327 239 -35 -153 -458 rlineto
          endchar
        </CharString>
        <CharString name="six">
          42 -20 249 -228 -21 hstemhm
          70 350 287 380 hintmask 00000000
          hintmask 01110000
          557 -20 rmoveto
          368 151 233 328 11 hvcurveto
          8 241 -55 148 -249 -4 -150 -2 -159 -162 -90 -100 -22 12 rcurveline
          142 232 253 279 165 180 -46 99 -35 45 -80 40 -243 -176 -362 -304 -91 -387 rrcurveto
          -403 -24 134 -299 374 hhcurveto
          hintmask 10110000
          -106 327 rmoveto
          -24 82 -6 10 -1 102 78 67 83 61 99 25 32 -141 5 -108 -27 -133 -63 -43 rcurveline
          -50 6 -86 36 -40 36 rrcurveto
          endchar
        </CharString>
        <CharString name="slash">
          -328 1605 -20 hstem
          103 618 vstem
          103 -166 rmoveto
          76 -53 78 -23 103 3 361 1844 rcurveline
          -78 49 -194 32 -74 -26 rrcurveto
          endchar
        </CharString>
        <CharString name="space">
          -716 endchar
        </CharString>
        <CharString name="sterling">
          -34 -17 419 -401 -21 24 -21 658 203 -202 235 hstemhm
          49 505 -403 408 hintmask 00000000
          hintmask 00110100
          169 -17 rmoveto
          116 7 108 71 52 89 rrcurveto
          hintmask 01001100
          -70 68 168 -100 124 -30 callsubr
          88 120 -21 239 -35 94 -148 28 rcurveline
          -100 -234 -231 30 4 70 4 103 3 112 rlinecurve
          198 1 38 74 25 101 -16 67 rlinecurve
          hintmask 00101010
          -240 -15 3 174 1 160 -2 61 rlinecurve
          129 -98 75 -33 110 -22 57 51 84 123 -33 185 -295 20 rcurveline
          23 -50 -36 35 -60 hhcurveto
          -55 -122 -68 -39 -56 hvcurveto
          -51 -34 -104 -76 -3 -61 rrcurveto
          hintmask 00110010
          64 -423 rlineto
          hintmask 10010100
          -127 -8 -32 -55 -16 -64 9 -80 rlinecurve
          197 hlineto
          40 -265 -66 35 -84 -1 -75 -32 rlinecurve
          hintmask 00110100
          -38 -135 57 -206 89 -54 rrcurveto
          endchar
        </CharString>
        <CharString name="summation">
          -92 -214 1775 hstem
          926 47 vstem
          31 75 rmoveto
          10 -71 33 -65 50 -60 122 -41 452 -57 175 5 109 83 23 224 -79 79 -300 -54 rcurveline
          -252 -6 384 400 13 59 10 64 -5 50 rlinecurve
          -294 486 205 -72 81 -27 127 -10 rlinecurve
          68 45 36 113 109 vvcurveto
          101 -31 96 -63 35 vhcurveto
          -412 -106 -333 73 rlineto
          -72 -51 -71 -123 -89 vvcurveto
          104 -224 169 -254 158 -194 -126 -158 -177 -171 -114 -189 rrcurveto
          endchar
        </CharString>
        <CharString name="t">
          -289 0 callsubr
          hstem
          127 356 231 41 vstem
          -74 callsubr
          endchar
        </CharString>
        <CharString name="tbar">
          -269 0 callsubr
          hstemhm
          56 437 229 25 -23 41 hintmask 00000000
          hintmask 11110000
          137 240 rmoveto
          -121 211 -139 122 131 169 205 104 58 vhcurveto
          -113 144 -221 -121 -1 185 104 3 75 4 34 3 rlinecurve
          45 64 12 126 -41 77 -230 -22 rcurveline
          109 vlineto
          hintmask 11101000
          77 3 95 6 61 5 21 57 59 112 -81 138 -222 -45 rcurveline
          22 callgsubr
          -51 -363 -122 -39 -3 -37 3 -77 20 -54 rlinecurve
          106 -6 17 -155 -115 -22 -15 -68 5 -52 24 -65 rlinecurve
          43 -2 41 -1 40 -1 rrcurveto
          -1 vlineto
          hintmask 11110000
          -57 -183 -8 -48 -25 vvcurveto
          endchar
        </CharString>
        <CharString name="tcaron">
          -259 0 callsubr
          hstem
          127 356 281 41 vstem
          559 1320 rmoveto
          150 -40 91 124 92 255 59 180 rlinecurve
          70 -65 -80 31 -92 hhcurveto
          -37 -36 -5 -9 -31 hvcurveto
          -483 -1686 rmoveto
          -123 4 207 -137 122 hhcurveto
          131 218 271 98 38 hvcurveto
          -127 141 -236 -178 -2 529 77 3 145 6 61 5 rlinecurve
          21 57 59 132 -81 138 -282 -45 rcurveline
          -9 281 -97 52 -130 -6 -47 -25 rlinecurve
          -61 -363 -112 -39 -3 -37 3 -86 20 -54 rlinecurve
          96 -6 50 -358 rlineto
          -57 -183 -8 -48 -25 vvcurveto
          endchar
        </CharString>
        <CharString name="thorn">
          13 -4 callgsubr
          449 -20 hstem
          113 380 vstem
          113 -227 rmoveto
          -90 34 -25 49 -35 vhcurveto
          -31 43 58 -30 52 hhcurveto
          88 125 73 70 48 hvcurveto
          -32 163 rlineto
          -192 hlineto
          18 71 14 64 9 56 rrcurveto
          -32 58 141 -47 143 hhcurveto
          34 33 6 9 31 hvcurveto
          143 419 61 312 18 312 rrcurveto
          103 -117 -159 43 -76 hhcurveto
          -58 -30 -14 -5 -22 hvcurveto
          -252 -640 44 354 56 352 18 335 rlinecurve
          34 -42 -53 13 -57 hhcurveto
          -121 -135 -65 -82 -67 hvcurveto
          -8 -31 55 -605 51 -303 -4 -15 rcurveline
          312 -212 rmoveto
          35 76 148 291 62 118 27 -8 rcurveline
          -7 -126 -32 -285 -22 -151 -46 3 -112 35 -53 47 rrcurveto
          endchar
        </CharString>
        <CharString name="three">
          -41 -291 276 hstemhm
          31 1008 -443 356 -269 356 8 callsubr
          54 -24 rmoveto
          -16 2 -19 4 -20 vhcurveto
          -120 83 146 -92 205 hhcurveto
          98 136 27 47 82 hvcurveto
          hintmask 10010000
          139 80 90 156 239 vvcurveto
          2 98 -215 121 -202 29 rrcurveto
          hintmask 10100000
          98 47 119 72 99 115 22 113 -9 84 -23 75 rrcurveto
          92 -89 -270 104 -90 hhcurveto
          -24 -57 -14 -22 -64 hvcurveto
          -103 -31 -119 -50 -54 -63 -63 -109 56 -124 34 -103 79 -34 75 6 79 27 28 183 rcurveline
          31 16 216 -80 3 -23 -35 -52 -83 -111 -80 -96 rlinecurve
          -125 38 -92 -36 -84 -137 94 -183 93 -21 rlinecurve
          68 13 93 66 42 70 rrcurveto
          hintmask 10010000
          73 -34 78 -44 43 -69 -8 -54 -18 -93 -24 -47 rrcurveto
          -7 -37 -37 -5 -36 hhcurveto
          -145 2 -134 59 -123 61 rrcurveto
          hintmask 11000000
          -43 -36 -24 -37 -58 vvcurveto
          endchar
        </CharString>
        <CharString name="threequarters">
          1362 1 -21 741 11 callsubr
          416 27 hintmask 10000100
          1304 532 rmoveto
          -69 -113 77 -167 77 -17 -50 callsubr
          rlineto
          hintmask 00000000
          -1302 329 6 callsubr
          hintmask 01110000
          -72 callgsubr
          hintmask 01101000
          -14 1 -46 3 -13 vhcurveto
          hintmask 01110000
          308 -722 -57 callsubr
        </CharString>
        <CharString name="threesuperior">
          -167 522 11 callsubr
          hintmask 00000000
          hintmask 11100000
          94 651 6 callsubr
          hintmask 11010000
          -72 callgsubr
          hintmask 11100000
          -14 1 -46 3 -13 vhcurveto
          endchar
        </CharString>
        <CharString name="tilde">
          -252 1256 415 hstem
          11 842 vstem
          110 1265 -81 callgsubr
        </CharString>
        <CharString name="tilde.cap">
          -252 1605 415 hstem
          11 842 vstem
          121 1626 -84 callgsubr
        </CharString>
        <CharString name="trademark">
          1266 479 269 345 274 0 181 hstemhm
          418 281 1142 302 hintmask 00000000
          hintmask 01011000
          418 666 rmoveto
          -119 11 137 -70 104 hhcurveto
          98 115 161 72 15 hvcurveto
          -67 120 -130 -60 -4 131 31 307 rlineto
          -14 63 75 -8 33 hhcurveto
          58 40 30 79 74 vvcurveto
          hintmask 00111000
          70 -29 69 -60 32 vhcurveto
          -271 -73 -336 71 -73 -6 -85 -45 -54 -64 rlinecurve
          -17 -29 -5 -36 -37 vvcurveto
          hintmask 01011000
          -73 23 -89 16 -51 vhcurveto
          -17 38 32 -8 28 hhcurveto
          30 37 9 14 39 hvcurveto
          25 171 87 -19 39 -361 -13 -67 -12 -60 -13 -55 5 -59 rlinecurve
          535 -54 rmoveto
          hintmask 10111000
          -82 34 122 -51 89 hhcurveto
          143 26 92 112 -1 hvcurveto
          -1 76 -27 280 -13 111 17 2 rcurveline
          117 -442 rlineto
          -19 -44 -5 -89 -31 vvcurveto
          -42 51 78 -25 74 hhcurveto
          52 58 15 37 49 hvcurveto
          -6 41 -8 55 -11 54 -23 54 rlinecurve
          83 442 21 -3 -8 -177 -12 -248 15 -119 rlinecurve
          -96 13 87 -56 85 hhcurveto
          114 90 88 59 33 hvcurveto
          -28 146 -148 -15 37 224 7 262 5 125 rlinecurve
          -64 68 -217 104 -76 10 -105 -41 -55 -104 -10 -97 25 -16 17 -8 21 -10 -12 -58 -14 -79 -16 -95 -85 363 rcurveline
          -100 76 -209 61 -68 8 -110 -56 -30 -107 -8 -99 111 -33 rcurveline
          -37 -509 -112 6 rlineto
          endchar
        </CharString>
        <CharString name="two">
          19 1 -21 24 -21 hstemhm
          665 378 -26 callsubr
          233 -17 rmoveto
          87 3 71 42 51 77 7 10 9 16 11 19 4 -5 5 -5 5 -4 4 -6 rcurveline
          1 2 rlineto
          hintmask 10100000
          -68 76 151 -84 114 -30 callsubr
          88 120 -31 147 -35 94 -148 28 rcurveline
          -90 -142 -239 30 rlineto
          10 vlineto
          110 62 272 190 94 124 19 112 -15 90 -17 67 -116 122 -241 67 -117 7 rrcurveto
          -119 -227 -106 -74 -75 hvcurveto
          -63 -109 79 -239 42 -85 rrcurveto
          -9 32 29 -6 29 hhcurveto
          34 36 6 15 42 hvcurveto
          37 277 31 12 209 -75 3 -53 -50 -75 -157 -181 -95 -93 rlinecurve
          -56 46 -38 20 -39 12 -55 -18 -51 -30 -45 -40 rrcurveto
          hintmask 01100000
          -6 -135 69 -231 89 -54 rrcurveto
          endchar
        </CharString>
        <CharString name="twosuperior">
          -101 566 18 -16 18 hstemhm
          577 322 -26 callsubr
          208 568 -12 callgsubr
          hintmask 10100000
          -60 callgsubr
          hintmask 01100000
          -5 -115 59 -197 76 -47 rrcurveto
          endchar
        </CharString>
        <CharString name="u">
          -87 callsubr
          endchar
        </CharString>
        <CharString name="uacute">
          48 1 -49 callgsubr
          76 485 -23 callsubr
          -778 523 -104 callsubr
          323 674 -92 callgsubr
        </CharString>
        <CharString name="ubreve">
          -87 callsubr
          hintmask 00000000
          394 707 -84 callsubr
        </CharString>
        <CharString name="ucircumflex">
          48 1 -49 callgsubr
          75 461 -23 callsubr
          -977 730 -104 callsubr
          166 673 -93 callgsubr
        </CharString>
        <CharString name="udieresis">
          48 1 -49 callgsubr
          76 434 -23 callsubr
          -1026 888 -104 callsubr
          661 674 -104 callgsubr
        </CharString>
        <CharString name="ugrave">
          48 1 -49 callgsubr
          76 485 -23 callsubr
          -957 523 -104 callsubr
          469 674 -80 callgsubr
        </CharString>
        <CharString name="uhungarumlaut">
          48 1 -49 callgsubr
          60 493 -23 callsubr
          -966 894 -104 callsubr
          181 658 -71 callgsubr
        </CharString>
        <CharString name="umacron">
          48 1 -49 callgsubr
          166 271 -23 callsubr
          -248 8 -104 callsubr
          57 764 -85 callsubr
        </CharString>
        <CharString name="underscore">
          582 -372 260 hstem
          -46 1767 vstem
          15 -111 rmoveto
          -46 -78 -28 -102 18 -82 1688 2 rcurveline
          50 67 41 108 -23 84 rrcurveto
          endchar
        </CharString>
        <CharString name="uni0001">
          endchar
        </CharString>
        <CharString name="uni0002">
          endchar
        </CharString>
        <CharString name="uni0003">
          endchar
        </CharString>
        <CharString name="uni0004">
          endchar
        </CharString>
        <CharString name="uni0005">
          endchar
        </CharString>
        <CharString name="uni0006">
          endchar
        </CharString>
        <CharString name="uni0007">
          endchar
        </CharString>
        <CharString name="uni0008">
          endchar
        </CharString>
        <CharString name="uni0015">
          endchar
        </CharString>
        <CharString name="uni0016">
          endchar
        </CharString>
        <CharString name="uni0017">
          endchar
        </CharString>
        <CharString name="uni0018">
          endchar
        </CharString>
        <CharString name="uni0019">
          endchar
        </CharString>
        <CharString name="uni00AD">
          591 endchar
        </CharString>
        <CharString name="uni015E">
          -66 -393 239 -239 1942 hstemhm
          986 16 -26 callsubr
          169 37 rmoveto
          -7 -1 232 -27 149 -16 rrcurveto
          hintmask 10100000
          67 -147 rlineto
          -16 callgsubr
          -71 callsubr
          -104 163 rcurveline
          59 38 52 47 50 50 22 70 52 193 -9 97 -116 170 -351 238 -108 62 38 210 rcurveline
          13 hlineto
          122 -120 174 -79 91 -19 55 27 139 184 -64 254 -320 -15 rcurveline
          -41 20 -116 67 -73 22 -150 -64 -121 -86 -96 -155 12 -115 8 -259 24 -91 67 -116 351 -174 127 -35 17 -58 -9 -68 -12 -60 -60 -25 rcurveline
          -129 88 -155 79 -162 12 rrcurveto
          hintmask 01100000
          -16 -39 -84 -136 121 -210 rrcurveto
          endchar
        </CharString>
        <CharString name="uni015F">
          -216 -393 239 1358 -20 hstem
          43 19 callgsubr
          vstem
          97 55 rmoveto
          54 -9 96 -26 110 -20 70 -154 rcurveline
          -16 callgsubr
          -71 callsubr
          -89 138 rcurveline
          80 43 67 56 63 61 -99 callsubr
          endchar
        </CharString>
        <CharString name="uni0162">
          -13 -438 239 hstemhm
          412 341 8 callsubr
          442 -160 rmoveto
          -71 callsubr
          -116 180 rcurveline
          104 60 95 144 17 74 -78 132 rcurveline
          -220 -101 -9 270 60 561 rlineto
          -35 72 114 -26 59 hhcurveto
          132 90 9 306 -132 69 -348 -111 rcurveline
          -439 111 -95 -9 -118 -60 -71 -87 rlinecurve
          -59 -105 52 -218 34 -103 79 -34 75 6 79 27 41 281 rcurveline
          111 -28 60 -639 rlineto
          -2 hlineto
          -21 -125 -39 -111 10 -117 9 -102 83 -75 96 -39 95 -210 rcurveline
          -16 callgsubr
          endchar
        </CharString>
        <CharString name="uni0163">
          -289 -393 239 1336 -20 hstemhm
          85 418 -376 356 231 41 hintmask 00000000
          hintmask 11101000
          107 -115 rmoveto
          -71 callsubr
          -86 133 rcurveline
          121 68 140 197 31 81 -127 141 rcurveline
          hintmask 11011000
          -216 -178 -2 529 77 3 95 6 61 5 rlinecurve
          21 57 59 132 -81 138 rrcurveto
          hintmask 11101000
          -222 -45 22 callgsubr
          -61 -363 rlineto
          hintmask 11011000
          -112 -39 -3 -37 3 -86 20 -54 rlinecurve
          96 -6 50 -358 rlineto
          -57 -183 -8 -48 -25 vvcurveto
          2 -67 62 -71 76 -51 93 -205 rcurveline
          hintmask 11101000
          -16 callgsubr
          endchar
        </CharString>
        <CharString name="uni01C4">
          1426 0 -21 22 -21 hstemhm
          855 399 109 1145 -26 callsubr
          -51 callgsubr
          hintmask 10100000
          -92 callsubr
          hintmask 01100000
          -81 callsubr
          hintmask 01010000
          963 -414 -99 callgsubr
          hintmask 00000000
          332 1634 -88 callgsubr
        </CharString>
        <CharString name="uni01C5">
          1245 0 -21 22 -21 24 -21 hstemhm
          855 399 104 305 -29 callsubr
          -51 callgsubr
          hintmask 10010000
          -92 callsubr
          hintmask 01010000
          -31 callgsubr
          945 -411 -33 callsubr
          hintmask 00101000
          -102 callgsubr
          hintmask 01001000
          28 callgsubr
          211 1296 -91 callgsubr
        </CharString>
        <CharString name="uni01C6">
          1111 1 -21 24 -21 1221 -20 429 -20 hstemhm
          45 1161 18 305 hintmask 10111000
          -94 callsubr
          hintmask 00000000
          928 -356 -33 callsubr
          hintmask 01000100
          -102 callgsubr
          hintmask 10000100
          -32 callgsubr
          hintmask 01000100
          232 1296 -91 callgsubr
        </CharString>
        <CharString name="uni01C7">
          1025 13 callsubr
          -1548 -21 hstemhm
          55 1056 38 20 callgsubr
          hintmask 01100000
          -91 callsubr
          hintmask 10011000
          978 17 -98 callgsubr
          endchar
        </CharString>
        <CharString name="uni01C8">
          590 -41 callsubr
          hstemhm
          55 1056 -22 -17 callgsubr
          hintmask 01100000
          -91 callsubr
          hintmask 00000000
          1146 1218 -82 callsubr
        </CharString>
        <CharString name="uni01C9">
          74 -41 callsubr
          1633 -20 hstemhm
          37 595 -59 -17 callgsubr
          hintmask 01110000
          -65 callgsubr
          hintmask 00000000
          783 1060 rmoveto
          hintmask 10001010
          73 12 166 143 43 92 rrcurveto
          hintmask 10000100
          -66 callgsubr
          hintmask 10001010
          -18 -60 -2 -32 -46 callsubr
          hintmask 10000100
          -90 callsubr
          -64 10 -36 3 rlinecurve
          endchar
        </CharString>
        <CharString name="uni01CA">
          1254 13 callsubr
          -1549 -9 callgsubr
          820 20 callgsubr
          hintmask 00000000
          hintmask 00110000
          -86 callgsubr
          hintmask 01010000
          -97 callgsubr
          hintmask 10001100
          1367 -308 -98 callgsubr
          endchar
        </CharString>
        <CharString name="uni01CB">
          819 -417 -21 438 -9 callgsubr
          760 -17 callgsubr
          hintmask 00000000
          hintmask 00110000
          -86 callgsubr
          hintmask 01010000
          -97 callgsubr
          hintmask 00000000
          1535 893 rmoveto
          hintmask 10001010
          73 12 166 143 43 92 rrcurveto
          hintmask 10000100
          -66 callgsubr
          hintmask 10001010
          -18 -60 -2 -32 -46 callsubr
          hintmask 10000100
          -90 callsubr
          -64 10 -36 3 rlinecurve
          endchar
        </CharString>
        <CharString name="uni01CC">
          640 -41 callsubr
          hstemhm
          26 1166 -53 -17 callgsubr
          hintmask 01100000
          -101 callgsubr
          hintmask 00000000
          1347 1132 -82 callsubr
        </CharString>
        <CharString name="uni01CD">
          156 1 -17 callsubr
          6 1241 -919 710 hintmask 10100000
          -105 callsubr
          hintmask 01010000
          -333 954 -100 callsubr
        </CharString>
        <CharString name="uni01CE">
          -88 callsubr
          hintmask 00000000
          30 941 -91 callgsubr
        </CharString>
        <CharString name="uni01D0">
          -501 1 -21 hstemhm
          26 594 vstemhm
          63 212 -97 callsubr
          94 1067 -91 callgsubr
        </CharString>
        <CharString name="uni01D1">
          175 0 -21 hstemhm
          -3 callgsubr
          vstemhm
          -106 callgsubr
          5 1283 -88 callgsubr
        </CharString>
        <CharString name="uni01D2">
          -8 callgsubr
          hstemhm
          -3 callsubr
          vstemhm
          -106 callsubr
          -5 987 -91 callgsubr
        </CharString>
        <CharString name="uni01D4">
          -87 callsubr
          hintmask 00000000
          282 706 -91 callgsubr
        </CharString>
        <CharString name="uni01F1">
          1426 0 -21 22 -21 hstemhm
          855 399 109 1145 -26 callsubr
          -51 callgsubr
          hintmask 10100000
          -92 callsubr
          hintmask 01100000
          -81 callsubr
          hintmask 01010000
          963 -414 -99 callgsubr
          endchar
        </CharString>
        <CharString name="uni01F2">
          1245 0 -21 22 -21 24 -21 hstemhm
          855 399 104 305 -29 callsubr
          -51 callgsubr
          hintmask 10010000
          -92 callsubr
          hintmask 01010000
          -31 callgsubr
          945 -411 -33 callsubr
          hintmask 00101000
          -102 callgsubr
          hintmask 01001000
          -32 callgsubr
          endchar
        </CharString>
        <CharString name="uni01F3">
          1111 1 -21 24 -21 1221 -20 429 -20 hstemhm
          45 1161 18 305 hintmask 10111000
          -94 callsubr
          hintmask 00000000
          928 -356 -33 callsubr
          hintmask 01000100
          -102 callgsubr
          hintmask 10000100
          -32 callgsubr
          endchar
        </CharString>
        <CharString name="uni01F4">
          55 -20 302 -281 -44 callsubr
          83 432 -122 568 73 -103 callgsubr
          224 1534 -94 callgsubr
          endchar
        </CharString>
        <CharString name="uni0218">
          -66 2 callgsubr
          hstemhm
          275 452 259 16 hintmask 01010000
          -96 callgsubr
          hintmask 10100000
          174 -128 -86 callsubr
        </CharString>
        <CharString name="uni0219">
          -216 2 callgsubr
          1224 -20 hstemhm
          43 357 -223 452 -104 316 hintmask 01110100
          97 55 rmoveto
          82 -13 180 -55 180 -7 107 44 85 68 78 76 -99 callsubr
          hintmask 10001000
          148 -146 -86 callsubr
        </CharString>
        <CharString name="uni021A">
          -13 10 callgsubr
          87 -21 hstemhm
          412 341 -326 452 -26 callsubr
          -85 callgsubr
          hintmask 10010000
          83 -318 -86 callsubr
        </CharString>
        <CharString name="uni021B">
          -289 2 callgsubr
          1202 -20 hstemhm
          127 356 -334 452 113 41 hintmask 01110100
          -74 callsubr
          hintmask 10001000
          90 -331 -86 callsubr
        </CharString>
        <CharString name="uni0394">
          -51 callsubr
        </CharString>
        <CharString name="uni03A9">
          -79 callgsubr
        </CharString>
        <CharString name="uni03BC">
          -78 callsubr
        </CharString>
        <CharString name="uni1E02">
          200 -23 245 1344 434 hstemhm
          402 446 50 391 hintmask 10010000
          -75 callsubr
          hintmask 01100000
          154 1222 -103 callsubr
        </CharString>
        <CharString name="uni1E03">
          24 -20 235 -214 -46 callgsubr
          85 434 -68 -20 hstemhm
          47 1057 -530 446 hintmask 00000000
          hintmask 01101100
          -55 callgsubr
          hintmask 10101100
          -20 callgsubr
          hintmask 00010010
          334 947 -103 callsubr
        </CharString>
        <CharString name="uni1E0A">
          218 0 -21 22 -13 callgsubr
          490 446 -81 399 hintmask 00000000
          hintmask 01001000
          -51 callgsubr
          hintmask 10001000
          -92 callsubr
          hintmask 01001000
          -81 callsubr
          hintmask 00110000
          130 1172 -103 callsubr
        </CharString>
        <CharString name="uni1E0B">
          84 -65 callsubr
          63 434 -68 -20 hstemhm
          45 1161 -1080 446 hintmask 11011000
          -94 callsubr
          hintmask 00100100
          -117 908 -103 callsubr
        </CharString>
        <CharString name="uni1E1E">
          -41 -20 331 1255 434 hstemhm
          21 1003 -660 446 hintmask 10100000
          -62 callgsubr
          hintmask 01010000
          484 1255 -103 callsubr
        </CharString>
        <CharString name="uni1E1F">
          -372 -417 -21 1547 376 101 434 0 callgsubr
          -236 446 60 29 38 11 hintmask 00000000
          hintmask 11010011
          31 callgsubr
          33 -46 65 -82 119 -22 115 7 154 103 19 114 10 243 -17 322 -19 361 -48 callgsubr
          rrcurveto
          hintmask 11001011
          -260 -77 -19 305 42 -58 39 -67 174 -12 rlinecurve
          70 65 58 240 -37 74 -107 -11 -105 19 -163 37 -253 -103 -88 -210 -17 -38 -16 callsubr
          -693 14 callsubr
          hintmask 00100100
          195 1729 -103 callsubr
        </CharString>
        <CharString name="uni1E20">
          -27 callsubr
          1677 264 hstemhm
          83 432 480 8 31 -103 callgsubr
          65 1562 -85 callsubr
        </CharString>
        <CharString name="uni1E21">
          -47 callsubr
          153 271 hstemhm
          45 1063 -205 8 -98 callsubr
          -244 998 -85 callsubr
        </CharString>
        <CharString name="uni1E40">
          743 1 -21 22 -21 187 132 1266 434 hstemhm
          192 352 137 446 177 398 hintmask 00000000
          hintmask 01101010
          37 142 rmoveto
          hintmask 10101010
          -28 callsubr
          hintmask 01101010
          -38 callgsubr
          hintmask 10101010
          -56 callsubr
          hintmask 00010100
          816 1261 -103 callsubr
        </CharString>
        <CharString name="uni1E41">
          30 callgsubr
          81 434 hstemhm
          9 1704 -1061 446 hintmask 00000000
          hintmask 10101000
          -64 callsubr
          hintmask 11001000
          -39 callgsubr
          hintmask 10101000
          -24 callgsubr
          hintmask 00010100
          780 1178 -103 callsubr
        </CharString>
        <CharString name="uni1E44">
          255 0 -21 22 -13 callgsubr
          205 353 -52 446 -29 callsubr
          -86 callgsubr
          hintmask 10010000
          -97 callgsubr
          hintmask 00101000
          625 1261 -103 callsubr
        </CharString>
        <CharString name="uni1E45">
          76 1 -21 1267 434 hstemhm
          26 1166 -807 446 hintmask 10100000
          -101 callgsubr
          hintmask 01010000
          495 1181 -103 callsubr
        </CharString>
        <CharString name="uni1E56">
          148 0 -21 412 214 961 434 hstemhm
          409 446 -22 390 hintmask 11001000
          -68 callsubr
          hintmask 00110000
          122 871 -103 callsubr
        </CharString>
        <CharString name="uni1E57">
          9 -4 callgsubr
          83 434 hstemhm
          144 317 -105 446 hintmask 00000000
          hintmask 11101000
          -69 callgsubr
          hintmask 00010100
          121 927 -103 callsubr
        </CharString>
        <CharString name="uni1E60">
          -66 1 -13 callgsubr
          402 446 138 16 hintmask 10010000
          -96 callgsubr
          hintmask 01100000
          450 1529 -103 callsubr
        </CharString>
        <CharString name="uni1E61">
          -216 -65 callsubr
          63 434 hstemhm
          43 357 -181 446 -140 316 hintmask 11010100
          97 55 rmoveto
          82 -13 180 -55 180 -7 107 44 85 68 78 76 -99 callsubr
          hintmask 00101000
          339 1192 -103 callsubr
        </CharString>
        <CharString name="uni1E6A">
          -13 0 -21 1587 434 hstemhm
          412 341 -304 446 32 callsubr
          -85 callgsubr
          hintmask 01010000
          254 1339 -103 callsubr
        </CharString>
        <CharString name="uni1E6B">
          -301 0 callsubr
          366 434 hstemhm
          127 356 -331 446 116 41 hintmask 11010100
          -74 callsubr
          hintmask 00101000
          242 1288 -103 callsubr
        </CharString>
        <CharString name="uni1E8E">
          52 1 -13 callgsubr
          0 1165 -780 446 hintmask 10100000
          -96 callsubr
          hintmask 01010000
          228 1338 -103 callsubr
        </CharString>
        <CharString name="uni1E8F">
          -47 callgsubr
          76 434 hstemhm
          7 1092 -759 446 -100 callgsubr
          395 674 -103 callsubr
        </CharString>
</ttFont>
